<mxfile modified="2019-11-16T10:56:35.731Z" host="www.draw.io" agent="Mozilla/5.0 (Windows NT 10.0; Win64; x64) AppleWebKit/537.36 (KHTML, like Gecko) Chrome/78.0.3904.97 Safari/537.36" etag="fE4DyGl4pbWmNx3_5UrA" version="12.2.6" type="github" pages="2">
  <diagram id="qQn4R4nChFtzgMllty3E" name="Regular Teams">
    <mxGraphModel dx="1043" dy="519" grid="1" gridSize="10" guides="1" tooltips="1" connect="1" arrows="1" fold="1" page="1" pageScale="1" pageWidth="850" pageHeight="1100" background="none" math="0" shadow="1">
      <root>
        <mxCell id="0"/>
        <mxCell id="1" parent="0"/>
        <mxCell id="-gJ6sGOuQFcfJpE5J3B6-256" value="" style="rounded=0;whiteSpace=wrap;html=1;strokeColor=none;strokeWidth=1;gradientColor=none;fontSize=9;fontColor=#33FFFF;fillColor=none;" parent="1" vertex="1">
          <mxGeometry x="32" y="192.5" width="807" height="310" as="geometry"/>
        </mxCell>
        <mxCell id="-gJ6sGOuQFcfJpE5J3B6-254" value="" style="rounded=1;whiteSpace=wrap;html=1;strokeColor=#000000;strokeWidth=1;gradientColor=none;fontSize=9;fontColor=#33FFFF;" parent="1" vertex="1">
          <mxGeometry x="251" y="366.5" width="99" height="125" as="geometry"/>
        </mxCell>
        <mxCell id="-gJ6sGOuQFcfJpE5J3B6-177" value="" style="rounded=1;whiteSpace=wrap;html=1;strokeColor=#000000;strokeWidth=1;gradientColor=none;fontSize=9;fontColor=#33FFFF;labelBackgroundColor=none;" parent="1" vertex="1">
          <mxGeometry x="390.5" y="380.5" width="207" height="95" as="geometry"/>
        </mxCell>
        <mxCell id="-gJ6sGOuQFcfJpE5J3B6-40" value="" style="verticalLabelPosition=bottom;verticalAlign=top;html=1;shape=mxgraph.basic.rect;fillColor=#b1ddf0;fillColor2=none;strokeColor=#10739e;strokeWidth=1;size=20;indent=5;" parent="1" vertex="1">
          <mxGeometry x="46.5" y="212.5" width="190" height="280" as="geometry"/>
        </mxCell>
        <mxCell id="-gJ6sGOuQFcfJpE5J3B6-42" value="" style="verticalLabelPosition=bottom;verticalAlign=top;html=1;shape=mxgraph.basic.rect;fillColor=#b0e3e6;fillColor2=none;strokeColor=#0e8088;strokeWidth=1;size=20;indent=5;dashed=1;labelBackgroundColor=none;" parent="1" vertex="1">
          <mxGeometry x="56.5" y="292.5" width="170" height="130" as="geometry"/>
        </mxCell>
        <mxCell id="-gJ6sGOuQFcfJpE5J3B6-41" value="" style="verticalLabelPosition=bottom;verticalAlign=top;html=1;shape=mxgraph.basic.rect;fillColor=#b0e3e6;fillColor2=none;strokeColor=#0e8088;strokeWidth=1;size=20;indent=5;dashed=1;labelBackgroundColor=none;" parent="1" vertex="1">
          <mxGeometry x="56.5" y="222.5" width="170" height="70" as="geometry"/>
        </mxCell>
        <mxCell id="-gJ6sGOuQFcfJpE5J3B6-20" value="" style="shape=image;html=1;verticalAlign=top;verticalLabelPosition=bottom;labelBackgroundColor=none;imageAspect=0;aspect=fixed;image=https://cdn2.iconfinder.com/data/icons/25-free-ui-icons/40/user-128.png;imageBackground=none;" parent="1" vertex="1">
          <mxGeometry x="66.5" y="319.5" width="30" height="30" as="geometry"/>
        </mxCell>
        <mxCell id="-gJ6sGOuQFcfJpE5J3B6-21" value="" style="shape=image;html=1;verticalAlign=top;verticalLabelPosition=bottom;labelBackgroundColor=none;imageAspect=0;aspect=fixed;image=https://cdn2.iconfinder.com/data/icons/25-free-ui-icons/40/user-128.png;imageBackground=none;" parent="1" vertex="1">
          <mxGeometry x="106.5" y="319.5" width="30" height="30" as="geometry"/>
        </mxCell>
        <mxCell id="-gJ6sGOuQFcfJpE5J3B6-22" value="" style="shape=image;html=1;verticalAlign=top;verticalLabelPosition=bottom;labelBackgroundColor=none;imageAspect=0;aspect=fixed;image=https://cdn2.iconfinder.com/data/icons/25-free-ui-icons/40/user-128.png;imageBackground=none;" parent="1" vertex="1">
          <mxGeometry x="146.5" y="319.5" width="30" height="30" as="geometry"/>
        </mxCell>
        <mxCell id="-gJ6sGOuQFcfJpE5J3B6-23" value="" style="shape=image;html=1;verticalAlign=top;verticalLabelPosition=bottom;labelBackgroundColor=none;imageAspect=0;aspect=fixed;image=https://cdn2.iconfinder.com/data/icons/25-free-ui-icons/40/user-128.png;imageBackground=none;" parent="1" vertex="1">
          <mxGeometry x="186.5" y="319.5" width="30" height="30" as="geometry"/>
        </mxCell>
        <mxCell id="-gJ6sGOuQFcfJpE5J3B6-24" value="" style="shape=image;html=1;verticalAlign=top;verticalLabelPosition=bottom;labelBackgroundColor=none;imageAspect=0;aspect=fixed;image=https://cdn2.iconfinder.com/data/icons/25-free-ui-icons/40/user-128.png;imageBackground=none;" parent="1" vertex="1">
          <mxGeometry x="65.5" y="354.5" width="30" height="30" as="geometry"/>
        </mxCell>
        <mxCell id="-gJ6sGOuQFcfJpE5J3B6-25" value="" style="shape=image;html=1;verticalAlign=top;verticalLabelPosition=bottom;labelBackgroundColor=none;imageAspect=0;aspect=fixed;image=https://cdn2.iconfinder.com/data/icons/25-free-ui-icons/40/user-128.png;imageBackground=none;" parent="1" vertex="1">
          <mxGeometry x="105.5" y="354.5" width="30" height="30" as="geometry"/>
        </mxCell>
        <mxCell id="-gJ6sGOuQFcfJpE5J3B6-26" value="" style="shape=image;html=1;verticalAlign=top;verticalLabelPosition=bottom;labelBackgroundColor=none;imageAspect=0;aspect=fixed;image=https://cdn2.iconfinder.com/data/icons/25-free-ui-icons/40/user-128.png;imageBackground=none;" parent="1" vertex="1">
          <mxGeometry x="145.5" y="354.5" width="30" height="30" as="geometry"/>
        </mxCell>
        <mxCell id="-gJ6sGOuQFcfJpE5J3B6-27" value="" style="shape=image;html=1;verticalAlign=top;verticalLabelPosition=bottom;labelBackgroundColor=none;imageAspect=0;aspect=fixed;image=https://cdn2.iconfinder.com/data/icons/25-free-ui-icons/40/user-128.png;imageBackground=none;" parent="1" vertex="1">
          <mxGeometry x="185.5" y="354.5" width="30" height="30" as="geometry"/>
        </mxCell>
        <mxCell id="-gJ6sGOuQFcfJpE5J3B6-28" value="" style="shape=image;html=1;verticalAlign=top;verticalLabelPosition=bottom;labelBackgroundColor=none;imageAspect=0;aspect=fixed;image=https://cdn2.iconfinder.com/data/icons/25-free-ui-icons/40/user-128.png;imageBackground=none;" parent="1" vertex="1">
          <mxGeometry x="67.5" y="387.5" width="30" height="30" as="geometry"/>
        </mxCell>
        <mxCell id="-gJ6sGOuQFcfJpE5J3B6-29" value="" style="shape=image;html=1;verticalAlign=top;verticalLabelPosition=bottom;labelBackgroundColor=none;imageAspect=0;aspect=fixed;image=https://cdn2.iconfinder.com/data/icons/25-free-ui-icons/40/user-128.png;imageBackground=none;" parent="1" vertex="1">
          <mxGeometry x="107.5" y="387.5" width="30" height="30" as="geometry"/>
        </mxCell>
        <mxCell id="-gJ6sGOuQFcfJpE5J3B6-30" value="" style="shape=image;html=1;verticalAlign=top;verticalLabelPosition=bottom;labelBackgroundColor=none;imageAspect=0;aspect=fixed;image=https://cdn2.iconfinder.com/data/icons/25-free-ui-icons/40/user-128.png;imageBackground=none;" parent="1" vertex="1">
          <mxGeometry x="147.5" y="387.5" width="30" height="30" as="geometry"/>
        </mxCell>
        <mxCell id="-gJ6sGOuQFcfJpE5J3B6-31" value="" style="shape=image;html=1;verticalAlign=top;verticalLabelPosition=bottom;labelBackgroundColor=none;imageAspect=0;aspect=fixed;image=https://cdn2.iconfinder.com/data/icons/25-free-ui-icons/40/user-128.png;imageBackground=none;" parent="1" vertex="1">
          <mxGeometry x="187.5" y="387.5" width="30" height="30" as="geometry"/>
        </mxCell>
        <mxCell id="-gJ6sGOuQFcfJpE5J3B6-35" value="" style="shape=image;verticalLabelPosition=bottom;labelBackgroundColor=none;verticalAlign=top;aspect=fixed;imageAspect=0;image=data:image/svg+xml,PHN2ZyB4bWxuczpjYz0iaHR0cDovL2NyZWF0aXZlY29tbW9ucy5vcmcvbnMjIiB4bWxuczpkYz0iaHR0cDovL3B1cmwub3JnL2RjL2VsZW1lbnRzLzEuMS8iIHhtbG5zOmlua3NjYXBlPSJodHRwOi8vd3d3Lmlua3NjYXBlLm9yZy9uYW1lc3BhY2VzL2lua3NjYXBlIiB4bWxuczpyZGY9Imh0dHA6Ly93d3cudzMub3JnLzE5OTkvMDIvMjItcmRmLXN5bnRheC1ucyMiIHhtbG5zOnNvZGlwb2RpPSJodHRwOi8vc29kaXBvZGkuc291cmNlZm9yZ2UubmV0L0RURC9zb2RpcG9kaS0wLmR0ZCIgeG1sbnM6c3ZnPSJodHRwOi8vd3d3LnczLm9yZy8yMDAwL3N2ZyIgeG1sbnM9Imh0dHA6Ly93d3cudzMub3JnLzIwMDAvc3ZnIiB4bWxuczp4bGluaz0iaHR0cDovL3d3dy53My5vcmcvMTk5OS94bGluayIgdmVyc2lvbj0iMS4xIiBpZD0ic3ZnMTA4MDUyIiBpbmtzY2FwZTp2ZXJzaW9uPSIwLjkyLjMgKDI0MDU1NDYsIDIwMTgtMDMtMTEpIiBzb2RpcG9kaTpkb2NuYW1lPSJ0ZWFtLnN2ZyIgeD0iMHB4IiB5PSIwcHgiIHZpZXdCb3g9IjAgMCA0OS41IDQ5LjUiIHN0eWxlPSJlbmFibGUtYmFja2dyb3VuZDpuZXcgMCAwIDQ5LjUgNDkuNTsiIHhtbDpzcGFjZT0icHJlc2VydmUiPiYjeGE7PHNvZGlwb2RpOm5hbWVkdmlldyBib3JkZXJjb2xvcj0iIzY2NjY2NiIgYm9yZGVyb3BhY2l0eT0iMSIgZml0LW1hcmdpbi1ib3R0b209IjAiIGZpdC1tYXJnaW4tbGVmdD0iMCIgZml0LW1hcmdpbi1yaWdodD0iMCIgZml0LW1hcmdpbi10b3A9IjAiIGdyaWR0b2xlcmFuY2U9IjEwIiBndWlkZXRvbGVyYW5jZT0iMTAiIGlkPSJuYW1lZHZpZXcxMDgwNTQiIGlua3NjYXBlOmN1cnJlbnQtbGF5ZXI9InN2ZzEwODA1MiIgaW5rc2NhcGU6Y3g9IjMyLjk5OTk4NSIgaW5rc2NhcGU6Y3k9IjMyLjk5OTk4NSIgaW5rc2NhcGU6cGFnZW9wYWNpdHk9IjAiIGlua3NjYXBlOnBhZ2VzaGFkb3c9IjIiIGlua3NjYXBlOndpbmRvdy1oZWlnaHQ9IjEwMTciIGlua3NjYXBlOndpbmRvdy1tYXhpbWl6ZWQ9IjEiIGlua3NjYXBlOndpbmRvdy13aWR0aD0iMTkyMCIgaW5rc2NhcGU6d2luZG93LXg9Ii04IiBpbmtzY2FwZTp3aW5kb3cteT0iLTgiIGlua3NjYXBlOnpvb209IjEyLjc1MDAwNiIgb2JqZWN0dG9sZXJhbmNlPSIxMCIgcGFnZWNvbG9yPSIjZmZmZmZmIiBzaG93Z3JpZD0iZmFsc2UiPiYjeGE7CTwvc29kaXBvZGk6bmFtZWR2aWV3PiYjeGE7PGcgaWQ9ImcxMDgwNTAiIHRyYW5zZm9ybT0idHJhbnNsYXRlKC0wLjc1LC0wLjc1KSI+JiN4YTsJPHRpdGxlIGlkPSJ0aXRsZTEwNzk5MiI+UGFnZS0xPC90aXRsZT4mI3hhOwk8ZyBpZD0iZ3JvdXA1MDIyLTEiIHRyYW5zZm9ybT0idHJhbnNsYXRlKDEuNSwtMS41KSI+JiN4YTsJCTx0aXRsZSBpZD0idGl0bGUxMDc5OTQiPlRlYW08L3RpdGxlPiYjeGE7CQk8ZyBpZD0ic2hhcGU1MDIzLTIiPiYjeGE7CQkJPHRpdGxlIGlkPSJ0aXRsZTEwNzk5NiI+Y2lyY2xlNjUyNjwvdGl0bGU+JiN4YTsJCQk8Y2lyY2xlIGlkPSJlbGxpcHNlMTA3OTk4IiBzdHlsZT0iZmlsbDojRkZGRkZGO3N0cm9rZTojNTU2QThBO3N0cm9rZS13aWR0aDoxLjU7c3Ryb2tlLW1pdGVybGltaXQ6MzsiIGN4PSIyNCIgY3k9IjI3IiByPSIyNCIvPiYjeGE7CQk8L2c+JiN4YTsJCTxnIGlkPSJncm91cDUwMjQtNCIgdHJhbnNmb3JtPSJ0cmFuc2xhdGUoNS44MTI1LC04LjI1KSI+JiN4YTsJCQk8dGl0bGUgaWQ9InRpdGxlMTA4MDAxIj5nNjU0NjwvdGl0bGU+JiN4YTsJCQk8ZyBpZD0iZ3JvdXA1MDI1LTUiIHRyYW5zZm9ybT0idHJhbnNsYXRlKDAsLTEwLjUpIj4mI3hhOwkJCQk8dGl0bGUgaWQ9InRpdGxlMTA4MDAzIj5nNjUzMjwvdGl0bGU+JiN4YTsJCQkJPGcgaWQ9InNoYXBlNTAyNi02IiB0cmFuc2Zvcm09InRyYW5zbGF0ZSgzLC04LjI1KSI+JiN4YTsJCQkJCTx0aXRsZSBpZD0idGl0bGUxMDgwMDUiPmNpcmNsZTY1Mjg8L3RpdGxlPiYjeGE7CQkJCQkmI3hhOwkJCQkJCTxjaXJjbGUgaWQ9ImVsbGlwc2UxMDgwMDciIHN0eWxlPSJmaWxsOiNFNkU3RTg7c3Ryb2tlOiM1NTZBOEE7c3Ryb2tlLXdpZHRoOjEuNTtzdHJva2UtbWl0ZXJsaW1pdDozOyIgY3g9IjUuNjMiIGN5PSI0NS4zOCIgcj0iNS42MyIvPiYjeGE7CQkJCTwvZz4mI3hhOwkJCQk8ZyBpZD0ic2hhcGU1MDI3LTgiPiYjeGE7CQkJCQk8dGl0bGUgaWQ9InRpdGxlMTA4MDEwIj5wYXRoNjUzMDwvdGl0bGU+JiN4YTsJCQkJCTxwYXRoIGlkPSJwYXRoMTA4MDEyIiBpbmtzY2FwZTpjb25uZWN0b3ItY3VydmF0dXJlPSIwIiBzdHlsZT0iZmlsbDojRTZFN0U4OyIgZD0iTTAsNTFjMC4yLTQuNzYsNC4yMi04LjQ2LDguOTgtOC4yNyAgICAgICBjNC40OCwwLjE5LDguMDgsMy43OCw4LjI3LDguMjdIMHoiLz4mI3hhOwkJCQkJJiN4YTsJCQkJCQk8cGF0aCBpZD0icGF0aDEwODAxNCIgaW5rc2NhcGU6Y29ubmVjdG9yLWN1cnZhdHVyZT0iMCIgc3R5bGU9ImZpbGw6bm9uZTtzdHJva2U6IzU1NkE4QTtzdHJva2Utd2lkdGg6MS41O3N0cm9rZS1taXRlcmxpbWl0OjM7IiBkPSIgICAgICAgTTAsNTFjMC4yLTQuNzYsNC4yMi04LjQ2LDguOTgtOC4yN2M0LjQ4LDAuMTksOC4wOCwzLjc4LDguMjcsOC4yNyIvPiYjeGE7CQkJCTwvZz4mI3hhOwkJCTwvZz4mI3hhOwkJCTxnIGlkPSJncm91cDUwMjgtMTEiIHRyYW5zZm9ybT0idHJhbnNsYXRlKDE5LjEyNSwtMTAuNSkiPiYjeGE7CQkJCTx0aXRsZSBpZD0idGl0bGUxMDgwMTgiPmc2NTM4PC90aXRsZT4mI3hhOwkJCQk8ZyBpZD0ic2hhcGU1MDI5LTEyIiB0cmFuc2Zvcm09InRyYW5zbGF0ZSgzLC04LjI1KSI+JiN4YTsJCQkJCTx0aXRsZSBpZD0idGl0bGUxMDgwMjAiPmNpcmNsZTY1MzQ8L3RpdGxlPiYjeGE7CQkJCQkmI3hhOwkJCQkJCTxjaXJjbGUgaWQ9ImVsbGlwc2UxMDgwMjIiIHN0eWxlPSJmaWxsOiNFNkU3RTg7c3Ryb2tlOiM1NTZBOEE7c3Ryb2tlLXdpZHRoOjEuNTtzdHJva2UtbWl0ZXJsaW1pdDozOyIgY3g9IjUuNjMiIGN5PSI0NS4zOCIgcj0iNS42MyIvPiYjeGE7CQkJCTwvZz4mI3hhOwkJCQk8ZyBpZD0ic2hhcGU1MDMwLTE0Ij4mI3hhOwkJCQkJPHRpdGxlIGlkPSJ0aXRsZTEwODAyNSI+cGF0aDY1MzY8L3RpdGxlPiYjeGE7CQkJCQk8cGF0aCBpZD0icGF0aDEwODAyNyIgaW5rc2NhcGU6Y29ubmVjdG9yLWN1cnZhdHVyZT0iMCIgc3R5bGU9ImZpbGw6I0U2RTdFODsiIGQ9Ik0wLDUxYzAuMi00Ljc2LDQuMjItOC40Niw4Ljk4LTguMjcgICAgICAgYzQuNDgsMC4xOSw4LjA4LDMuNzgsOC4yNyw4LjI3SDB6Ii8+JiN4YTsJCQkJCSYjeGE7CQkJCQkJPHBhdGggaWQ9InBhdGgxMDgwMjkiIGlua3NjYXBlOmNvbm5lY3Rvci1jdXJ2YXR1cmU9IjAiIHN0eWxlPSJmaWxsOm5vbmU7c3Ryb2tlOiM1NTZBOEE7c3Ryb2tlLXdpZHRoOjEuNTtzdHJva2UtbWl0ZXJsaW1pdDozOyIgZD0iICAgICAgIE0wLDUxYzAuMi00Ljc2LDQuMjItOC40Niw4Ljk4LTguMjdjNC40OCwwLjE5LDguMDgsMy43OCw4LjI3LDguMjciLz4mI3hhOwkJCQk8L2c+JiN4YTsJCQk8L2c+JiN4YTsJCQk8ZyBpZD0iZ3JvdXA1MDMxLTE3IiB0cmFuc2Zvcm09InRyYW5zbGF0ZSg5KSI+JiN4YTsJCQkJPHRpdGxlIGlkPSJ0aXRsZTEwODAzMyI+ZzY1NDQ8L3RpdGxlPiYjeGE7CQkJCTxnIGlkPSJzaGFwZTUwMzItMTgiIHRyYW5zZm9ybT0idHJhbnNsYXRlKDMsLTguMjUpIj4mI3hhOwkJCQkJPHRpdGxlIGlkPSJ0aXRsZTEwODAzNSI+Y2lyY2xlNjU0MDwvdGl0bGU+JiN4YTsJCQkJCSYjeGE7CQkJCQkJPGNpcmNsZSBpZD0iZWxsaXBzZTEwODAzNyIgc3R5bGU9ImZpbGw6I0FBRTlGQjtzdHJva2U6IzU1NkE4QTtzdHJva2Utd2lkdGg6MS41O3N0cm9rZS1taXRlcmxpbWl0OjM7IiBjeD0iNS42MyIgY3k9IjQ1LjM4IiByPSI1LjYzIi8+JiN4YTsJCQkJPC9nPiYjeGE7CQkJCTxnIGlkPSJzaGFwZTUwMzMtMjAiPiYjeGE7CQkJCQk8dGl0bGUgaWQ9InRpdGxlMTA4MDQwIj5wYXRoNjU0MjwvdGl0bGU+JiN4YTsJCQkJCTxwYXRoIGlkPSJwYXRoMTA4MDQyIiBpbmtzY2FwZTpjb25uZWN0b3ItY3VydmF0dXJlPSIwIiBzdHlsZT0iZmlsbDojQUFFOUZCOyIgZD0iTTAsNTFjMC4yLTQuNzYsNC4yMi04LjQ2LDguOTgtOC4yNyAgICAgICBjNC40OCwwLjE5LDguMDgsMy43OCw4LjI3LDguMjdIMHoiLz4mI3hhOwkJCQkJJiN4YTsJCQkJCQk8cGF0aCBpZD0icGF0aDEwODA0NCIgaW5rc2NhcGU6Y29ubmVjdG9yLWN1cnZhdHVyZT0iMCIgc3R5bGU9ImZpbGw6bm9uZTtzdHJva2U6IzU1NkE4QTtzdHJva2Utd2lkdGg6MS41O3N0cm9rZS1taXRlcmxpbWl0OjM7IiBkPSIgICAgICAgTTAsNTFjMC4yLTQuNzYsNC4yMi04LjQ2LDguOTgtOC4yN2M0LjQ4LDAuMTksOC4wOCwzLjc4LDguMjcsOC4yNyIvPiYjeGE7CQkJCTwvZz4mI3hhOwkJCTwvZz4mI3hhOwkJPC9nPiYjeGE7CTwvZz4mI3hhOzwvZz4mI3hhOzwvc3ZnPg==;" parent="1" vertex="1">
          <mxGeometry x="65.5" y="247.5" width="30" height="30" as="geometry"/>
        </mxCell>
        <mxCell id="-gJ6sGOuQFcfJpE5J3B6-36" value="" style="shape=image;verticalLabelPosition=bottom;labelBackgroundColor=none;verticalAlign=top;aspect=fixed;imageAspect=0;image=data:image/svg+xml,PHN2ZyB4bWxuczpjYz0iaHR0cDovL2NyZWF0aXZlY29tbW9ucy5vcmcvbnMjIiB4bWxuczpkYz0iaHR0cDovL3B1cmwub3JnL2RjL2VsZW1lbnRzLzEuMS8iIHhtbG5zOmlua3NjYXBlPSJodHRwOi8vd3d3Lmlua3NjYXBlLm9yZy9uYW1lc3BhY2VzL2lua3NjYXBlIiB4bWxuczpyZGY9Imh0dHA6Ly93d3cudzMub3JnLzE5OTkvMDIvMjItcmRmLXN5bnRheC1ucyMiIHhtbG5zOnNvZGlwb2RpPSJodHRwOi8vc29kaXBvZGkuc291cmNlZm9yZ2UubmV0L0RURC9zb2RpcG9kaS0wLmR0ZCIgeG1sbnM6c3ZnPSJodHRwOi8vd3d3LnczLm9yZy8yMDAwL3N2ZyIgeG1sbnM9Imh0dHA6Ly93d3cudzMub3JnLzIwMDAvc3ZnIiB4bWxuczp4bGluaz0iaHR0cDovL3d3dy53My5vcmcvMTk5OS94bGluayIgdmVyc2lvbj0iMS4xIiBpZD0ic3ZnMTA4MDUyIiBpbmtzY2FwZTp2ZXJzaW9uPSIwLjkyLjMgKDI0MDU1NDYsIDIwMTgtMDMtMTEpIiBzb2RpcG9kaTpkb2NuYW1lPSJ0ZWFtLnN2ZyIgeD0iMHB4IiB5PSIwcHgiIHZpZXdCb3g9IjAgMCA0OS41IDQ5LjUiIHN0eWxlPSJlbmFibGUtYmFja2dyb3VuZDpuZXcgMCAwIDQ5LjUgNDkuNTsiIHhtbDpzcGFjZT0icHJlc2VydmUiPiYjeGE7PHNvZGlwb2RpOm5hbWVkdmlldyBib3JkZXJjb2xvcj0iIzY2NjY2NiIgYm9yZGVyb3BhY2l0eT0iMSIgZml0LW1hcmdpbi1ib3R0b209IjAiIGZpdC1tYXJnaW4tbGVmdD0iMCIgZml0LW1hcmdpbi1yaWdodD0iMCIgZml0LW1hcmdpbi10b3A9IjAiIGdyaWR0b2xlcmFuY2U9IjEwIiBndWlkZXRvbGVyYW5jZT0iMTAiIGlkPSJuYW1lZHZpZXcxMDgwNTQiIGlua3NjYXBlOmN1cnJlbnQtbGF5ZXI9InN2ZzEwODA1MiIgaW5rc2NhcGU6Y3g9IjMyLjk5OTk4NSIgaW5rc2NhcGU6Y3k9IjMyLjk5OTk4NSIgaW5rc2NhcGU6cGFnZW9wYWNpdHk9IjAiIGlua3NjYXBlOnBhZ2VzaGFkb3c9IjIiIGlua3NjYXBlOndpbmRvdy1oZWlnaHQ9IjEwMTciIGlua3NjYXBlOndpbmRvdy1tYXhpbWl6ZWQ9IjEiIGlua3NjYXBlOndpbmRvdy13aWR0aD0iMTkyMCIgaW5rc2NhcGU6d2luZG93LXg9Ii04IiBpbmtzY2FwZTp3aW5kb3cteT0iLTgiIGlua3NjYXBlOnpvb209IjEyLjc1MDAwNiIgb2JqZWN0dG9sZXJhbmNlPSIxMCIgcGFnZWNvbG9yPSIjZmZmZmZmIiBzaG93Z3JpZD0iZmFsc2UiPiYjeGE7CTwvc29kaXBvZGk6bmFtZWR2aWV3PiYjeGE7PGcgaWQ9ImcxMDgwNTAiIHRyYW5zZm9ybT0idHJhbnNsYXRlKC0wLjc1LC0wLjc1KSI+JiN4YTsJPHRpdGxlIGlkPSJ0aXRsZTEwNzk5MiI+UGFnZS0xPC90aXRsZT4mI3hhOwk8ZyBpZD0iZ3JvdXA1MDIyLTEiIHRyYW5zZm9ybT0idHJhbnNsYXRlKDEuNSwtMS41KSI+JiN4YTsJCTx0aXRsZSBpZD0idGl0bGUxMDc5OTQiPlRlYW08L3RpdGxlPiYjeGE7CQk8ZyBpZD0ic2hhcGU1MDIzLTIiPiYjeGE7CQkJPHRpdGxlIGlkPSJ0aXRsZTEwNzk5NiI+Y2lyY2xlNjUyNjwvdGl0bGU+JiN4YTsJCQk8Y2lyY2xlIGlkPSJlbGxpcHNlMTA3OTk4IiBzdHlsZT0iZmlsbDojRkZGRkZGO3N0cm9rZTojNTU2QThBO3N0cm9rZS13aWR0aDoxLjU7c3Ryb2tlLW1pdGVybGltaXQ6MzsiIGN4PSIyNCIgY3k9IjI3IiByPSIyNCIvPiYjeGE7CQk8L2c+JiN4YTsJCTxnIGlkPSJncm91cDUwMjQtNCIgdHJhbnNmb3JtPSJ0cmFuc2xhdGUoNS44MTI1LC04LjI1KSI+JiN4YTsJCQk8dGl0bGUgaWQ9InRpdGxlMTA4MDAxIj5nNjU0NjwvdGl0bGU+JiN4YTsJCQk8ZyBpZD0iZ3JvdXA1MDI1LTUiIHRyYW5zZm9ybT0idHJhbnNsYXRlKDAsLTEwLjUpIj4mI3hhOwkJCQk8dGl0bGUgaWQ9InRpdGxlMTA4MDAzIj5nNjUzMjwvdGl0bGU+JiN4YTsJCQkJPGcgaWQ9InNoYXBlNTAyNi02IiB0cmFuc2Zvcm09InRyYW5zbGF0ZSgzLC04LjI1KSI+JiN4YTsJCQkJCTx0aXRsZSBpZD0idGl0bGUxMDgwMDUiPmNpcmNsZTY1Mjg8L3RpdGxlPiYjeGE7CQkJCQkmI3hhOwkJCQkJCTxjaXJjbGUgaWQ9ImVsbGlwc2UxMDgwMDciIHN0eWxlPSJmaWxsOiNFNkU3RTg7c3Ryb2tlOiM1NTZBOEE7c3Ryb2tlLXdpZHRoOjEuNTtzdHJva2UtbWl0ZXJsaW1pdDozOyIgY3g9IjUuNjMiIGN5PSI0NS4zOCIgcj0iNS42MyIvPiYjeGE7CQkJCTwvZz4mI3hhOwkJCQk8ZyBpZD0ic2hhcGU1MDI3LTgiPiYjeGE7CQkJCQk8dGl0bGUgaWQ9InRpdGxlMTA4MDEwIj5wYXRoNjUzMDwvdGl0bGU+JiN4YTsJCQkJCTxwYXRoIGlkPSJwYXRoMTA4MDEyIiBpbmtzY2FwZTpjb25uZWN0b3ItY3VydmF0dXJlPSIwIiBzdHlsZT0iZmlsbDojRTZFN0U4OyIgZD0iTTAsNTFjMC4yLTQuNzYsNC4yMi04LjQ2LDguOTgtOC4yNyAgICAgICBjNC40OCwwLjE5LDguMDgsMy43OCw4LjI3LDguMjdIMHoiLz4mI3hhOwkJCQkJJiN4YTsJCQkJCQk8cGF0aCBpZD0icGF0aDEwODAxNCIgaW5rc2NhcGU6Y29ubmVjdG9yLWN1cnZhdHVyZT0iMCIgc3R5bGU9ImZpbGw6bm9uZTtzdHJva2U6IzU1NkE4QTtzdHJva2Utd2lkdGg6MS41O3N0cm9rZS1taXRlcmxpbWl0OjM7IiBkPSIgICAgICAgTTAsNTFjMC4yLTQuNzYsNC4yMi04LjQ2LDguOTgtOC4yN2M0LjQ4LDAuMTksOC4wOCwzLjc4LDguMjcsOC4yNyIvPiYjeGE7CQkJCTwvZz4mI3hhOwkJCTwvZz4mI3hhOwkJCTxnIGlkPSJncm91cDUwMjgtMTEiIHRyYW5zZm9ybT0idHJhbnNsYXRlKDE5LjEyNSwtMTAuNSkiPiYjeGE7CQkJCTx0aXRsZSBpZD0idGl0bGUxMDgwMTgiPmc2NTM4PC90aXRsZT4mI3hhOwkJCQk8ZyBpZD0ic2hhcGU1MDI5LTEyIiB0cmFuc2Zvcm09InRyYW5zbGF0ZSgzLC04LjI1KSI+JiN4YTsJCQkJCTx0aXRsZSBpZD0idGl0bGUxMDgwMjAiPmNpcmNsZTY1MzQ8L3RpdGxlPiYjeGE7CQkJCQkmI3hhOwkJCQkJCTxjaXJjbGUgaWQ9ImVsbGlwc2UxMDgwMjIiIHN0eWxlPSJmaWxsOiNFNkU3RTg7c3Ryb2tlOiM1NTZBOEE7c3Ryb2tlLXdpZHRoOjEuNTtzdHJva2UtbWl0ZXJsaW1pdDozOyIgY3g9IjUuNjMiIGN5PSI0NS4zOCIgcj0iNS42MyIvPiYjeGE7CQkJCTwvZz4mI3hhOwkJCQk8ZyBpZD0ic2hhcGU1MDMwLTE0Ij4mI3hhOwkJCQkJPHRpdGxlIGlkPSJ0aXRsZTEwODAyNSI+cGF0aDY1MzY8L3RpdGxlPiYjeGE7CQkJCQk8cGF0aCBpZD0icGF0aDEwODAyNyIgaW5rc2NhcGU6Y29ubmVjdG9yLWN1cnZhdHVyZT0iMCIgc3R5bGU9ImZpbGw6I0U2RTdFODsiIGQ9Ik0wLDUxYzAuMi00Ljc2LDQuMjItOC40Niw4Ljk4LTguMjcgICAgICAgYzQuNDgsMC4xOSw4LjA4LDMuNzgsOC4yNyw4LjI3SDB6Ii8+JiN4YTsJCQkJCSYjeGE7CQkJCQkJPHBhdGggaWQ9InBhdGgxMDgwMjkiIGlua3NjYXBlOmNvbm5lY3Rvci1jdXJ2YXR1cmU9IjAiIHN0eWxlPSJmaWxsOm5vbmU7c3Ryb2tlOiM1NTZBOEE7c3Ryb2tlLXdpZHRoOjEuNTtzdHJva2UtbWl0ZXJsaW1pdDozOyIgZD0iICAgICAgIE0wLDUxYzAuMi00Ljc2LDQuMjItOC40Niw4Ljk4LTguMjdjNC40OCwwLjE5LDguMDgsMy43OCw4LjI3LDguMjciLz4mI3hhOwkJCQk8L2c+JiN4YTsJCQk8L2c+JiN4YTsJCQk8ZyBpZD0iZ3JvdXA1MDMxLTE3IiB0cmFuc2Zvcm09InRyYW5zbGF0ZSg5KSI+JiN4YTsJCQkJPHRpdGxlIGlkPSJ0aXRsZTEwODAzMyI+ZzY1NDQ8L3RpdGxlPiYjeGE7CQkJCTxnIGlkPSJzaGFwZTUwMzItMTgiIHRyYW5zZm9ybT0idHJhbnNsYXRlKDMsLTguMjUpIj4mI3hhOwkJCQkJPHRpdGxlIGlkPSJ0aXRsZTEwODAzNSI+Y2lyY2xlNjU0MDwvdGl0bGU+JiN4YTsJCQkJCSYjeGE7CQkJCQkJPGNpcmNsZSBpZD0iZWxsaXBzZTEwODAzNyIgc3R5bGU9ImZpbGw6I0FBRTlGQjtzdHJva2U6IzU1NkE4QTtzdHJva2Utd2lkdGg6MS41O3N0cm9rZS1taXRlcmxpbWl0OjM7IiBjeD0iNS42MyIgY3k9IjQ1LjM4IiByPSI1LjYzIi8+JiN4YTsJCQkJPC9nPiYjeGE7CQkJCTxnIGlkPSJzaGFwZTUwMzMtMjAiPiYjeGE7CQkJCQk8dGl0bGUgaWQ9InRpdGxlMTA4MDQwIj5wYXRoNjU0MjwvdGl0bGU+JiN4YTsJCQkJCTxwYXRoIGlkPSJwYXRoMTA4MDQyIiBpbmtzY2FwZTpjb25uZWN0b3ItY3VydmF0dXJlPSIwIiBzdHlsZT0iZmlsbDojQUFFOUZCOyIgZD0iTTAsNTFjMC4yLTQuNzYsNC4yMi04LjQ2LDguOTgtOC4yNyAgICAgICBjNC40OCwwLjE5LDguMDgsMy43OCw4LjI3LDguMjdIMHoiLz4mI3hhOwkJCQkJJiN4YTsJCQkJCQk8cGF0aCBpZD0icGF0aDEwODA0NCIgaW5rc2NhcGU6Y29ubmVjdG9yLWN1cnZhdHVyZT0iMCIgc3R5bGU9ImZpbGw6bm9uZTtzdHJva2U6IzU1NkE4QTtzdHJva2Utd2lkdGg6MS41O3N0cm9rZS1taXRlcmxpbWl0OjM7IiBkPSIgICAgICAgTTAsNTFjMC4yLTQuNzYsNC4yMi04LjQ2LDguOTgtOC4yN2M0LjQ4LDAuMTksOC4wOCwzLjc4LDguMjcsOC4yNyIvPiYjeGE7CQkJCTwvZz4mI3hhOwkJCTwvZz4mI3hhOwkJPC9nPiYjeGE7CTwvZz4mI3hhOzwvZz4mI3hhOzwvc3ZnPg==;" parent="1" vertex="1">
          <mxGeometry x="105.5" y="247.5" width="30" height="30" as="geometry"/>
        </mxCell>
        <mxCell id="-gJ6sGOuQFcfJpE5J3B6-37" value="" style="shape=image;verticalLabelPosition=bottom;labelBackgroundColor=none;verticalAlign=top;aspect=fixed;imageAspect=0;image=data:image/svg+xml,PHN2ZyB4bWxuczpjYz0iaHR0cDovL2NyZWF0aXZlY29tbW9ucy5vcmcvbnMjIiB4bWxuczpkYz0iaHR0cDovL3B1cmwub3JnL2RjL2VsZW1lbnRzLzEuMS8iIHhtbG5zOmlua3NjYXBlPSJodHRwOi8vd3d3Lmlua3NjYXBlLm9yZy9uYW1lc3BhY2VzL2lua3NjYXBlIiB4bWxuczpyZGY9Imh0dHA6Ly93d3cudzMub3JnLzE5OTkvMDIvMjItcmRmLXN5bnRheC1ucyMiIHhtbG5zOnNvZGlwb2RpPSJodHRwOi8vc29kaXBvZGkuc291cmNlZm9yZ2UubmV0L0RURC9zb2RpcG9kaS0wLmR0ZCIgeG1sbnM6c3ZnPSJodHRwOi8vd3d3LnczLm9yZy8yMDAwL3N2ZyIgeG1sbnM9Imh0dHA6Ly93d3cudzMub3JnLzIwMDAvc3ZnIiB4bWxuczp4bGluaz0iaHR0cDovL3d3dy53My5vcmcvMTk5OS94bGluayIgdmVyc2lvbj0iMS4xIiBpZD0ic3ZnMTA4MDUyIiBpbmtzY2FwZTp2ZXJzaW9uPSIwLjkyLjMgKDI0MDU1NDYsIDIwMTgtMDMtMTEpIiBzb2RpcG9kaTpkb2NuYW1lPSJ0ZWFtLnN2ZyIgeD0iMHB4IiB5PSIwcHgiIHZpZXdCb3g9IjAgMCA0OS41IDQ5LjUiIHN0eWxlPSJlbmFibGUtYmFja2dyb3VuZDpuZXcgMCAwIDQ5LjUgNDkuNTsiIHhtbDpzcGFjZT0icHJlc2VydmUiPiYjeGE7PHNvZGlwb2RpOm5hbWVkdmlldyBib3JkZXJjb2xvcj0iIzY2NjY2NiIgYm9yZGVyb3BhY2l0eT0iMSIgZml0LW1hcmdpbi1ib3R0b209IjAiIGZpdC1tYXJnaW4tbGVmdD0iMCIgZml0LW1hcmdpbi1yaWdodD0iMCIgZml0LW1hcmdpbi10b3A9IjAiIGdyaWR0b2xlcmFuY2U9IjEwIiBndWlkZXRvbGVyYW5jZT0iMTAiIGlkPSJuYW1lZHZpZXcxMDgwNTQiIGlua3NjYXBlOmN1cnJlbnQtbGF5ZXI9InN2ZzEwODA1MiIgaW5rc2NhcGU6Y3g9IjMyLjk5OTk4NSIgaW5rc2NhcGU6Y3k9IjMyLjk5OTk4NSIgaW5rc2NhcGU6cGFnZW9wYWNpdHk9IjAiIGlua3NjYXBlOnBhZ2VzaGFkb3c9IjIiIGlua3NjYXBlOndpbmRvdy1oZWlnaHQ9IjEwMTciIGlua3NjYXBlOndpbmRvdy1tYXhpbWl6ZWQ9IjEiIGlua3NjYXBlOndpbmRvdy13aWR0aD0iMTkyMCIgaW5rc2NhcGU6d2luZG93LXg9Ii04IiBpbmtzY2FwZTp3aW5kb3cteT0iLTgiIGlua3NjYXBlOnpvb209IjEyLjc1MDAwNiIgb2JqZWN0dG9sZXJhbmNlPSIxMCIgcGFnZWNvbG9yPSIjZmZmZmZmIiBzaG93Z3JpZD0iZmFsc2UiPiYjeGE7CTwvc29kaXBvZGk6bmFtZWR2aWV3PiYjeGE7PGcgaWQ9ImcxMDgwNTAiIHRyYW5zZm9ybT0idHJhbnNsYXRlKC0wLjc1LC0wLjc1KSI+JiN4YTsJPHRpdGxlIGlkPSJ0aXRsZTEwNzk5MiI+UGFnZS0xPC90aXRsZT4mI3hhOwk8ZyBpZD0iZ3JvdXA1MDIyLTEiIHRyYW5zZm9ybT0idHJhbnNsYXRlKDEuNSwtMS41KSI+JiN4YTsJCTx0aXRsZSBpZD0idGl0bGUxMDc5OTQiPlRlYW08L3RpdGxlPiYjeGE7CQk8ZyBpZD0ic2hhcGU1MDIzLTIiPiYjeGE7CQkJPHRpdGxlIGlkPSJ0aXRsZTEwNzk5NiI+Y2lyY2xlNjUyNjwvdGl0bGU+JiN4YTsJCQk8Y2lyY2xlIGlkPSJlbGxpcHNlMTA3OTk4IiBzdHlsZT0iZmlsbDojRkZGRkZGO3N0cm9rZTojNTU2QThBO3N0cm9rZS13aWR0aDoxLjU7c3Ryb2tlLW1pdGVybGltaXQ6MzsiIGN4PSIyNCIgY3k9IjI3IiByPSIyNCIvPiYjeGE7CQk8L2c+JiN4YTsJCTxnIGlkPSJncm91cDUwMjQtNCIgdHJhbnNmb3JtPSJ0cmFuc2xhdGUoNS44MTI1LC04LjI1KSI+JiN4YTsJCQk8dGl0bGUgaWQ9InRpdGxlMTA4MDAxIj5nNjU0NjwvdGl0bGU+JiN4YTsJCQk8ZyBpZD0iZ3JvdXA1MDI1LTUiIHRyYW5zZm9ybT0idHJhbnNsYXRlKDAsLTEwLjUpIj4mI3hhOwkJCQk8dGl0bGUgaWQ9InRpdGxlMTA4MDAzIj5nNjUzMjwvdGl0bGU+JiN4YTsJCQkJPGcgaWQ9InNoYXBlNTAyNi02IiB0cmFuc2Zvcm09InRyYW5zbGF0ZSgzLC04LjI1KSI+JiN4YTsJCQkJCTx0aXRsZSBpZD0idGl0bGUxMDgwMDUiPmNpcmNsZTY1Mjg8L3RpdGxlPiYjeGE7CQkJCQkmI3hhOwkJCQkJCTxjaXJjbGUgaWQ9ImVsbGlwc2UxMDgwMDciIHN0eWxlPSJmaWxsOiNFNkU3RTg7c3Ryb2tlOiM1NTZBOEE7c3Ryb2tlLXdpZHRoOjEuNTtzdHJva2UtbWl0ZXJsaW1pdDozOyIgY3g9IjUuNjMiIGN5PSI0NS4zOCIgcj0iNS42MyIvPiYjeGE7CQkJCTwvZz4mI3hhOwkJCQk8ZyBpZD0ic2hhcGU1MDI3LTgiPiYjeGE7CQkJCQk8dGl0bGUgaWQ9InRpdGxlMTA4MDEwIj5wYXRoNjUzMDwvdGl0bGU+JiN4YTsJCQkJCTxwYXRoIGlkPSJwYXRoMTA4MDEyIiBpbmtzY2FwZTpjb25uZWN0b3ItY3VydmF0dXJlPSIwIiBzdHlsZT0iZmlsbDojRTZFN0U4OyIgZD0iTTAsNTFjMC4yLTQuNzYsNC4yMi04LjQ2LDguOTgtOC4yNyAgICAgICBjNC40OCwwLjE5LDguMDgsMy43OCw4LjI3LDguMjdIMHoiLz4mI3hhOwkJCQkJJiN4YTsJCQkJCQk8cGF0aCBpZD0icGF0aDEwODAxNCIgaW5rc2NhcGU6Y29ubmVjdG9yLWN1cnZhdHVyZT0iMCIgc3R5bGU9ImZpbGw6bm9uZTtzdHJva2U6IzU1NkE4QTtzdHJva2Utd2lkdGg6MS41O3N0cm9rZS1taXRlcmxpbWl0OjM7IiBkPSIgICAgICAgTTAsNTFjMC4yLTQuNzYsNC4yMi04LjQ2LDguOTgtOC4yN2M0LjQ4LDAuMTksOC4wOCwzLjc4LDguMjcsOC4yNyIvPiYjeGE7CQkJCTwvZz4mI3hhOwkJCTwvZz4mI3hhOwkJCTxnIGlkPSJncm91cDUwMjgtMTEiIHRyYW5zZm9ybT0idHJhbnNsYXRlKDE5LjEyNSwtMTAuNSkiPiYjeGE7CQkJCTx0aXRsZSBpZD0idGl0bGUxMDgwMTgiPmc2NTM4PC90aXRsZT4mI3hhOwkJCQk8ZyBpZD0ic2hhcGU1MDI5LTEyIiB0cmFuc2Zvcm09InRyYW5zbGF0ZSgzLC04LjI1KSI+JiN4YTsJCQkJCTx0aXRsZSBpZD0idGl0bGUxMDgwMjAiPmNpcmNsZTY1MzQ8L3RpdGxlPiYjeGE7CQkJCQkmI3hhOwkJCQkJCTxjaXJjbGUgaWQ9ImVsbGlwc2UxMDgwMjIiIHN0eWxlPSJmaWxsOiNFNkU3RTg7c3Ryb2tlOiM1NTZBOEE7c3Ryb2tlLXdpZHRoOjEuNTtzdHJva2UtbWl0ZXJsaW1pdDozOyIgY3g9IjUuNjMiIGN5PSI0NS4zOCIgcj0iNS42MyIvPiYjeGE7CQkJCTwvZz4mI3hhOwkJCQk8ZyBpZD0ic2hhcGU1MDMwLTE0Ij4mI3hhOwkJCQkJPHRpdGxlIGlkPSJ0aXRsZTEwODAyNSI+cGF0aDY1MzY8L3RpdGxlPiYjeGE7CQkJCQk8cGF0aCBpZD0icGF0aDEwODAyNyIgaW5rc2NhcGU6Y29ubmVjdG9yLWN1cnZhdHVyZT0iMCIgc3R5bGU9ImZpbGw6I0U2RTdFODsiIGQ9Ik0wLDUxYzAuMi00Ljc2LDQuMjItOC40Niw4Ljk4LTguMjcgICAgICAgYzQuNDgsMC4xOSw4LjA4LDMuNzgsOC4yNyw4LjI3SDB6Ii8+JiN4YTsJCQkJCSYjeGE7CQkJCQkJPHBhdGggaWQ9InBhdGgxMDgwMjkiIGlua3NjYXBlOmNvbm5lY3Rvci1jdXJ2YXR1cmU9IjAiIHN0eWxlPSJmaWxsOm5vbmU7c3Ryb2tlOiM1NTZBOEE7c3Ryb2tlLXdpZHRoOjEuNTtzdHJva2UtbWl0ZXJsaW1pdDozOyIgZD0iICAgICAgIE0wLDUxYzAuMi00Ljc2LDQuMjItOC40Niw4Ljk4LTguMjdjNC40OCwwLjE5LDguMDgsMy43OCw4LjI3LDguMjciLz4mI3hhOwkJCQk8L2c+JiN4YTsJCQk8L2c+JiN4YTsJCQk8ZyBpZD0iZ3JvdXA1MDMxLTE3IiB0cmFuc2Zvcm09InRyYW5zbGF0ZSg5KSI+JiN4YTsJCQkJPHRpdGxlIGlkPSJ0aXRsZTEwODAzMyI+ZzY1NDQ8L3RpdGxlPiYjeGE7CQkJCTxnIGlkPSJzaGFwZTUwMzItMTgiIHRyYW5zZm9ybT0idHJhbnNsYXRlKDMsLTguMjUpIj4mI3hhOwkJCQkJPHRpdGxlIGlkPSJ0aXRsZTEwODAzNSI+Y2lyY2xlNjU0MDwvdGl0bGU+JiN4YTsJCQkJCSYjeGE7CQkJCQkJPGNpcmNsZSBpZD0iZWxsaXBzZTEwODAzNyIgc3R5bGU9ImZpbGw6I0FBRTlGQjtzdHJva2U6IzU1NkE4QTtzdHJva2Utd2lkdGg6MS41O3N0cm9rZS1taXRlcmxpbWl0OjM7IiBjeD0iNS42MyIgY3k9IjQ1LjM4IiByPSI1LjYzIi8+JiN4YTsJCQkJPC9nPiYjeGE7CQkJCTxnIGlkPSJzaGFwZTUwMzMtMjAiPiYjeGE7CQkJCQk8dGl0bGUgaWQ9InRpdGxlMTA4MDQwIj5wYXRoNjU0MjwvdGl0bGU+JiN4YTsJCQkJCTxwYXRoIGlkPSJwYXRoMTA4MDQyIiBpbmtzY2FwZTpjb25uZWN0b3ItY3VydmF0dXJlPSIwIiBzdHlsZT0iZmlsbDojQUFFOUZCOyIgZD0iTTAsNTFjMC4yLTQuNzYsNC4yMi04LjQ2LDguOTgtOC4yNyAgICAgICBjNC40OCwwLjE5LDguMDgsMy43OCw4LjI3LDguMjdIMHoiLz4mI3hhOwkJCQkJJiN4YTsJCQkJCQk8cGF0aCBpZD0icGF0aDEwODA0NCIgaW5rc2NhcGU6Y29ubmVjdG9yLWN1cnZhdHVyZT0iMCIgc3R5bGU9ImZpbGw6bm9uZTtzdHJva2U6IzU1NkE4QTtzdHJva2Utd2lkdGg6MS41O3N0cm9rZS1taXRlcmxpbWl0OjM7IiBkPSIgICAgICAgTTAsNTFjMC4yLTQuNzYsNC4yMi04LjQ2LDguOTgtOC4yN2M0LjQ4LDAuMTksOC4wOCwzLjc4LDguMjcsOC4yNyIvPiYjeGE7CQkJCTwvZz4mI3hhOwkJCTwvZz4mI3hhOwkJPC9nPiYjeGE7CTwvZz4mI3hhOzwvZz4mI3hhOzwvc3ZnPg==;" parent="1" vertex="1">
          <mxGeometry x="145.5" y="247.5" width="30" height="30" as="geometry"/>
        </mxCell>
        <mxCell id="-gJ6sGOuQFcfJpE5J3B6-253" style="edgeStyle=orthogonalEdgeStyle;rounded=0;orthogonalLoop=1;jettySize=auto;html=1;entryX=0;entryY=0.5;entryDx=0;entryDy=0;fontSize=9;fontColor=#33FFFF;exitX=1.005;exitY=0.557;exitDx=0;exitDy=0;exitPerimeter=0;labelBackgroundColor=none;" parent="1" source="-gJ6sGOuQFcfJpE5J3B6-41" target="-gJ6sGOuQFcfJpE5J3B6-258" edge="1">
          <mxGeometry relative="1" as="geometry"/>
        </mxCell>
        <mxCell id="-gJ6sGOuQFcfJpE5J3B6-38" value="" style="shape=image;verticalLabelPosition=bottom;labelBackgroundColor=none;verticalAlign=top;aspect=fixed;imageAspect=0;image=data:image/svg+xml,PHN2ZyB4bWxuczpjYz0iaHR0cDovL2NyZWF0aXZlY29tbW9ucy5vcmcvbnMjIiB4bWxuczpkYz0iaHR0cDovL3B1cmwub3JnL2RjL2VsZW1lbnRzLzEuMS8iIHhtbG5zOmlua3NjYXBlPSJodHRwOi8vd3d3Lmlua3NjYXBlLm9yZy9uYW1lc3BhY2VzL2lua3NjYXBlIiB4bWxuczpyZGY9Imh0dHA6Ly93d3cudzMub3JnLzE5OTkvMDIvMjItcmRmLXN5bnRheC1ucyMiIHhtbG5zOnNvZGlwb2RpPSJodHRwOi8vc29kaXBvZGkuc291cmNlZm9yZ2UubmV0L0RURC9zb2RpcG9kaS0wLmR0ZCIgeG1sbnM6c3ZnPSJodHRwOi8vd3d3LnczLm9yZy8yMDAwL3N2ZyIgeG1sbnM9Imh0dHA6Ly93d3cudzMub3JnLzIwMDAvc3ZnIiB4bWxuczp4bGluaz0iaHR0cDovL3d3dy53My5vcmcvMTk5OS94bGluayIgdmVyc2lvbj0iMS4xIiBpZD0ic3ZnMTA4MDUyIiBpbmtzY2FwZTp2ZXJzaW9uPSIwLjkyLjMgKDI0MDU1NDYsIDIwMTgtMDMtMTEpIiBzb2RpcG9kaTpkb2NuYW1lPSJ0ZWFtLnN2ZyIgeD0iMHB4IiB5PSIwcHgiIHZpZXdCb3g9IjAgMCA0OS41IDQ5LjUiIHN0eWxlPSJlbmFibGUtYmFja2dyb3VuZDpuZXcgMCAwIDQ5LjUgNDkuNTsiIHhtbDpzcGFjZT0icHJlc2VydmUiPiYjeGE7PHNvZGlwb2RpOm5hbWVkdmlldyBib3JkZXJjb2xvcj0iIzY2NjY2NiIgYm9yZGVyb3BhY2l0eT0iMSIgZml0LW1hcmdpbi1ib3R0b209IjAiIGZpdC1tYXJnaW4tbGVmdD0iMCIgZml0LW1hcmdpbi1yaWdodD0iMCIgZml0LW1hcmdpbi10b3A9IjAiIGdyaWR0b2xlcmFuY2U9IjEwIiBndWlkZXRvbGVyYW5jZT0iMTAiIGlkPSJuYW1lZHZpZXcxMDgwNTQiIGlua3NjYXBlOmN1cnJlbnQtbGF5ZXI9InN2ZzEwODA1MiIgaW5rc2NhcGU6Y3g9IjMyLjk5OTk4NSIgaW5rc2NhcGU6Y3k9IjMyLjk5OTk4NSIgaW5rc2NhcGU6cGFnZW9wYWNpdHk9IjAiIGlua3NjYXBlOnBhZ2VzaGFkb3c9IjIiIGlua3NjYXBlOndpbmRvdy1oZWlnaHQ9IjEwMTciIGlua3NjYXBlOndpbmRvdy1tYXhpbWl6ZWQ9IjEiIGlua3NjYXBlOndpbmRvdy13aWR0aD0iMTkyMCIgaW5rc2NhcGU6d2luZG93LXg9Ii04IiBpbmtzY2FwZTp3aW5kb3cteT0iLTgiIGlua3NjYXBlOnpvb209IjEyLjc1MDAwNiIgb2JqZWN0dG9sZXJhbmNlPSIxMCIgcGFnZWNvbG9yPSIjZmZmZmZmIiBzaG93Z3JpZD0iZmFsc2UiPiYjeGE7CTwvc29kaXBvZGk6bmFtZWR2aWV3PiYjeGE7PGcgaWQ9ImcxMDgwNTAiIHRyYW5zZm9ybT0idHJhbnNsYXRlKC0wLjc1LC0wLjc1KSI+JiN4YTsJPHRpdGxlIGlkPSJ0aXRsZTEwNzk5MiI+UGFnZS0xPC90aXRsZT4mI3hhOwk8ZyBpZD0iZ3JvdXA1MDIyLTEiIHRyYW5zZm9ybT0idHJhbnNsYXRlKDEuNSwtMS41KSI+JiN4YTsJCTx0aXRsZSBpZD0idGl0bGUxMDc5OTQiPlRlYW08L3RpdGxlPiYjeGE7CQk8ZyBpZD0ic2hhcGU1MDIzLTIiPiYjeGE7CQkJPHRpdGxlIGlkPSJ0aXRsZTEwNzk5NiI+Y2lyY2xlNjUyNjwvdGl0bGU+JiN4YTsJCQk8Y2lyY2xlIGlkPSJlbGxpcHNlMTA3OTk4IiBzdHlsZT0iZmlsbDojRkZGRkZGO3N0cm9rZTojNTU2QThBO3N0cm9rZS13aWR0aDoxLjU7c3Ryb2tlLW1pdGVybGltaXQ6MzsiIGN4PSIyNCIgY3k9IjI3IiByPSIyNCIvPiYjeGE7CQk8L2c+JiN4YTsJCTxnIGlkPSJncm91cDUwMjQtNCIgdHJhbnNmb3JtPSJ0cmFuc2xhdGUoNS44MTI1LC04LjI1KSI+JiN4YTsJCQk8dGl0bGUgaWQ9InRpdGxlMTA4MDAxIj5nNjU0NjwvdGl0bGU+JiN4YTsJCQk8ZyBpZD0iZ3JvdXA1MDI1LTUiIHRyYW5zZm9ybT0idHJhbnNsYXRlKDAsLTEwLjUpIj4mI3hhOwkJCQk8dGl0bGUgaWQ9InRpdGxlMTA4MDAzIj5nNjUzMjwvdGl0bGU+JiN4YTsJCQkJPGcgaWQ9InNoYXBlNTAyNi02IiB0cmFuc2Zvcm09InRyYW5zbGF0ZSgzLC04LjI1KSI+JiN4YTsJCQkJCTx0aXRsZSBpZD0idGl0bGUxMDgwMDUiPmNpcmNsZTY1Mjg8L3RpdGxlPiYjeGE7CQkJCQkmI3hhOwkJCQkJCTxjaXJjbGUgaWQ9ImVsbGlwc2UxMDgwMDciIHN0eWxlPSJmaWxsOiNFNkU3RTg7c3Ryb2tlOiM1NTZBOEE7c3Ryb2tlLXdpZHRoOjEuNTtzdHJva2UtbWl0ZXJsaW1pdDozOyIgY3g9IjUuNjMiIGN5PSI0NS4zOCIgcj0iNS42MyIvPiYjeGE7CQkJCTwvZz4mI3hhOwkJCQk8ZyBpZD0ic2hhcGU1MDI3LTgiPiYjeGE7CQkJCQk8dGl0bGUgaWQ9InRpdGxlMTA4MDEwIj5wYXRoNjUzMDwvdGl0bGU+JiN4YTsJCQkJCTxwYXRoIGlkPSJwYXRoMTA4MDEyIiBpbmtzY2FwZTpjb25uZWN0b3ItY3VydmF0dXJlPSIwIiBzdHlsZT0iZmlsbDojRTZFN0U4OyIgZD0iTTAsNTFjMC4yLTQuNzYsNC4yMi04LjQ2LDguOTgtOC4yNyAgICAgICBjNC40OCwwLjE5LDguMDgsMy43OCw4LjI3LDguMjdIMHoiLz4mI3hhOwkJCQkJJiN4YTsJCQkJCQk8cGF0aCBpZD0icGF0aDEwODAxNCIgaW5rc2NhcGU6Y29ubmVjdG9yLWN1cnZhdHVyZT0iMCIgc3R5bGU9ImZpbGw6bm9uZTtzdHJva2U6IzU1NkE4QTtzdHJva2Utd2lkdGg6MS41O3N0cm9rZS1taXRlcmxpbWl0OjM7IiBkPSIgICAgICAgTTAsNTFjMC4yLTQuNzYsNC4yMi04LjQ2LDguOTgtOC4yN2M0LjQ4LDAuMTksOC4wOCwzLjc4LDguMjcsOC4yNyIvPiYjeGE7CQkJCTwvZz4mI3hhOwkJCTwvZz4mI3hhOwkJCTxnIGlkPSJncm91cDUwMjgtMTEiIHRyYW5zZm9ybT0idHJhbnNsYXRlKDE5LjEyNSwtMTAuNSkiPiYjeGE7CQkJCTx0aXRsZSBpZD0idGl0bGUxMDgwMTgiPmc2NTM4PC90aXRsZT4mI3hhOwkJCQk8ZyBpZD0ic2hhcGU1MDI5LTEyIiB0cmFuc2Zvcm09InRyYW5zbGF0ZSgzLC04LjI1KSI+JiN4YTsJCQkJCTx0aXRsZSBpZD0idGl0bGUxMDgwMjAiPmNpcmNsZTY1MzQ8L3RpdGxlPiYjeGE7CQkJCQkmI3hhOwkJCQkJCTxjaXJjbGUgaWQ9ImVsbGlwc2UxMDgwMjIiIHN0eWxlPSJmaWxsOiNFNkU3RTg7c3Ryb2tlOiM1NTZBOEE7c3Ryb2tlLXdpZHRoOjEuNTtzdHJva2UtbWl0ZXJsaW1pdDozOyIgY3g9IjUuNjMiIGN5PSI0NS4zOCIgcj0iNS42MyIvPiYjeGE7CQkJCTwvZz4mI3hhOwkJCQk8ZyBpZD0ic2hhcGU1MDMwLTE0Ij4mI3hhOwkJCQkJPHRpdGxlIGlkPSJ0aXRsZTEwODAyNSI+cGF0aDY1MzY8L3RpdGxlPiYjeGE7CQkJCQk8cGF0aCBpZD0icGF0aDEwODAyNyIgaW5rc2NhcGU6Y29ubmVjdG9yLWN1cnZhdHVyZT0iMCIgc3R5bGU9ImZpbGw6I0U2RTdFODsiIGQ9Ik0wLDUxYzAuMi00Ljc2LDQuMjItOC40Niw4Ljk4LTguMjcgICAgICAgYzQuNDgsMC4xOSw4LjA4LDMuNzgsOC4yNyw4LjI3SDB6Ii8+JiN4YTsJCQkJCSYjeGE7CQkJCQkJPHBhdGggaWQ9InBhdGgxMDgwMjkiIGlua3NjYXBlOmNvbm5lY3Rvci1jdXJ2YXR1cmU9IjAiIHN0eWxlPSJmaWxsOm5vbmU7c3Ryb2tlOiM1NTZBOEE7c3Ryb2tlLXdpZHRoOjEuNTtzdHJva2UtbWl0ZXJsaW1pdDozOyIgZD0iICAgICAgIE0wLDUxYzAuMi00Ljc2LDQuMjItOC40Niw4Ljk4LTguMjdjNC40OCwwLjE5LDguMDgsMy43OCw4LjI3LDguMjciLz4mI3hhOwkJCQk8L2c+JiN4YTsJCQk8L2c+JiN4YTsJCQk8ZyBpZD0iZ3JvdXA1MDMxLTE3IiB0cmFuc2Zvcm09InRyYW5zbGF0ZSg5KSI+JiN4YTsJCQkJPHRpdGxlIGlkPSJ0aXRsZTEwODAzMyI+ZzY1NDQ8L3RpdGxlPiYjeGE7CQkJCTxnIGlkPSJzaGFwZTUwMzItMTgiIHRyYW5zZm9ybT0idHJhbnNsYXRlKDMsLTguMjUpIj4mI3hhOwkJCQkJPHRpdGxlIGlkPSJ0aXRsZTEwODAzNSI+Y2lyY2xlNjU0MDwvdGl0bGU+JiN4YTsJCQkJCSYjeGE7CQkJCQkJPGNpcmNsZSBpZD0iZWxsaXBzZTEwODAzNyIgc3R5bGU9ImZpbGw6I0FBRTlGQjtzdHJva2U6IzU1NkE4QTtzdHJva2Utd2lkdGg6MS41O3N0cm9rZS1taXRlcmxpbWl0OjM7IiBjeD0iNS42MyIgY3k9IjQ1LjM4IiByPSI1LjYzIi8+JiN4YTsJCQkJPC9nPiYjeGE7CQkJCTxnIGlkPSJzaGFwZTUwMzMtMjAiPiYjeGE7CQkJCQk8dGl0bGUgaWQ9InRpdGxlMTA4MDQwIj5wYXRoNjU0MjwvdGl0bGU+JiN4YTsJCQkJCTxwYXRoIGlkPSJwYXRoMTA4MDQyIiBpbmtzY2FwZTpjb25uZWN0b3ItY3VydmF0dXJlPSIwIiBzdHlsZT0iZmlsbDojQUFFOUZCOyIgZD0iTTAsNTFjMC4yLTQuNzYsNC4yMi04LjQ2LDguOTgtOC4yNyAgICAgICBjNC40OCwwLjE5LDguMDgsMy43OCw4LjI3LDguMjdIMHoiLz4mI3hhOwkJCQkJJiN4YTsJCQkJCQk8cGF0aCBpZD0icGF0aDEwODA0NCIgaW5rc2NhcGU6Y29ubmVjdG9yLWN1cnZhdHVyZT0iMCIgc3R5bGU9ImZpbGw6bm9uZTtzdHJva2U6IzU1NkE4QTtzdHJva2Utd2lkdGg6MS41O3N0cm9rZS1taXRlcmxpbWl0OjM7IiBkPSIgICAgICAgTTAsNTFjMC4yLTQuNzYsNC4yMi04LjQ2LDguOTgtOC4yN2M0LjQ4LDAuMTksOC4wOCwzLjc4LDguMjcsOC4yNyIvPiYjeGE7CQkJCTwvZz4mI3hhOwkJCTwvZz4mI3hhOwkJPC9nPiYjeGE7CTwvZz4mI3hhOzwvZz4mI3hhOzwvc3ZnPg==;" parent="1" vertex="1">
          <mxGeometry x="185.5" y="247.5" width="30" height="30" as="geometry"/>
        </mxCell>
        <mxCell id="-gJ6sGOuQFcfJpE5J3B6-43" value="&lt;b&gt;Leadership&lt;/b&gt;" style="text;html=1;strokeColor=none;fillColor=none;align=center;verticalAlign=middle;whiteSpace=wrap;rounded=0;dashed=1;labelBackgroundColor=none;" parent="1" vertex="1">
          <mxGeometry x="79.5" y="224.5" width="129" height="20" as="geometry"/>
        </mxCell>
        <mxCell id="-gJ6sGOuQFcfJpE5J3B6-44" value="&lt;font style=&quot;font-size: 8px&quot;&gt;Squad&lt;/font&gt;" style="text;html=1;strokeColor=none;fillColor=none;align=center;verticalAlign=middle;whiteSpace=wrap;rounded=0;dashed=1;fontSize=8;labelBackgroundColor=none;" parent="1" vertex="1">
          <mxGeometry x="64" y="276" width="29" height="20" as="geometry"/>
        </mxCell>
        <mxCell id="-gJ6sGOuQFcfJpE5J3B6-48" value="Squad" style="text;html=1;strokeColor=none;fillColor=none;align=center;verticalAlign=middle;whiteSpace=wrap;rounded=0;dashed=1;fontSize=8;labelBackgroundColor=none;" parent="1" vertex="1">
          <mxGeometry x="105" y="276" width="29" height="20" as="geometry"/>
        </mxCell>
        <mxCell id="-gJ6sGOuQFcfJpE5J3B6-49" value="&lt;font style=&quot;font-size: 8px&quot;&gt;Squad&lt;/font&gt;" style="text;html=1;strokeColor=none;fillColor=none;align=center;verticalAlign=middle;whiteSpace=wrap;rounded=0;dashed=1;fontSize=8;labelBackgroundColor=none;" parent="1" vertex="1">
          <mxGeometry x="144" y="276" width="29" height="20" as="geometry"/>
        </mxCell>
        <mxCell id="-gJ6sGOuQFcfJpE5J3B6-51" value="&lt;font style=&quot;font-size: 8px&quot;&gt;Squad&lt;/font&gt;" style="text;html=1;strokeColor=none;fillColor=none;align=center;verticalAlign=middle;whiteSpace=wrap;rounded=0;dashed=1;fontSize=8;labelBackgroundColor=none;" parent="1" vertex="1">
          <mxGeometry x="185" y="276" width="29" height="20" as="geometry"/>
        </mxCell>
        <mxCell id="-gJ6sGOuQFcfJpE5J3B6-264" style="edgeStyle=orthogonalEdgeStyle;rounded=0;orthogonalLoop=1;jettySize=auto;html=1;fontSize=9;fontColor=#33FFFF;entryX=0.5;entryY=0;entryDx=0;entryDy=0;labelBackgroundColor=none;" parent="1" target="-gJ6sGOuQFcfJpE5J3B6-257" edge="1">
          <mxGeometry relative="1" as="geometry">
            <mxPoint x="229" y="300.5" as="sourcePoint"/>
          </mxGeometry>
        </mxCell>
        <mxCell id="-gJ6sGOuQFcfJpE5J3B6-52" value="&lt;b&gt;SRE Engineers&lt;/b&gt;" style="text;html=1;strokeColor=none;fillColor=none;align=center;verticalAlign=middle;whiteSpace=wrap;rounded=0;dashed=1;labelBackgroundColor=none;" parent="1" vertex="1">
          <mxGeometry x="81.5" y="295.5" width="129" height="20" as="geometry"/>
        </mxCell>
        <mxCell id="-gJ6sGOuQFcfJpE5J3B6-54" value="&lt;b&gt;Infrastructure Environments&lt;/b&gt;" style="rounded=1;whiteSpace=wrap;html=1;strokeWidth=1;fontSize=8;fillColor=#d5e8d4;strokeColor=none;gradientColor=none;labelBackgroundColor=none;" parent="1" vertex="1">
          <mxGeometry x="65.5" y="447.5" width="65" height="30" as="geometry"/>
        </mxCell>
        <mxCell id="-gJ6sGOuQFcfJpE5J3B6-55" value="&lt;b&gt;Tooling Frameworks&lt;/b&gt;" style="rounded=1;whiteSpace=wrap;html=1;strokeWidth=1;fontSize=8;fillColor=#d5e8d4;strokeColor=none;labelBackgroundColor=none;" parent="1" vertex="1">
          <mxGeometry x="147.5" y="447.5" width="65" height="30" as="geometry"/>
        </mxCell>
        <mxCell id="-gJ6sGOuQFcfJpE5J3B6-65" value="&lt;font style=&quot;font-size: 10px&quot;&gt;&lt;b&gt;Infrastructure&lt;sup&gt;SRE&lt;/sup&gt;&lt;/b&gt;&lt;/font&gt;" style="rounded=1;whiteSpace=wrap;html=1;strokeColor=#36393d;strokeWidth=1;fontSize=8;fillColor=#cce5ff;labelBackgroundColor=none;" parent="1" vertex="1">
          <mxGeometry x="257" y="392.5" width="83" height="20" as="geometry"/>
        </mxCell>
        <mxCell id="-gJ6sGOuQFcfJpE5J3B6-71" value="&lt;font&gt;&lt;b&gt;&lt;span style=&quot;font-size: 10px&quot;&gt;Tooling&lt;sup&gt;SRE&lt;/sup&gt;&lt;/span&gt;&lt;/b&gt;&lt;/font&gt;" style="rounded=1;whiteSpace=wrap;html=1;strokeColor=#36393d;strokeWidth=1;fontSize=8;fillColor=#cce5ff;labelBackgroundColor=none;" parent="1" vertex="1">
          <mxGeometry x="257" y="416.5" width="84" height="20" as="geometry"/>
        </mxCell>
        <mxCell id="-gJ6sGOuQFcfJpE5J3B6-72" value="&lt;font style=&quot;font-size: 10px&quot;&gt;&lt;b&gt;Automation&lt;sup&gt;SRE&lt;/sup&gt;&lt;/b&gt;&lt;/font&gt;" style="rounded=1;whiteSpace=wrap;html=1;strokeColor=#36393d;strokeWidth=1;fontSize=8;fillColor=#cce5ff;labelBackgroundColor=none;" parent="1" vertex="1">
          <mxGeometry x="257" y="438.5" width="84" height="20" as="geometry"/>
        </mxCell>
        <mxCell id="-gJ6sGOuQFcfJpE5J3B6-73" value="&lt;font style=&quot;font-size: 10px&quot;&gt;&lt;b&gt;Monitoring&lt;sup&gt;SRE&lt;/sup&gt;&lt;/b&gt;&lt;/font&gt;" style="rounded=1;whiteSpace=wrap;html=1;strokeColor=#36393d;strokeWidth=1;fontSize=8;fillColor=#cce5ff;labelBackgroundColor=none;" parent="1" vertex="1">
          <mxGeometry x="257" y="461.5" width="83" height="20" as="geometry"/>
        </mxCell>
        <mxCell id="-gJ6sGOuQFcfJpE5J3B6-235" style="edgeStyle=none;rounded=0;orthogonalLoop=1;jettySize=auto;html=1;exitX=1;exitY=0.5;exitDx=0;exitDy=0;entryX=0;entryY=0.5;entryDx=0;entryDy=0;fontSize=9;fontColor=#33FFFF;labelBackgroundColor=none;" parent="1" source="-gJ6sGOuQFcfJpE5J3B6-134" target="-gJ6sGOuQFcfJpE5J3B6-174" edge="1">
          <mxGeometry relative="1" as="geometry"/>
        </mxCell>
        <mxCell id="-gJ6sGOuQFcfJpE5J3B6-244" style="rounded=0;orthogonalLoop=1;jettySize=auto;html=1;exitX=1;exitY=0.5;exitDx=0;exitDy=0;entryX=0;entryY=0.5;entryDx=0;entryDy=0;fontSize=9;fontColor=#33FFFF;labelBackgroundColor=none;" parent="1" source="-gJ6sGOuQFcfJpE5J3B6-134" target="-gJ6sGOuQFcfJpE5J3B6-173" edge="1">
          <mxGeometry relative="1" as="geometry"/>
        </mxCell>
        <mxCell id="-gJ6sGOuQFcfJpE5J3B6-248" style="edgeStyle=none;rounded=0;orthogonalLoop=1;jettySize=auto;html=1;exitX=1;exitY=0.5;exitDx=0;exitDy=0;entryX=0;entryY=0.5;entryDx=0;entryDy=0;fontSize=9;fontColor=#33FFFF;labelBackgroundColor=none;" parent="1" source="-gJ6sGOuQFcfJpE5J3B6-134" target="-gJ6sGOuQFcfJpE5J3B6-242" edge="1">
          <mxGeometry relative="1" as="geometry"/>
        </mxCell>
        <mxCell id="-gJ6sGOuQFcfJpE5J3B6-134" value="" style="shape=image;html=1;verticalAlign=top;verticalLabelPosition=bottom;labelBackgroundColor=none;imageAspect=0;aspect=fixed;image=https://cdn0.iconfinder.com/data/icons/google-material-design-3-0/48/ic_low_priority_48px-128.png;strokeColor=#000000;strokeWidth=1;gradientColor=none;fontSize=8;" parent="1" vertex="1">
          <mxGeometry x="487" y="341.5" width="20" height="20" as="geometry"/>
        </mxCell>
        <mxCell id="-gJ6sGOuQFcfJpE5J3B6-168" value="&lt;span style=&quot;font-size: 10px&quot;&gt;&lt;b&gt;Feature&lt;/b&gt;&lt;/span&gt;" style="rounded=1;whiteSpace=wrap;html=1;strokeColor=#36393d;strokeWidth=1;fontSize=8;fillColor=#eeeeee;labelBackgroundColor=none;" parent="1" vertex="1">
          <mxGeometry x="393" y="401.57142857142856" width="60" height="20" as="geometry"/>
        </mxCell>
        <mxCell id="-gJ6sGOuQFcfJpE5J3B6-169" value="&lt;span style=&quot;font-size: 10px&quot;&gt;&lt;b&gt;Feature&lt;/b&gt;&lt;/span&gt;" style="rounded=1;whiteSpace=wrap;html=1;strokeColor=#36393d;strokeWidth=1;fontSize=8;fillColor=#eeeeee;labelBackgroundColor=none;" parent="1" vertex="1">
          <mxGeometry x="464" y="402.57142857142856" width="60" height="20" as="geometry"/>
        </mxCell>
        <mxCell id="-gJ6sGOuQFcfJpE5J3B6-170" value="&lt;span style=&quot;font-size: 10px&quot;&gt;&lt;b&gt;Feature&lt;/b&gt;&lt;/span&gt;" style="rounded=1;whiteSpace=wrap;html=1;strokeColor=#36393d;strokeWidth=1;fontSize=8;fillColor=#eeeeee;labelBackgroundColor=none;" parent="1" vertex="1">
          <mxGeometry x="533" y="401.57142857142856" width="60" height="20" as="geometry"/>
        </mxCell>
        <mxCell id="-gJ6sGOuQFcfJpE5J3B6-171" value="&lt;span style=&quot;font-size: 10px&quot;&gt;&lt;b&gt;Feature&lt;/b&gt;&lt;/span&gt;" style="rounded=1;whiteSpace=wrap;html=1;strokeColor=#36393d;strokeWidth=1;fontSize=8;fillColor=#eeeeee;labelBackgroundColor=none;" parent="1" vertex="1">
          <mxGeometry x="533" y="423.07142857142856" width="60" height="20" as="geometry"/>
        </mxCell>
        <mxCell id="-gJ6sGOuQFcfJpE5J3B6-173" value="&lt;span style=&quot;font-size: 10px&quot;&gt;&lt;b&gt;Feature&lt;sup&gt;SRE&lt;/sup&gt;&lt;/b&gt;&lt;/span&gt;" style="rounded=1;whiteSpace=wrap;html=1;strokeColor=#36393d;strokeWidth=1;fontSize=8;fillColor=#cce5ff;labelBackgroundColor=none;" parent="1" vertex="1">
          <mxGeometry x="464" y="447.07142857142856" width="60" height="20" as="geometry"/>
        </mxCell>
        <mxCell id="-gJ6sGOuQFcfJpE5J3B6-174" value="&lt;span style=&quot;font-size: 10px&quot;&gt;&lt;b&gt;Feature&lt;sup&gt;SRE&lt;/sup&gt;&lt;/b&gt;&lt;/span&gt;" style="rounded=1;whiteSpace=wrap;html=1;strokeColor=#36393d;strokeWidth=1;fontSize=8;fillColor=#cce5ff;labelBackgroundColor=none;" parent="1" vertex="1">
          <mxGeometry x="394.5" y="447.5" width="60" height="20" as="geometry"/>
        </mxCell>
        <mxCell id="-gJ6sGOuQFcfJpE5J3B6-176" value="" style="shape=image;verticalLabelPosition=bottom;labelBackgroundColor=none;verticalAlign=top;aspect=fixed;imageAspect=0;image=data:image/svg+xml,PHN2ZyB4bWxuczpjYz0iaHR0cDovL2NyZWF0aXZlY29tbW9ucy5vcmcvbnMjIiB4bWxuczpkYz0iaHR0cDovL3B1cmwub3JnL2RjL2VsZW1lbnRzLzEuMS8iIHhtbG5zOmlua3NjYXBlPSJodHRwOi8vd3d3Lmlua3NjYXBlLm9yZy9uYW1lc3BhY2VzL2lua3NjYXBlIiB4bWxuczpyZGY9Imh0dHA6Ly93d3cudzMub3JnLzE5OTkvMDIvMjItcmRmLXN5bnRheC1ucyMiIHhtbG5zOnNvZGlwb2RpPSJodHRwOi8vc29kaXBvZGkuc291cmNlZm9yZ2UubmV0L0RURC9zb2RpcG9kaS0wLmR0ZCIgeG1sbnM6c3ZnPSJodHRwOi8vd3d3LnczLm9yZy8yMDAwL3N2ZyIgeG1sbnM9Imh0dHA6Ly93d3cudzMub3JnLzIwMDAvc3ZnIiB4bWxuczp4bGluaz0iaHR0cDovL3d3dy53My5vcmcvMTk5OS94bGluayIgdmVyc2lvbj0iMS4xIiBpZD0ic3ZnMTgxOTY5IiBpbmtzY2FwZTp2ZXJzaW9uPSIwLjkyLjMgKDI0MDU1NDYsIDIwMTgtMDMtMTEpIiBzb2RpcG9kaTpkb2NuYW1lPSJrYW5iYW4uc3ZnIiB4PSIwcHgiIHk9IjBweCIgdmlld0JveD0iMCAwIDQ4IDM4LjI1IiBzdHlsZT0iZW5hYmxlLWJhY2tncm91bmQ6bmV3IDAgMCA0OCAzOC4yNTsiIHhtbDpzcGFjZT0icHJlc2VydmUiPiYjeGE7PHNvZGlwb2RpOm5hbWVkdmlldyBib3JkZXJjb2xvcj0iIzY2NjY2NiIgYm9yZGVyb3BhY2l0eT0iMSIgZml0LW1hcmdpbi1ib3R0b209IjAiIGZpdC1tYXJnaW4tbGVmdD0iMCIgZml0LW1hcmdpbi1yaWdodD0iMCIgZml0LW1hcmdpbi10b3A9IjAiIGdyaWR0b2xlcmFuY2U9IjEwIiBndWlkZXRvbGVyYW5jZT0iMTAiIGlkPSJuYW1lZHZpZXcxODE5NzEiIGlua3NjYXBlOmN1cnJlbnQtbGF5ZXI9InN2ZzE4MTk2OSIgaW5rc2NhcGU6Y3g9IjMyLjUwMDAxNSIgaW5rc2NhcGU6Y3k9IjI2LjAwMDAxNiIgaW5rc2NhcGU6cGFnZW9wYWNpdHk9IjAiIGlua3NjYXBlOnBhZ2VzaGFkb3c9IjIiIGlua3NjYXBlOndpbmRvdy1oZWlnaHQ9IjEwMTciIGlua3NjYXBlOndpbmRvdy1tYXhpbWl6ZWQ9IjEiIGlua3NjYXBlOndpbmRvdy13aWR0aD0iMTkyMCIgaW5rc2NhcGU6d2luZG93LXg9Ii04IiBpbmtzY2FwZTp3aW5kb3cteT0iLTgiIGlua3NjYXBlOnpvb209IjEzLjEzNjM2NCIgb2JqZWN0dG9sZXJhbmNlPSIxMCIgcGFnZWNvbG9yPSIjZmZmZmZmIiBzaG93Z3JpZD0iZmFsc2UiPiYjeGE7CTwvc29kaXBvZGk6bmFtZWR2aWV3PiYjeGE7PHBhdGggaWQ9InBhdGgxODE4OTAiIGlua3NjYXBlOmNvbm5lY3Rvci1jdXJ2YXR1cmU9IjAiIHN0eWxlPSJmaWxsOiNGRkZGRkY7IiBkPSJNMC43NSwzNmMwLDAuODMsMC42NywxLjUsMS41LDEuNWg0My41ICBjMC44MywwLDEuNS0wLjY3LDEuNS0xLjVWMi4yNWMwLTAuODMtMC42Ny0xLjUtMS41LTEuNUgyLjI1Yy0wLjgzLDAtMS41LDAuNjctMS41LDEuNVYzNnoiLz4mI3hhOzxnIGlkPSJzaGFwZTI4MTktNSIgdHJhbnNmb3JtPSJ0cmFuc2xhdGUoNC41LC0zMS41KSI+JiN4YTsJPHRpdGxlIGlkPSJ0aXRsZTE4MTg5NSI+cmVjdDM4MzwvdGl0bGU+JiN4YTsJPHJlY3QgaWQ9InJlY3QxODE4OTciIHg9IjAiIHk9IjQyLjc1IiBzdHlsZT0iZmlsbDojNTY2QTg5OyIgd2lkdGg9IjYuNzUiIGhlaWdodD0iNi43NSIvPiYjeGE7PC9nPiYjeGE7PGcgaWQ9InNoYXBlMjgyMC03IiB0cmFuc2Zvcm09InRyYW5zbGF0ZSgxMy41LC0zMS41KSI+JiN4YTsJPHRpdGxlIGlkPSJ0aXRsZTE4MTkwMCI+cmVjdDM4NTwvdGl0bGU+JiN4YTsJPHJlY3QgaWQ9InJlY3QxODE5MDIiIHg9IjAiIHk9IjQyLjc1IiBzdHlsZT0iZmlsbDojNTY2QTg5OyIgd2lkdGg9IjYuNzUiIGhlaWdodD0iNi43NSIvPiYjeGE7PC9nPiYjeGE7PGcgaWQ9InNoYXBlMjgyMS05IiB0cmFuc2Zvcm09InRyYW5zbGF0ZSg0LjUsLTIzLjI1KSI+JiN4YTsJPHRpdGxlIGlkPSJ0aXRsZTE4MTkwNSI+cmVjdDM4NzwvdGl0bGU+JiN4YTsJPHJlY3QgaWQ9InJlY3QxODE5MDciIHg9IjAiIHk9IjQyLjc1IiBzdHlsZT0iZmlsbDojNTY2QTg5OyIgd2lkdGg9IjYuNzUiIGhlaWdodD0iNi43NSIvPiYjeGE7PC9nPiYjeGE7PGcgaWQ9InNoYXBlMjgyMi0xMSIgdHJhbnNmb3JtPSJ0cmFuc2xhdGUoMTMuNSwtMjMuMjUpIj4mI3hhOwk8dGl0bGUgaWQ9InRpdGxlMTgxOTEwIj5yZWN0Mzg5PC90aXRsZT4mI3hhOwk8cmVjdCBpZD0icmVjdDE4MTkxMiIgeD0iMCIgeT0iNDIuNzUiIHN0eWxlPSJmaWxsOiM1NjZBODk7IiB3aWR0aD0iNi43NSIgaGVpZ2h0PSI2Ljc1Ii8+JiN4YTs8L2c+JiN4YTs8ZyBpZD0ic2hhcGUyODIzLTEzIiB0cmFuc2Zvcm09InRyYW5zbGF0ZSgyNywtMzEuNSkiPiYjeGE7CTx0aXRsZSBpZD0idGl0bGUxODE5MTUiPnJlY3QzOTE8L3RpdGxlPiYjeGE7CTxyZWN0IGlkPSJyZWN0MTgxOTE3IiB4PSIwIiB5PSI0Mi43NSIgc3R5bGU9ImZpbGw6IzAwQkNGMjsiIHdpZHRoPSI2Ljc1IiBoZWlnaHQ9IjYuNzUiLz4mI3hhOzwvZz4mI3hhOzxnIGlkPSJzaGFwZTI4MjQtMTUiIHRyYW5zZm9ybT0idHJhbnNsYXRlKDI3LC0yMy4yNSkiPiYjeGE7CTx0aXRsZSBpZD0idGl0bGUxODE5MjAiPnJlY3QzOTM8L3RpdGxlPiYjeGE7CTxyZWN0IGlkPSJyZWN0MTgxOTIyIiB4PSIwIiB5PSI0Mi43NSIgc3R5bGU9ImZpbGw6IzAwQkNGMjsiIHdpZHRoPSI2Ljc1IiBoZWlnaHQ9IjYuNzUiLz4mI3hhOzwvZz4mI3hhOzxnIGlkPSJzaGFwZTI4MjUtMTciIHRyYW5zZm9ybT0idHJhbnNsYXRlKDM2LC0yMy4yNSkiPiYjeGE7CTx0aXRsZSBpZD0idGl0bGUxODE5MjUiPnJlY3QzOTU8L3RpdGxlPiYjeGE7CTxyZWN0IGlkPSJyZWN0MTgxOTI3IiB4PSIwIiB5PSI0Mi43NSIgc3R5bGU9ImZpbGw6IzAwQkNGMjsiIHdpZHRoPSI2Ljc1IiBoZWlnaHQ9IjYuNzUiLz4mI3hhOzwvZz4mI3hhOzxnIGlkPSJzaGFwZTI4MjYtMTkiIHRyYW5zZm9ybT0idHJhbnNsYXRlKDQuNSwtMTUpIj4mI3hhOwk8dGl0bGUgaWQ9InRpdGxlMTgxOTMwIj5yZWN0Mzk3PC90aXRsZT4mI3hhOwk8cmVjdCBpZD0icmVjdDE4MTkzMiIgeD0iMCIgeT0iNDIuNzUiIHN0eWxlPSJmaWxsOiM1NjZBODk7IiB3aWR0aD0iNi43NSIgaGVpZ2h0PSI2Ljc1Ii8+JiN4YTs8L2c+JiN4YTs8ZyBpZD0ic2hhcGUyODI3LTIxIiB0cmFuc2Zvcm09InRyYW5zbGF0ZSgxMy41LC0xNSkiPiYjeGE7CTx0aXRsZSBpZD0idGl0bGUxODE5MzUiPnJlY3QzOTk8L3RpdGxlPiYjeGE7CTxyZWN0IGlkPSJyZWN0MTgxOTM3IiB4PSIwIiB5PSI0Mi43NSIgc3R5bGU9ImZpbGw6IzU2NkE4OTsiIHdpZHRoPSI2Ljc1IiBoZWlnaHQ9IjYuNzUiLz4mI3hhOzwvZz4mI3hhOzxyZWN0IGlkPSJyZWN0MTgxOTQzIiB4PSIxLjUiIHk9IjAuNzUiIHN0eWxlPSJmaWxsOiNFNUU1RTU7IiB3aWR0aD0iNDUiIGhlaWdodD0iOC4xOCIvPiYjeGE7PHBhdGggaWQ9InBhdGgxODE5NDgiIGlua3NjYXBlOmNvbm5lY3Rvci1jdXJ2YXR1cmU9IjAiIHN0eWxlPSJmaWxsOm5vbmU7c3Ryb2tlOiM1NTZBOEE7c3Ryb2tlLXdpZHRoOjEuNTtzdHJva2UtbWl0ZXJsaW1pdDozOyIgZD0iICBNMC43NSwzNmMwLDAuODMsMC42NywxLjUsMS41LDEuNWg0My41YzAuODMsMCwxLjUtMC42NywxLjUtMS41VjIuMjVjMC0wLjgzLTAuNjctMS41LTEuNS0xLjVIMi4yNWMtMC44MywwLTEuNSwwLjY3LTEuNSwxLjVWMzZ6Ii8+JiN4YTs8cGF0aCBpZD0icGF0aDE4MTk1MyIgaW5rc2NhcGU6Y29ubmVjdG9yLWN1cnZhdHVyZT0iMCIgc3R5bGU9ImZpbGw6bm9uZTtzdHJva2U6IzU1NkE4QTtzdHJva2Utd2lkdGg6MS41O3N0cm9rZS1taXRlcmxpbWl0OjM7IiBkPSIgIE0wLjc1LDguMjVINDgiLz4mI3hhOzxwYXRoIGlkPSJwYXRoMTgxOTU4IiBpbmtzY2FwZTpjb25uZWN0b3ItY3VydmF0dXJlPSIwIiBzdHlsZT0iZmlsbDpub25lO3N0cm9rZTojNTY2QTg5O3N0cm9rZS13aWR0aDoxLjU7c3Ryb2tlLW1pdGVybGltaXQ6MzsiIGQ9IiAgTTI0LDExLjI1djI0Ii8+JiN4YTs8cmVjdCBpZD0icmVjdDE4MTk2MyIgeD0iMCIgeT0iLTUuMjUiIHN0eWxlPSJmaWxsOm5vbmU7IiB3aWR0aD0iNDgiIGhlaWdodD0iNDgiLz4mI3hhOzwvc3ZnPg==;strokeColor=#000000;strokeWidth=1;gradientColor=none;fontSize=9;fontColor=#33FFFF;" parent="1" vertex="1">
          <mxGeometry x="377" y="371.07142857142856" width="27" height="21" as="geometry"/>
        </mxCell>
        <mxCell id="-gJ6sGOuQFcfJpE5J3B6-178" value="" style="rounded=1;whiteSpace=wrap;html=1;strokeColor=#000000;strokeWidth=1;gradientColor=none;fontSize=9;fontColor=#33FFFF;labelBackgroundColor=none;" parent="1" vertex="1">
          <mxGeometry x="385" y="235.57142857142856" width="198" height="69" as="geometry"/>
        </mxCell>
        <mxCell id="-gJ6sGOuQFcfJpE5J3B6-179" value="&lt;span style=&quot;font-size: 10px&quot;&gt;&lt;b&gt;Feature&lt;/b&gt;&lt;/span&gt;" style="rounded=1;whiteSpace=wrap;html=1;strokeColor=#36393d;strokeWidth=1;fontSize=8;fillColor=#eeeeee;labelBackgroundColor=none;" parent="1" vertex="1">
          <mxGeometry x="391.5" y="256.57142857142856" width="60" height="20" as="geometry"/>
        </mxCell>
        <mxCell id="-gJ6sGOuQFcfJpE5J3B6-180" value="&lt;span style=&quot;font-size: 10px&quot;&gt;&lt;b&gt;Feature&lt;/b&gt;&lt;/span&gt;" style="rounded=1;whiteSpace=wrap;html=1;strokeColor=#36393d;strokeWidth=1;fontSize=8;fillColor=#eeeeee;labelBackgroundColor=none;" parent="1" vertex="1">
          <mxGeometry x="453.5" y="256.57142857142856" width="60" height="20" as="geometry"/>
        </mxCell>
        <mxCell id="-gJ6sGOuQFcfJpE5J3B6-181" value="&lt;span style=&quot;font-size: 10px&quot;&gt;&lt;b&gt;Feature&lt;/b&gt;&lt;/span&gt;" style="rounded=1;whiteSpace=wrap;html=1;strokeColor=#36393d;strokeWidth=1;fontSize=8;fillColor=#eeeeee;labelBackgroundColor=none;" parent="1" vertex="1">
          <mxGeometry x="515.5" y="256.57142857142856" width="60" height="20" as="geometry"/>
        </mxCell>
        <mxCell id="-gJ6sGOuQFcfJpE5J3B6-182" value="&lt;span style=&quot;font-size: 10px&quot;&gt;&lt;b&gt;Feature&lt;/b&gt;&lt;/span&gt;" style="rounded=1;whiteSpace=wrap;html=1;strokeColor=#36393d;strokeWidth=1;fontSize=8;fillColor=#eeeeee;labelBackgroundColor=none;" parent="1" vertex="1">
          <mxGeometry x="391.5" y="279.07142857142856" width="60" height="20" as="geometry"/>
        </mxCell>
        <mxCell id="-gJ6sGOuQFcfJpE5J3B6-183" value="&lt;span style=&quot;font-size: 10px&quot;&gt;&lt;b&gt;Feature&lt;sup&gt;SRE&lt;/sup&gt;&lt;/b&gt;&lt;/span&gt;" style="rounded=1;whiteSpace=wrap;html=1;strokeColor=#36393d;strokeWidth=1;fontSize=8;fillColor=#cce5ff;labelBackgroundColor=none;" parent="1" vertex="1">
          <mxGeometry x="515.5" y="279.07142857142856" width="60" height="20" as="geometry"/>
        </mxCell>
        <mxCell id="-gJ6sGOuQFcfJpE5J3B6-184" value="&lt;span style=&quot;font-size: 10px&quot;&gt;&lt;b&gt;Feature&lt;sup&gt;SRE&lt;/sup&gt;&lt;/b&gt;&lt;/span&gt;" style="rounded=1;whiteSpace=wrap;html=1;strokeColor=#36393d;strokeWidth=1;fontSize=8;fillColor=#cce5ff;labelBackgroundColor=none;" parent="1" vertex="1">
          <mxGeometry x="453.5" y="279.07142857142856" width="60" height="20" as="geometry"/>
        </mxCell>
        <mxCell id="-gJ6sGOuQFcfJpE5J3B6-185" value="" style="shape=image;verticalLabelPosition=bottom;labelBackgroundColor=none;verticalAlign=top;aspect=fixed;imageAspect=0;image=data:image/svg+xml,PHN2ZyB4bWxuczpjYz0iaHR0cDovL2NyZWF0aXZlY29tbW9ucy5vcmcvbnMjIiB4bWxuczpkYz0iaHR0cDovL3B1cmwub3JnL2RjL2VsZW1lbnRzLzEuMS8iIHhtbG5zOmlua3NjYXBlPSJodHRwOi8vd3d3Lmlua3NjYXBlLm9yZy9uYW1lc3BhY2VzL2lua3NjYXBlIiB4bWxuczpyZGY9Imh0dHA6Ly93d3cudzMub3JnLzE5OTkvMDIvMjItcmRmLXN5bnRheC1ucyMiIHhtbG5zOnNvZGlwb2RpPSJodHRwOi8vc29kaXBvZGkuc291cmNlZm9yZ2UubmV0L0RURC9zb2RpcG9kaS0wLmR0ZCIgeG1sbnM6c3ZnPSJodHRwOi8vd3d3LnczLm9yZy8yMDAwL3N2ZyIgeG1sbnM9Imh0dHA6Ly93d3cudzMub3JnLzIwMDAvc3ZnIiB4bWxuczp4bGluaz0iaHR0cDovL3d3dy53My5vcmcvMTk5OS94bGluayIgdmVyc2lvbj0iMS4xIiBpZD0ic3ZnMTgxOTY5IiBpbmtzY2FwZTp2ZXJzaW9uPSIwLjkyLjMgKDI0MDU1NDYsIDIwMTgtMDMtMTEpIiBzb2RpcG9kaTpkb2NuYW1lPSJrYW5iYW4uc3ZnIiB4PSIwcHgiIHk9IjBweCIgdmlld0JveD0iMCAwIDQ4IDM4LjI1IiBzdHlsZT0iZW5hYmxlLWJhY2tncm91bmQ6bmV3IDAgMCA0OCAzOC4yNTsiIHhtbDpzcGFjZT0icHJlc2VydmUiPiYjeGE7PHNvZGlwb2RpOm5hbWVkdmlldyBib3JkZXJjb2xvcj0iIzY2NjY2NiIgYm9yZGVyb3BhY2l0eT0iMSIgZml0LW1hcmdpbi1ib3R0b209IjAiIGZpdC1tYXJnaW4tbGVmdD0iMCIgZml0LW1hcmdpbi1yaWdodD0iMCIgZml0LW1hcmdpbi10b3A9IjAiIGdyaWR0b2xlcmFuY2U9IjEwIiBndWlkZXRvbGVyYW5jZT0iMTAiIGlkPSJuYW1lZHZpZXcxODE5NzEiIGlua3NjYXBlOmN1cnJlbnQtbGF5ZXI9InN2ZzE4MTk2OSIgaW5rc2NhcGU6Y3g9IjMyLjUwMDAxNSIgaW5rc2NhcGU6Y3k9IjI2LjAwMDAxNiIgaW5rc2NhcGU6cGFnZW9wYWNpdHk9IjAiIGlua3NjYXBlOnBhZ2VzaGFkb3c9IjIiIGlua3NjYXBlOndpbmRvdy1oZWlnaHQ9IjEwMTciIGlua3NjYXBlOndpbmRvdy1tYXhpbWl6ZWQ9IjEiIGlua3NjYXBlOndpbmRvdy13aWR0aD0iMTkyMCIgaW5rc2NhcGU6d2luZG93LXg9Ii04IiBpbmtzY2FwZTp3aW5kb3cteT0iLTgiIGlua3NjYXBlOnpvb209IjEzLjEzNjM2NCIgb2JqZWN0dG9sZXJhbmNlPSIxMCIgcGFnZWNvbG9yPSIjZmZmZmZmIiBzaG93Z3JpZD0iZmFsc2UiPiYjeGE7CTwvc29kaXBvZGk6bmFtZWR2aWV3PiYjeGE7PHBhdGggaWQ9InBhdGgxODE4OTAiIGlua3NjYXBlOmNvbm5lY3Rvci1jdXJ2YXR1cmU9IjAiIHN0eWxlPSJmaWxsOiNGRkZGRkY7IiBkPSJNMC43NSwzNmMwLDAuODMsMC42NywxLjUsMS41LDEuNWg0My41ICBjMC44MywwLDEuNS0wLjY3LDEuNS0xLjVWMi4yNWMwLTAuODMtMC42Ny0xLjUtMS41LTEuNUgyLjI1Yy0wLjgzLDAtMS41LDAuNjctMS41LDEuNVYzNnoiLz4mI3hhOzxnIGlkPSJzaGFwZTI4MTktNSIgdHJhbnNmb3JtPSJ0cmFuc2xhdGUoNC41LC0zMS41KSI+JiN4YTsJPHRpdGxlIGlkPSJ0aXRsZTE4MTg5NSI+cmVjdDM4MzwvdGl0bGU+JiN4YTsJPHJlY3QgaWQ9InJlY3QxODE4OTciIHg9IjAiIHk9IjQyLjc1IiBzdHlsZT0iZmlsbDojNTY2QTg5OyIgd2lkdGg9IjYuNzUiIGhlaWdodD0iNi43NSIvPiYjeGE7PC9nPiYjeGE7PGcgaWQ9InNoYXBlMjgyMC03IiB0cmFuc2Zvcm09InRyYW5zbGF0ZSgxMy41LC0zMS41KSI+JiN4YTsJPHRpdGxlIGlkPSJ0aXRsZTE4MTkwMCI+cmVjdDM4NTwvdGl0bGU+JiN4YTsJPHJlY3QgaWQ9InJlY3QxODE5MDIiIHg9IjAiIHk9IjQyLjc1IiBzdHlsZT0iZmlsbDojNTY2QTg5OyIgd2lkdGg9IjYuNzUiIGhlaWdodD0iNi43NSIvPiYjeGE7PC9nPiYjeGE7PGcgaWQ9InNoYXBlMjgyMS05IiB0cmFuc2Zvcm09InRyYW5zbGF0ZSg0LjUsLTIzLjI1KSI+JiN4YTsJPHRpdGxlIGlkPSJ0aXRsZTE4MTkwNSI+cmVjdDM4NzwvdGl0bGU+JiN4YTsJPHJlY3QgaWQ9InJlY3QxODE5MDciIHg9IjAiIHk9IjQyLjc1IiBzdHlsZT0iZmlsbDojNTY2QTg5OyIgd2lkdGg9IjYuNzUiIGhlaWdodD0iNi43NSIvPiYjeGE7PC9nPiYjeGE7PGcgaWQ9InNoYXBlMjgyMi0xMSIgdHJhbnNmb3JtPSJ0cmFuc2xhdGUoMTMuNSwtMjMuMjUpIj4mI3hhOwk8dGl0bGUgaWQ9InRpdGxlMTgxOTEwIj5yZWN0Mzg5PC90aXRsZT4mI3hhOwk8cmVjdCBpZD0icmVjdDE4MTkxMiIgeD0iMCIgeT0iNDIuNzUiIHN0eWxlPSJmaWxsOiM1NjZBODk7IiB3aWR0aD0iNi43NSIgaGVpZ2h0PSI2Ljc1Ii8+JiN4YTs8L2c+JiN4YTs8ZyBpZD0ic2hhcGUyODIzLTEzIiB0cmFuc2Zvcm09InRyYW5zbGF0ZSgyNywtMzEuNSkiPiYjeGE7CTx0aXRsZSBpZD0idGl0bGUxODE5MTUiPnJlY3QzOTE8L3RpdGxlPiYjeGE7CTxyZWN0IGlkPSJyZWN0MTgxOTE3IiB4PSIwIiB5PSI0Mi43NSIgc3R5bGU9ImZpbGw6IzAwQkNGMjsiIHdpZHRoPSI2Ljc1IiBoZWlnaHQ9IjYuNzUiLz4mI3hhOzwvZz4mI3hhOzxnIGlkPSJzaGFwZTI4MjQtMTUiIHRyYW5zZm9ybT0idHJhbnNsYXRlKDI3LC0yMy4yNSkiPiYjeGE7CTx0aXRsZSBpZD0idGl0bGUxODE5MjAiPnJlY3QzOTM8L3RpdGxlPiYjeGE7CTxyZWN0IGlkPSJyZWN0MTgxOTIyIiB4PSIwIiB5PSI0Mi43NSIgc3R5bGU9ImZpbGw6IzAwQkNGMjsiIHdpZHRoPSI2Ljc1IiBoZWlnaHQ9IjYuNzUiLz4mI3hhOzwvZz4mI3hhOzxnIGlkPSJzaGFwZTI4MjUtMTciIHRyYW5zZm9ybT0idHJhbnNsYXRlKDM2LC0yMy4yNSkiPiYjeGE7CTx0aXRsZSBpZD0idGl0bGUxODE5MjUiPnJlY3QzOTU8L3RpdGxlPiYjeGE7CTxyZWN0IGlkPSJyZWN0MTgxOTI3IiB4PSIwIiB5PSI0Mi43NSIgc3R5bGU9ImZpbGw6IzAwQkNGMjsiIHdpZHRoPSI2Ljc1IiBoZWlnaHQ9IjYuNzUiLz4mI3hhOzwvZz4mI3hhOzxnIGlkPSJzaGFwZTI4MjYtMTkiIHRyYW5zZm9ybT0idHJhbnNsYXRlKDQuNSwtMTUpIj4mI3hhOwk8dGl0bGUgaWQ9InRpdGxlMTgxOTMwIj5yZWN0Mzk3PC90aXRsZT4mI3hhOwk8cmVjdCBpZD0icmVjdDE4MTkzMiIgeD0iMCIgeT0iNDIuNzUiIHN0eWxlPSJmaWxsOiM1NjZBODk7IiB3aWR0aD0iNi43NSIgaGVpZ2h0PSI2Ljc1Ii8+JiN4YTs8L2c+JiN4YTs8ZyBpZD0ic2hhcGUyODI3LTIxIiB0cmFuc2Zvcm09InRyYW5zbGF0ZSgxMy41LC0xNSkiPiYjeGE7CTx0aXRsZSBpZD0idGl0bGUxODE5MzUiPnJlY3QzOTk8L3RpdGxlPiYjeGE7CTxyZWN0IGlkPSJyZWN0MTgxOTM3IiB4PSIwIiB5PSI0Mi43NSIgc3R5bGU9ImZpbGw6IzU2NkE4OTsiIHdpZHRoPSI2Ljc1IiBoZWlnaHQ9IjYuNzUiLz4mI3hhOzwvZz4mI3hhOzxyZWN0IGlkPSJyZWN0MTgxOTQzIiB4PSIxLjUiIHk9IjAuNzUiIHN0eWxlPSJmaWxsOiNFNUU1RTU7IiB3aWR0aD0iNDUiIGhlaWdodD0iOC4xOCIvPiYjeGE7PHBhdGggaWQ9InBhdGgxODE5NDgiIGlua3NjYXBlOmNvbm5lY3Rvci1jdXJ2YXR1cmU9IjAiIHN0eWxlPSJmaWxsOm5vbmU7c3Ryb2tlOiM1NTZBOEE7c3Ryb2tlLXdpZHRoOjEuNTtzdHJva2UtbWl0ZXJsaW1pdDozOyIgZD0iICBNMC43NSwzNmMwLDAuODMsMC42NywxLjUsMS41LDEuNWg0My41YzAuODMsMCwxLjUtMC42NywxLjUtMS41VjIuMjVjMC0wLjgzLTAuNjctMS41LTEuNS0xLjVIMi4yNWMtMC44MywwLTEuNSwwLjY3LTEuNSwxLjVWMzZ6Ii8+JiN4YTs8cGF0aCBpZD0icGF0aDE4MTk1MyIgaW5rc2NhcGU6Y29ubmVjdG9yLWN1cnZhdHVyZT0iMCIgc3R5bGU9ImZpbGw6bm9uZTtzdHJva2U6IzU1NkE4QTtzdHJva2Utd2lkdGg6MS41O3N0cm9rZS1taXRlcmxpbWl0OjM7IiBkPSIgIE0wLjc1LDguMjVINDgiLz4mI3hhOzxwYXRoIGlkPSJwYXRoMTgxOTU4IiBpbmtzY2FwZTpjb25uZWN0b3ItY3VydmF0dXJlPSIwIiBzdHlsZT0iZmlsbDpub25lO3N0cm9rZTojNTY2QTg5O3N0cm9rZS13aWR0aDoxLjU7c3Ryb2tlLW1pdGVybGltaXQ6MzsiIGQ9IiAgTTI0LDExLjI1djI0Ii8+JiN4YTs8cmVjdCBpZD0icmVjdDE4MTk2MyIgeD0iMCIgeT0iLTUuMjUiIHN0eWxlPSJmaWxsOm5vbmU7IiB3aWR0aD0iNDgiIGhlaWdodD0iNDgiLz4mI3hhOzwvc3ZnPg==;strokeColor=#000000;strokeWidth=1;gradientColor=none;fontSize=9;fontColor=#33FFFF;" parent="1" vertex="1">
          <mxGeometry x="372.5" y="229.57142857142856" width="27" height="21" as="geometry"/>
        </mxCell>
        <mxCell id="-gJ6sGOuQFcfJpE5J3B6-218" value="" style="rounded=1;whiteSpace=wrap;html=1;strokeColor=#000000;strokeWidth=1;gradientColor=none;fontSize=9;fontColor=#33FFFF;labelBackgroundColor=none;" parent="1" vertex="1">
          <mxGeometry x="611" y="390.07142857142856" width="198" height="69" as="geometry"/>
        </mxCell>
        <mxCell id="-gJ6sGOuQFcfJpE5J3B6-219" value="&lt;span style=&quot;font-size: 10px&quot;&gt;&lt;b&gt;Feature&lt;/b&gt;&lt;/span&gt;" style="rounded=1;whiteSpace=wrap;html=1;strokeColor=#36393d;strokeWidth=1;fontSize=8;fillColor=#eeeeee;labelBackgroundColor=none;" parent="1" vertex="1">
          <mxGeometry x="617.5" y="411.07142857142856" width="60" height="20" as="geometry"/>
        </mxCell>
        <mxCell id="-gJ6sGOuQFcfJpE5J3B6-220" value="&lt;span style=&quot;font-size: 10px&quot;&gt;&lt;b&gt;Feature&lt;/b&gt;&lt;/span&gt;" style="rounded=1;whiteSpace=wrap;html=1;strokeColor=#36393d;strokeWidth=1;fontSize=8;fillColor=#eeeeee;labelBackgroundColor=none;" parent="1" vertex="1">
          <mxGeometry x="679.5" y="411.07142857142856" width="60" height="20" as="geometry"/>
        </mxCell>
        <mxCell id="-gJ6sGOuQFcfJpE5J3B6-221" value="&lt;span style=&quot;font-size: 10px&quot;&gt;&lt;b&gt;Feature&lt;/b&gt;&lt;/span&gt;" style="rounded=1;whiteSpace=wrap;html=1;strokeColor=#36393d;strokeWidth=1;fontSize=8;fillColor=#eeeeee;labelBackgroundColor=none;" parent="1" vertex="1">
          <mxGeometry x="741.5" y="411.07142857142856" width="60" height="20" as="geometry"/>
        </mxCell>
        <mxCell id="-gJ6sGOuQFcfJpE5J3B6-222" value="&lt;span style=&quot;font-size: 10px&quot;&gt;&lt;b&gt;Feature&lt;/b&gt;&lt;/span&gt;" style="rounded=1;whiteSpace=wrap;html=1;strokeColor=#36393d;strokeWidth=1;fontSize=8;fillColor=#eeeeee;labelBackgroundColor=none;" parent="1" vertex="1">
          <mxGeometry x="617.5" y="433.57142857142856" width="60" height="20" as="geometry"/>
        </mxCell>
        <mxCell id="-gJ6sGOuQFcfJpE5J3B6-225" value="" style="shape=image;verticalLabelPosition=bottom;labelBackgroundColor=none;verticalAlign=top;aspect=fixed;imageAspect=0;image=data:image/svg+xml,PHN2ZyB4bWxuczpjYz0iaHR0cDovL2NyZWF0aXZlY29tbW9ucy5vcmcvbnMjIiB4bWxuczpkYz0iaHR0cDovL3B1cmwub3JnL2RjL2VsZW1lbnRzLzEuMS8iIHhtbG5zOmlua3NjYXBlPSJodHRwOi8vd3d3Lmlua3NjYXBlLm9yZy9uYW1lc3BhY2VzL2lua3NjYXBlIiB4bWxuczpyZGY9Imh0dHA6Ly93d3cudzMub3JnLzE5OTkvMDIvMjItcmRmLXN5bnRheC1ucyMiIHhtbG5zOnNvZGlwb2RpPSJodHRwOi8vc29kaXBvZGkuc291cmNlZm9yZ2UubmV0L0RURC9zb2RpcG9kaS0wLmR0ZCIgeG1sbnM6c3ZnPSJodHRwOi8vd3d3LnczLm9yZy8yMDAwL3N2ZyIgeG1sbnM9Imh0dHA6Ly93d3cudzMub3JnLzIwMDAvc3ZnIiB4bWxuczp4bGluaz0iaHR0cDovL3d3dy53My5vcmcvMTk5OS94bGluayIgdmVyc2lvbj0iMS4xIiBpZD0ic3ZnMTgxOTY5IiBpbmtzY2FwZTp2ZXJzaW9uPSIwLjkyLjMgKDI0MDU1NDYsIDIwMTgtMDMtMTEpIiBzb2RpcG9kaTpkb2NuYW1lPSJrYW5iYW4uc3ZnIiB4PSIwcHgiIHk9IjBweCIgdmlld0JveD0iMCAwIDQ4IDM4LjI1IiBzdHlsZT0iZW5hYmxlLWJhY2tncm91bmQ6bmV3IDAgMCA0OCAzOC4yNTsiIHhtbDpzcGFjZT0icHJlc2VydmUiPiYjeGE7PHNvZGlwb2RpOm5hbWVkdmlldyBib3JkZXJjb2xvcj0iIzY2NjY2NiIgYm9yZGVyb3BhY2l0eT0iMSIgZml0LW1hcmdpbi1ib3R0b209IjAiIGZpdC1tYXJnaW4tbGVmdD0iMCIgZml0LW1hcmdpbi1yaWdodD0iMCIgZml0LW1hcmdpbi10b3A9IjAiIGdyaWR0b2xlcmFuY2U9IjEwIiBndWlkZXRvbGVyYW5jZT0iMTAiIGlkPSJuYW1lZHZpZXcxODE5NzEiIGlua3NjYXBlOmN1cnJlbnQtbGF5ZXI9InN2ZzE4MTk2OSIgaW5rc2NhcGU6Y3g9IjMyLjUwMDAxNSIgaW5rc2NhcGU6Y3k9IjI2LjAwMDAxNiIgaW5rc2NhcGU6cGFnZW9wYWNpdHk9IjAiIGlua3NjYXBlOnBhZ2VzaGFkb3c9IjIiIGlua3NjYXBlOndpbmRvdy1oZWlnaHQ9IjEwMTciIGlua3NjYXBlOndpbmRvdy1tYXhpbWl6ZWQ9IjEiIGlua3NjYXBlOndpbmRvdy13aWR0aD0iMTkyMCIgaW5rc2NhcGU6d2luZG93LXg9Ii04IiBpbmtzY2FwZTp3aW5kb3cteT0iLTgiIGlua3NjYXBlOnpvb209IjEzLjEzNjM2NCIgb2JqZWN0dG9sZXJhbmNlPSIxMCIgcGFnZWNvbG9yPSIjZmZmZmZmIiBzaG93Z3JpZD0iZmFsc2UiPiYjeGE7CTwvc29kaXBvZGk6bmFtZWR2aWV3PiYjeGE7PHBhdGggaWQ9InBhdGgxODE4OTAiIGlua3NjYXBlOmNvbm5lY3Rvci1jdXJ2YXR1cmU9IjAiIHN0eWxlPSJmaWxsOiNGRkZGRkY7IiBkPSJNMC43NSwzNmMwLDAuODMsMC42NywxLjUsMS41LDEuNWg0My41ICBjMC44MywwLDEuNS0wLjY3LDEuNS0xLjVWMi4yNWMwLTAuODMtMC42Ny0xLjUtMS41LTEuNUgyLjI1Yy0wLjgzLDAtMS41LDAuNjctMS41LDEuNVYzNnoiLz4mI3hhOzxnIGlkPSJzaGFwZTI4MTktNSIgdHJhbnNmb3JtPSJ0cmFuc2xhdGUoNC41LC0zMS41KSI+JiN4YTsJPHRpdGxlIGlkPSJ0aXRsZTE4MTg5NSI+cmVjdDM4MzwvdGl0bGU+JiN4YTsJPHJlY3QgaWQ9InJlY3QxODE4OTciIHg9IjAiIHk9IjQyLjc1IiBzdHlsZT0iZmlsbDojNTY2QTg5OyIgd2lkdGg9IjYuNzUiIGhlaWdodD0iNi43NSIvPiYjeGE7PC9nPiYjeGE7PGcgaWQ9InNoYXBlMjgyMC03IiB0cmFuc2Zvcm09InRyYW5zbGF0ZSgxMy41LC0zMS41KSI+JiN4YTsJPHRpdGxlIGlkPSJ0aXRsZTE4MTkwMCI+cmVjdDM4NTwvdGl0bGU+JiN4YTsJPHJlY3QgaWQ9InJlY3QxODE5MDIiIHg9IjAiIHk9IjQyLjc1IiBzdHlsZT0iZmlsbDojNTY2QTg5OyIgd2lkdGg9IjYuNzUiIGhlaWdodD0iNi43NSIvPiYjeGE7PC9nPiYjeGE7PGcgaWQ9InNoYXBlMjgyMS05IiB0cmFuc2Zvcm09InRyYW5zbGF0ZSg0LjUsLTIzLjI1KSI+JiN4YTsJPHRpdGxlIGlkPSJ0aXRsZTE4MTkwNSI+cmVjdDM4NzwvdGl0bGU+JiN4YTsJPHJlY3QgaWQ9InJlY3QxODE5MDciIHg9IjAiIHk9IjQyLjc1IiBzdHlsZT0iZmlsbDojNTY2QTg5OyIgd2lkdGg9IjYuNzUiIGhlaWdodD0iNi43NSIvPiYjeGE7PC9nPiYjeGE7PGcgaWQ9InNoYXBlMjgyMi0xMSIgdHJhbnNmb3JtPSJ0cmFuc2xhdGUoMTMuNSwtMjMuMjUpIj4mI3hhOwk8dGl0bGUgaWQ9InRpdGxlMTgxOTEwIj5yZWN0Mzg5PC90aXRsZT4mI3hhOwk8cmVjdCBpZD0icmVjdDE4MTkxMiIgeD0iMCIgeT0iNDIuNzUiIHN0eWxlPSJmaWxsOiM1NjZBODk7IiB3aWR0aD0iNi43NSIgaGVpZ2h0PSI2Ljc1Ii8+JiN4YTs8L2c+JiN4YTs8ZyBpZD0ic2hhcGUyODIzLTEzIiB0cmFuc2Zvcm09InRyYW5zbGF0ZSgyNywtMzEuNSkiPiYjeGE7CTx0aXRsZSBpZD0idGl0bGUxODE5MTUiPnJlY3QzOTE8L3RpdGxlPiYjeGE7CTxyZWN0IGlkPSJyZWN0MTgxOTE3IiB4PSIwIiB5PSI0Mi43NSIgc3R5bGU9ImZpbGw6IzAwQkNGMjsiIHdpZHRoPSI2Ljc1IiBoZWlnaHQ9IjYuNzUiLz4mI3hhOzwvZz4mI3hhOzxnIGlkPSJzaGFwZTI4MjQtMTUiIHRyYW5zZm9ybT0idHJhbnNsYXRlKDI3LC0yMy4yNSkiPiYjeGE7CTx0aXRsZSBpZD0idGl0bGUxODE5MjAiPnJlY3QzOTM8L3RpdGxlPiYjeGE7CTxyZWN0IGlkPSJyZWN0MTgxOTIyIiB4PSIwIiB5PSI0Mi43NSIgc3R5bGU9ImZpbGw6IzAwQkNGMjsiIHdpZHRoPSI2Ljc1IiBoZWlnaHQ9IjYuNzUiLz4mI3hhOzwvZz4mI3hhOzxnIGlkPSJzaGFwZTI4MjUtMTciIHRyYW5zZm9ybT0idHJhbnNsYXRlKDM2LC0yMy4yNSkiPiYjeGE7CTx0aXRsZSBpZD0idGl0bGUxODE5MjUiPnJlY3QzOTU8L3RpdGxlPiYjeGE7CTxyZWN0IGlkPSJyZWN0MTgxOTI3IiB4PSIwIiB5PSI0Mi43NSIgc3R5bGU9ImZpbGw6IzAwQkNGMjsiIHdpZHRoPSI2Ljc1IiBoZWlnaHQ9IjYuNzUiLz4mI3hhOzwvZz4mI3hhOzxnIGlkPSJzaGFwZTI4MjYtMTkiIHRyYW5zZm9ybT0idHJhbnNsYXRlKDQuNSwtMTUpIj4mI3hhOwk8dGl0bGUgaWQ9InRpdGxlMTgxOTMwIj5yZWN0Mzk3PC90aXRsZT4mI3hhOwk8cmVjdCBpZD0icmVjdDE4MTkzMiIgeD0iMCIgeT0iNDIuNzUiIHN0eWxlPSJmaWxsOiM1NjZBODk7IiB3aWR0aD0iNi43NSIgaGVpZ2h0PSI2Ljc1Ii8+JiN4YTs8L2c+JiN4YTs8ZyBpZD0ic2hhcGUyODI3LTIxIiB0cmFuc2Zvcm09InRyYW5zbGF0ZSgxMy41LC0xNSkiPiYjeGE7CTx0aXRsZSBpZD0idGl0bGUxODE5MzUiPnJlY3QzOTk8L3RpdGxlPiYjeGE7CTxyZWN0IGlkPSJyZWN0MTgxOTM3IiB4PSIwIiB5PSI0Mi43NSIgc3R5bGU9ImZpbGw6IzU2NkE4OTsiIHdpZHRoPSI2Ljc1IiBoZWlnaHQ9IjYuNzUiLz4mI3hhOzwvZz4mI3hhOzxyZWN0IGlkPSJyZWN0MTgxOTQzIiB4PSIxLjUiIHk9IjAuNzUiIHN0eWxlPSJmaWxsOiNFNUU1RTU7IiB3aWR0aD0iNDUiIGhlaWdodD0iOC4xOCIvPiYjeGE7PHBhdGggaWQ9InBhdGgxODE5NDgiIGlua3NjYXBlOmNvbm5lY3Rvci1jdXJ2YXR1cmU9IjAiIHN0eWxlPSJmaWxsOm5vbmU7c3Ryb2tlOiM1NTZBOEE7c3Ryb2tlLXdpZHRoOjEuNTtzdHJva2UtbWl0ZXJsaW1pdDozOyIgZD0iICBNMC43NSwzNmMwLDAuODMsMC42NywxLjUsMS41LDEuNWg0My41YzAuODMsMCwxLjUtMC42NywxLjUtMS41VjIuMjVjMC0wLjgzLTAuNjctMS41LTEuNS0xLjVIMi4yNWMtMC44MywwLTEuNSwwLjY3LTEuNSwxLjVWMzZ6Ii8+JiN4YTs8cGF0aCBpZD0icGF0aDE4MTk1MyIgaW5rc2NhcGU6Y29ubmVjdG9yLWN1cnZhdHVyZT0iMCIgc3R5bGU9ImZpbGw6bm9uZTtzdHJva2U6IzU1NkE4QTtzdHJva2Utd2lkdGg6MS41O3N0cm9rZS1taXRlcmxpbWl0OjM7IiBkPSIgIE0wLjc1LDguMjVINDgiLz4mI3hhOzxwYXRoIGlkPSJwYXRoMTgxOTU4IiBpbmtzY2FwZTpjb25uZWN0b3ItY3VydmF0dXJlPSIwIiBzdHlsZT0iZmlsbDpub25lO3N0cm9rZTojNTY2QTg5O3N0cm9rZS13aWR0aDoxLjU7c3Ryb2tlLW1pdGVybGltaXQ6MzsiIGQ9IiAgTTI0LDExLjI1djI0Ii8+JiN4YTs8cmVjdCBpZD0icmVjdDE4MTk2MyIgeD0iMCIgeT0iLTUuMjUiIHN0eWxlPSJmaWxsOm5vbmU7IiB3aWR0aD0iNDgiIGhlaWdodD0iNDgiLz4mI3hhOzwvc3ZnPg==;strokeColor=#000000;strokeWidth=1;gradientColor=none;fontSize=9;fontColor=#33FFFF;" parent="1" vertex="1">
          <mxGeometry x="601.5" y="380.57142857142856" width="27" height="21" as="geometry"/>
        </mxCell>
        <mxCell id="-gJ6sGOuQFcfJpE5J3B6-226" value="" style="rounded=1;whiteSpace=wrap;html=1;strokeColor=#000000;strokeWidth=1;gradientColor=none;fontSize=9;fontColor=#33FFFF;labelBackgroundColor=none;" parent="1" vertex="1">
          <mxGeometry x="599" y="235.07142857142856" width="198" height="69" as="geometry"/>
        </mxCell>
        <mxCell id="-gJ6sGOuQFcfJpE5J3B6-227" value="&lt;span style=&quot;font-size: 10px&quot;&gt;&lt;b&gt;Feature&lt;/b&gt;&lt;/span&gt;" style="rounded=1;whiteSpace=wrap;html=1;strokeColor=#36393d;strokeWidth=1;fontSize=8;fillColor=#eeeeee;labelBackgroundColor=none;" parent="1" vertex="1">
          <mxGeometry x="605.5" y="256.07142857142856" width="60" height="20" as="geometry"/>
        </mxCell>
        <mxCell id="-gJ6sGOuQFcfJpE5J3B6-228" value="&lt;span style=&quot;font-size: 10px&quot;&gt;&lt;b&gt;Feature&lt;/b&gt;&lt;/span&gt;" style="rounded=1;whiteSpace=wrap;html=1;strokeColor=#36393d;strokeWidth=1;fontSize=8;fillColor=#eeeeee;labelBackgroundColor=none;" parent="1" vertex="1">
          <mxGeometry x="667.5" y="256.07142857142856" width="60" height="20" as="geometry"/>
        </mxCell>
        <mxCell id="-gJ6sGOuQFcfJpE5J3B6-229" value="&lt;span style=&quot;font-size: 10px&quot;&gt;&lt;b&gt;Feature&lt;/b&gt;&lt;/span&gt;" style="rounded=1;whiteSpace=wrap;html=1;strokeColor=#36393d;strokeWidth=1;fontSize=8;fillColor=#eeeeee;labelBackgroundColor=none;" parent="1" vertex="1">
          <mxGeometry x="729.5" y="256.07142857142856" width="60" height="20" as="geometry"/>
        </mxCell>
        <mxCell id="-gJ6sGOuQFcfJpE5J3B6-230" value="&lt;span style=&quot;font-size: 10px&quot;&gt;&lt;b&gt;Feature&lt;/b&gt;&lt;/span&gt;" style="rounded=1;whiteSpace=wrap;html=1;strokeColor=#36393d;strokeWidth=1;fontSize=8;fillColor=#eeeeee;labelBackgroundColor=none;" parent="1" vertex="1">
          <mxGeometry x="605.5" y="278.57142857142856" width="60" height="20" as="geometry"/>
        </mxCell>
        <mxCell id="-gJ6sGOuQFcfJpE5J3B6-231" value="&lt;span style=&quot;font-size: 10px&quot;&gt;&lt;b&gt;Feature&lt;sup&gt;SRE&lt;/sup&gt;&lt;/b&gt;&lt;/span&gt;" style="rounded=1;whiteSpace=wrap;html=1;strokeColor=#36393d;strokeWidth=1;fontSize=8;fillColor=#cce5ff;labelBackgroundColor=none;" parent="1" vertex="1">
          <mxGeometry x="729.5" y="278.57142857142856" width="60" height="20" as="geometry"/>
        </mxCell>
        <mxCell id="-gJ6sGOuQFcfJpE5J3B6-233" value="" style="shape=image;verticalLabelPosition=bottom;labelBackgroundColor=none;verticalAlign=top;aspect=fixed;imageAspect=0;image=data:image/svg+xml,PHN2ZyB4bWxuczpjYz0iaHR0cDovL2NyZWF0aXZlY29tbW9ucy5vcmcvbnMjIiB4bWxuczpkYz0iaHR0cDovL3B1cmwub3JnL2RjL2VsZW1lbnRzLzEuMS8iIHhtbG5zOmlua3NjYXBlPSJodHRwOi8vd3d3Lmlua3NjYXBlLm9yZy9uYW1lc3BhY2VzL2lua3NjYXBlIiB4bWxuczpyZGY9Imh0dHA6Ly93d3cudzMub3JnLzE5OTkvMDIvMjItcmRmLXN5bnRheC1ucyMiIHhtbG5zOnNvZGlwb2RpPSJodHRwOi8vc29kaXBvZGkuc291cmNlZm9yZ2UubmV0L0RURC9zb2RpcG9kaS0wLmR0ZCIgeG1sbnM6c3ZnPSJodHRwOi8vd3d3LnczLm9yZy8yMDAwL3N2ZyIgeG1sbnM9Imh0dHA6Ly93d3cudzMub3JnLzIwMDAvc3ZnIiB4bWxuczp4bGluaz0iaHR0cDovL3d3dy53My5vcmcvMTk5OS94bGluayIgdmVyc2lvbj0iMS4xIiBpZD0ic3ZnMTgxOTY5IiBpbmtzY2FwZTp2ZXJzaW9uPSIwLjkyLjMgKDI0MDU1NDYsIDIwMTgtMDMtMTEpIiBzb2RpcG9kaTpkb2NuYW1lPSJrYW5iYW4uc3ZnIiB4PSIwcHgiIHk9IjBweCIgdmlld0JveD0iMCAwIDQ4IDM4LjI1IiBzdHlsZT0iZW5hYmxlLWJhY2tncm91bmQ6bmV3IDAgMCA0OCAzOC4yNTsiIHhtbDpzcGFjZT0icHJlc2VydmUiPiYjeGE7PHNvZGlwb2RpOm5hbWVkdmlldyBib3JkZXJjb2xvcj0iIzY2NjY2NiIgYm9yZGVyb3BhY2l0eT0iMSIgZml0LW1hcmdpbi1ib3R0b209IjAiIGZpdC1tYXJnaW4tbGVmdD0iMCIgZml0LW1hcmdpbi1yaWdodD0iMCIgZml0LW1hcmdpbi10b3A9IjAiIGdyaWR0b2xlcmFuY2U9IjEwIiBndWlkZXRvbGVyYW5jZT0iMTAiIGlkPSJuYW1lZHZpZXcxODE5NzEiIGlua3NjYXBlOmN1cnJlbnQtbGF5ZXI9InN2ZzE4MTk2OSIgaW5rc2NhcGU6Y3g9IjMyLjUwMDAxNSIgaW5rc2NhcGU6Y3k9IjI2LjAwMDAxNiIgaW5rc2NhcGU6cGFnZW9wYWNpdHk9IjAiIGlua3NjYXBlOnBhZ2VzaGFkb3c9IjIiIGlua3NjYXBlOndpbmRvdy1oZWlnaHQ9IjEwMTciIGlua3NjYXBlOndpbmRvdy1tYXhpbWl6ZWQ9IjEiIGlua3NjYXBlOndpbmRvdy13aWR0aD0iMTkyMCIgaW5rc2NhcGU6d2luZG93LXg9Ii04IiBpbmtzY2FwZTp3aW5kb3cteT0iLTgiIGlua3NjYXBlOnpvb209IjEzLjEzNjM2NCIgb2JqZWN0dG9sZXJhbmNlPSIxMCIgcGFnZWNvbG9yPSIjZmZmZmZmIiBzaG93Z3JpZD0iZmFsc2UiPiYjeGE7CTwvc29kaXBvZGk6bmFtZWR2aWV3PiYjeGE7PHBhdGggaWQ9InBhdGgxODE4OTAiIGlua3NjYXBlOmNvbm5lY3Rvci1jdXJ2YXR1cmU9IjAiIHN0eWxlPSJmaWxsOiNGRkZGRkY7IiBkPSJNMC43NSwzNmMwLDAuODMsMC42NywxLjUsMS41LDEuNWg0My41ICBjMC44MywwLDEuNS0wLjY3LDEuNS0xLjVWMi4yNWMwLTAuODMtMC42Ny0xLjUtMS41LTEuNUgyLjI1Yy0wLjgzLDAtMS41LDAuNjctMS41LDEuNVYzNnoiLz4mI3hhOzxnIGlkPSJzaGFwZTI4MTktNSIgdHJhbnNmb3JtPSJ0cmFuc2xhdGUoNC41LC0zMS41KSI+JiN4YTsJPHRpdGxlIGlkPSJ0aXRsZTE4MTg5NSI+cmVjdDM4MzwvdGl0bGU+JiN4YTsJPHJlY3QgaWQ9InJlY3QxODE4OTciIHg9IjAiIHk9IjQyLjc1IiBzdHlsZT0iZmlsbDojNTY2QTg5OyIgd2lkdGg9IjYuNzUiIGhlaWdodD0iNi43NSIvPiYjeGE7PC9nPiYjeGE7PGcgaWQ9InNoYXBlMjgyMC03IiB0cmFuc2Zvcm09InRyYW5zbGF0ZSgxMy41LC0zMS41KSI+JiN4YTsJPHRpdGxlIGlkPSJ0aXRsZTE4MTkwMCI+cmVjdDM4NTwvdGl0bGU+JiN4YTsJPHJlY3QgaWQ9InJlY3QxODE5MDIiIHg9IjAiIHk9IjQyLjc1IiBzdHlsZT0iZmlsbDojNTY2QTg5OyIgd2lkdGg9IjYuNzUiIGhlaWdodD0iNi43NSIvPiYjeGE7PC9nPiYjeGE7PGcgaWQ9InNoYXBlMjgyMS05IiB0cmFuc2Zvcm09InRyYW5zbGF0ZSg0LjUsLTIzLjI1KSI+JiN4YTsJPHRpdGxlIGlkPSJ0aXRsZTE4MTkwNSI+cmVjdDM4NzwvdGl0bGU+JiN4YTsJPHJlY3QgaWQ9InJlY3QxODE5MDciIHg9IjAiIHk9IjQyLjc1IiBzdHlsZT0iZmlsbDojNTY2QTg5OyIgd2lkdGg9IjYuNzUiIGhlaWdodD0iNi43NSIvPiYjeGE7PC9nPiYjeGE7PGcgaWQ9InNoYXBlMjgyMi0xMSIgdHJhbnNmb3JtPSJ0cmFuc2xhdGUoMTMuNSwtMjMuMjUpIj4mI3hhOwk8dGl0bGUgaWQ9InRpdGxlMTgxOTEwIj5yZWN0Mzg5PC90aXRsZT4mI3hhOwk8cmVjdCBpZD0icmVjdDE4MTkxMiIgeD0iMCIgeT0iNDIuNzUiIHN0eWxlPSJmaWxsOiM1NjZBODk7IiB3aWR0aD0iNi43NSIgaGVpZ2h0PSI2Ljc1Ii8+JiN4YTs8L2c+JiN4YTs8ZyBpZD0ic2hhcGUyODIzLTEzIiB0cmFuc2Zvcm09InRyYW5zbGF0ZSgyNywtMzEuNSkiPiYjeGE7CTx0aXRsZSBpZD0idGl0bGUxODE5MTUiPnJlY3QzOTE8L3RpdGxlPiYjeGE7CTxyZWN0IGlkPSJyZWN0MTgxOTE3IiB4PSIwIiB5PSI0Mi43NSIgc3R5bGU9ImZpbGw6IzAwQkNGMjsiIHdpZHRoPSI2Ljc1IiBoZWlnaHQ9IjYuNzUiLz4mI3hhOzwvZz4mI3hhOzxnIGlkPSJzaGFwZTI4MjQtMTUiIHRyYW5zZm9ybT0idHJhbnNsYXRlKDI3LC0yMy4yNSkiPiYjeGE7CTx0aXRsZSBpZD0idGl0bGUxODE5MjAiPnJlY3QzOTM8L3RpdGxlPiYjeGE7CTxyZWN0IGlkPSJyZWN0MTgxOTIyIiB4PSIwIiB5PSI0Mi43NSIgc3R5bGU9ImZpbGw6IzAwQkNGMjsiIHdpZHRoPSI2Ljc1IiBoZWlnaHQ9IjYuNzUiLz4mI3hhOzwvZz4mI3hhOzxnIGlkPSJzaGFwZTI4MjUtMTciIHRyYW5zZm9ybT0idHJhbnNsYXRlKDM2LC0yMy4yNSkiPiYjeGE7CTx0aXRsZSBpZD0idGl0bGUxODE5MjUiPnJlY3QzOTU8L3RpdGxlPiYjeGE7CTxyZWN0IGlkPSJyZWN0MTgxOTI3IiB4PSIwIiB5PSI0Mi43NSIgc3R5bGU9ImZpbGw6IzAwQkNGMjsiIHdpZHRoPSI2Ljc1IiBoZWlnaHQ9IjYuNzUiLz4mI3hhOzwvZz4mI3hhOzxnIGlkPSJzaGFwZTI4MjYtMTkiIHRyYW5zZm9ybT0idHJhbnNsYXRlKDQuNSwtMTUpIj4mI3hhOwk8dGl0bGUgaWQ9InRpdGxlMTgxOTMwIj5yZWN0Mzk3PC90aXRsZT4mI3hhOwk8cmVjdCBpZD0icmVjdDE4MTkzMiIgeD0iMCIgeT0iNDIuNzUiIHN0eWxlPSJmaWxsOiM1NjZBODk7IiB3aWR0aD0iNi43NSIgaGVpZ2h0PSI2Ljc1Ii8+JiN4YTs8L2c+JiN4YTs8ZyBpZD0ic2hhcGUyODI3LTIxIiB0cmFuc2Zvcm09InRyYW5zbGF0ZSgxMy41LC0xNSkiPiYjeGE7CTx0aXRsZSBpZD0idGl0bGUxODE5MzUiPnJlY3QzOTk8L3RpdGxlPiYjeGE7CTxyZWN0IGlkPSJyZWN0MTgxOTM3IiB4PSIwIiB5PSI0Mi43NSIgc3R5bGU9ImZpbGw6IzU2NkE4OTsiIHdpZHRoPSI2Ljc1IiBoZWlnaHQ9IjYuNzUiLz4mI3hhOzwvZz4mI3hhOzxyZWN0IGlkPSJyZWN0MTgxOTQzIiB4PSIxLjUiIHk9IjAuNzUiIHN0eWxlPSJmaWxsOiNFNUU1RTU7IiB3aWR0aD0iNDUiIGhlaWdodD0iOC4xOCIvPiYjeGE7PHBhdGggaWQ9InBhdGgxODE5NDgiIGlua3NjYXBlOmNvbm5lY3Rvci1jdXJ2YXR1cmU9IjAiIHN0eWxlPSJmaWxsOm5vbmU7c3Ryb2tlOiM1NTZBOEE7c3Ryb2tlLXdpZHRoOjEuNTtzdHJva2UtbWl0ZXJsaW1pdDozOyIgZD0iICBNMC43NSwzNmMwLDAuODMsMC42NywxLjUsMS41LDEuNWg0My41YzAuODMsMCwxLjUtMC42NywxLjUtMS41VjIuMjVjMC0wLjgzLTAuNjctMS41LTEuNS0xLjVIMi4yNWMtMC44MywwLTEuNSwwLjY3LTEuNSwxLjVWMzZ6Ii8+JiN4YTs8cGF0aCBpZD0icGF0aDE4MTk1MyIgaW5rc2NhcGU6Y29ubmVjdG9yLWN1cnZhdHVyZT0iMCIgc3R5bGU9ImZpbGw6bm9uZTtzdHJva2U6IzU1NkE4QTtzdHJva2Utd2lkdGg6MS41O3N0cm9rZS1taXRlcmxpbWl0OjM7IiBkPSIgIE0wLjc1LDguMjVINDgiLz4mI3hhOzxwYXRoIGlkPSJwYXRoMTgxOTU4IiBpbmtzY2FwZTpjb25uZWN0b3ItY3VydmF0dXJlPSIwIiBzdHlsZT0iZmlsbDpub25lO3N0cm9rZTojNTY2QTg5O3N0cm9rZS13aWR0aDoxLjU7c3Ryb2tlLW1pdGVybGltaXQ6MzsiIGQ9IiAgTTI0LDExLjI1djI0Ii8+JiN4YTs8cmVjdCBpZD0icmVjdDE4MTk2MyIgeD0iMCIgeT0iLTUuMjUiIHN0eWxlPSJmaWxsOm5vbmU7IiB3aWR0aD0iNDgiIGhlaWdodD0iNDgiLz4mI3hhOzwvc3ZnPg==;strokeColor=#000000;strokeWidth=1;gradientColor=none;fontSize=9;fontColor=#33FFFF;" parent="1" vertex="1">
          <mxGeometry x="589.5" y="225.57142857142856" width="27" height="21" as="geometry"/>
        </mxCell>
        <mxCell id="-gJ6sGOuQFcfJpE5J3B6-237" style="edgeStyle=none;rounded=0;orthogonalLoop=1;jettySize=auto;html=1;exitX=1;exitY=0.5;exitDx=0;exitDy=0;entryX=0.5;entryY=1;entryDx=0;entryDy=0;fontSize=9;fontColor=#33FFFF;labelBackgroundColor=none;" parent="1" source="-gJ6sGOuQFcfJpE5J3B6-134" target="-gJ6sGOuQFcfJpE5J3B6-183" edge="1">
          <mxGeometry relative="1" as="geometry"/>
        </mxCell>
        <mxCell id="-gJ6sGOuQFcfJpE5J3B6-236" style="edgeStyle=none;rounded=0;orthogonalLoop=1;jettySize=auto;html=1;exitX=1;exitY=0.5;exitDx=0;exitDy=0;entryX=0.5;entryY=1;entryDx=0;entryDy=0;fontSize=9;fontColor=#33FFFF;labelBackgroundColor=none;" parent="1" source="-gJ6sGOuQFcfJpE5J3B6-134" target="-gJ6sGOuQFcfJpE5J3B6-184" edge="1">
          <mxGeometry relative="1" as="geometry"/>
        </mxCell>
        <mxCell id="-gJ6sGOuQFcfJpE5J3B6-240" style="edgeStyle=none;rounded=0;orthogonalLoop=1;jettySize=auto;html=1;exitX=1;exitY=0.5;exitDx=0;exitDy=0;entryX=0.5;entryY=1;entryDx=0;entryDy=0;fontSize=9;fontColor=#33FFFF;labelBackgroundColor=none;" parent="1" source="-gJ6sGOuQFcfJpE5J3B6-134" target="-gJ6sGOuQFcfJpE5J3B6-231" edge="1">
          <mxGeometry relative="1" as="geometry"/>
        </mxCell>
        <mxCell id="-gJ6sGOuQFcfJpE5J3B6-241" value="&lt;span style=&quot;font-size: 10px&quot;&gt;&lt;b&gt;Feature&lt;/b&gt;&lt;/span&gt;" style="rounded=1;whiteSpace=wrap;html=1;strokeColor=#36393d;strokeWidth=1;fontSize=8;fillColor=#eeeeee;labelBackgroundColor=none;" parent="1" vertex="1">
          <mxGeometry x="394" y="424.57142857142856" width="60" height="20" as="geometry"/>
        </mxCell>
        <mxCell id="-gJ6sGOuQFcfJpE5J3B6-242" value="&lt;span style=&quot;font-size: 10px&quot;&gt;&lt;b&gt;Feature&lt;sup&gt;SRE&lt;/sup&gt;&lt;/b&gt;&lt;/span&gt;" style="rounded=1;whiteSpace=wrap;html=1;strokeColor=#36393d;strokeWidth=1;fontSize=8;fillColor=#cce5ff;labelBackgroundColor=none;" parent="1" vertex="1">
          <mxGeometry x="533.5" y="446.57142857142856" width="60" height="20" as="geometry"/>
        </mxCell>
        <mxCell id="-gJ6sGOuQFcfJpE5J3B6-243" value="&lt;span style=&quot;font-size: 10px&quot;&gt;&lt;b&gt;Feature&lt;/b&gt;&lt;/span&gt;" style="rounded=1;whiteSpace=wrap;html=1;strokeColor=#36393d;strokeWidth=1;fontSize=8;fillColor=#eeeeee;labelBackgroundColor=none;" parent="1" vertex="1">
          <mxGeometry x="464" y="425.57142857142856" width="60" height="20" as="geometry"/>
        </mxCell>
        <mxCell id="-gJ6sGOuQFcfJpE5J3B6-245" value="&lt;span style=&quot;font-size: 10px&quot;&gt;&lt;b&gt;Feature&lt;/b&gt;&lt;/span&gt;" style="rounded=1;whiteSpace=wrap;html=1;strokeColor=#36393d;strokeWidth=1;fontSize=8;fillColor=#eeeeee;labelBackgroundColor=none;" parent="1" vertex="1">
          <mxGeometry x="667.5" y="278.57142857142856" width="60" height="20" as="geometry"/>
        </mxCell>
        <mxCell id="-gJ6sGOuQFcfJpE5J3B6-246" value="&lt;span style=&quot;font-size: 10px&quot;&gt;&lt;b&gt;Feature&lt;/b&gt;&lt;/span&gt;" style="rounded=1;whiteSpace=wrap;html=1;strokeColor=#36393d;strokeWidth=1;fontSize=8;fillColor=#eeeeee;labelBackgroundColor=none;" parent="1" vertex="1">
          <mxGeometry x="679.5" y="433.57142857142856" width="60" height="20" as="geometry"/>
        </mxCell>
        <mxCell id="-gJ6sGOuQFcfJpE5J3B6-247" value="&lt;span style=&quot;font-size: 10px&quot;&gt;&lt;b&gt;Feature&lt;/b&gt;&lt;/span&gt;" style="rounded=1;whiteSpace=wrap;html=1;strokeColor=#36393d;strokeWidth=1;fontSize=8;fillColor=#eeeeee;labelBackgroundColor=none;" parent="1" vertex="1">
          <mxGeometry x="741.5" y="433.57142857142856" width="60" height="20" as="geometry"/>
        </mxCell>
        <mxCell id="-gJ6sGOuQFcfJpE5J3B6-249" value="" style="shape=trapezoid;perimeter=trapezoidPerimeter;whiteSpace=wrap;html=1;strokeColor=none;strokeWidth=1;fontSize=9;fillColor=#cce5ff;labelBackgroundColor=none;" parent="1" vertex="1">
          <mxGeometry x="68.5" y="422.5" width="60" height="26" as="geometry"/>
        </mxCell>
        <mxCell id="-gJ6sGOuQFcfJpE5J3B6-250" value="" style="shape=trapezoid;perimeter=trapezoidPerimeter;whiteSpace=wrap;html=1;strokeColor=none;strokeWidth=1;fontSize=9;fillColor=#cce5ff;labelBackgroundColor=none;" parent="1" vertex="1">
          <mxGeometry x="149.5" y="422.5" width="60" height="27" as="geometry"/>
        </mxCell>
        <mxCell id="-gJ6sGOuQFcfJpE5J3B6-257" value="&lt;font style=&quot;font-size: 12px;&quot;&gt;SRE Backlog&lt;/font&gt;" style="text;strokeColor=none;fillColor=none;html=1;fontSize=12;fontStyle=1;verticalAlign=middle;align=center;labelBackgroundColor=none;" parent="1" vertex="1">
          <mxGeometry x="257.5" y="367" width="86" height="20" as="geometry"/>
        </mxCell>
        <mxCell id="-gJ6sGOuQFcfJpE5J3B6-258" value="&lt;font style=&quot;font-size: 9px&quot;&gt;Feature team SRE Backlog&lt;/font&gt;" style="text;strokeColor=none;fillColor=none;html=1;fontSize=9;fontStyle=1;verticalAlign=middle;align=center;whiteSpace=wrap;labelBackgroundColor=none;" parent="1" vertex="1">
          <mxGeometry x="415" y="342.5" width="73" height="18" as="geometry"/>
        </mxCell>
        <mxCell id="-gJ6sGOuQFcfJpE5J3B6-265" value="&lt;font style=&quot;font-size: 9px&quot;&gt;Team 1&lt;/font&gt;" style="text;strokeColor=none;fillColor=none;html=1;fontSize=9;fontStyle=1;verticalAlign=middle;align=left;labelBackgroundColor=none;" parent="1" vertex="1">
          <mxGeometry x="404" y="233.5" width="86" height="20" as="geometry"/>
        </mxCell>
        <mxCell id="-gJ6sGOuQFcfJpE5J3B6-267" value="&lt;font style=&quot;font-size: 9px&quot;&gt;Team 2&lt;/font&gt;" style="text;strokeColor=none;fillColor=none;html=1;fontSize=9;fontStyle=1;verticalAlign=middle;align=left;labelBackgroundColor=none;" parent="1" vertex="1">
          <mxGeometry x="619" y="232.5" width="86" height="20" as="geometry"/>
        </mxCell>
        <mxCell id="-gJ6sGOuQFcfJpE5J3B6-273" value="&lt;font style=&quot;font-size: 9px&quot;&gt;Team 4&lt;/font&gt;" style="text;strokeColor=none;fillColor=none;html=1;fontSize=9;fontStyle=1;verticalAlign=middle;align=left;labelBackgroundColor=none;" parent="1" vertex="1">
          <mxGeometry x="634.5" y="388.5" width="86" height="20" as="geometry"/>
        </mxCell>
        <mxCell id="-gJ6sGOuQFcfJpE5J3B6-272" value="&lt;font style=&quot;font-size: 9px&quot;&gt;Team 3&lt;/font&gt;" style="text;strokeColor=none;fillColor=none;html=1;fontSize=9;fontStyle=1;verticalAlign=middle;align=left;labelBackgroundColor=none;" parent="1" vertex="1">
          <mxGeometry x="408" y="382.5" width="86" height="20" as="geometry"/>
        </mxCell>
        <mxCell id="-gJ6sGOuQFcfJpE5J3B6-275" value="" style="rounded=1;whiteSpace=wrap;html=1;labelBackgroundColor=none;strokeColor=#000000;strokeWidth=1;fillColor=none;gradientColor=none;fontSize=9;fontColor=#33FFFF;" parent="1" vertex="1">
          <mxGeometry x="359" y="203" width="468" height="291" as="geometry"/>
        </mxCell>
        <mxCell id="-gJ6sGOuQFcfJpE5J3B6-276" value="&lt;font style=&quot;font-size: 12px;&quot;&gt;Feature team SRE Backlog&lt;/font&gt;" style="text;strokeColor=none;fillColor=none;html=1;fontSize=12;fontStyle=1;verticalAlign=middle;align=center;whiteSpace=wrap;labelBackgroundColor=none;" parent="1" vertex="1">
          <mxGeometry x="500.5" y="205.5" width="190" height="18" as="geometry"/>
        </mxCell>
      </root>
    </mxGraphModel>
  </diagram>
  <diagram id="1MaSO9R81K0iVdiLHAvl" name="Pod Stracture">
    <mxGraphModel dx="730" dy="363" grid="1" gridSize="10" guides="1" tooltips="1" connect="1" arrows="1" fold="1" page="1" pageScale="1" pageWidth="850" pageHeight="1100" math="0" shadow="0">
      <root>
        <mxCell id="apEBoxvXm4Qr4Qo5Z26V-0"/>
        <mxCell id="apEBoxvXm4Qr4Qo5Z26V-1" parent="apEBoxvXm4Qr4Qo5Z26V-0"/>
        <mxCell id="z1Wk1lGyib5_o5GwhH48-21" value="" style="rounded=0;whiteSpace=wrap;html=1;strokeColor=#000000;fillColor=#ffffff;fontColor=#000000;dashed=1;" vertex="1" parent="apEBoxvXm4Qr4Qo5Z26V-1">
          <mxGeometry x="356" y="112" width="344" height="386" as="geometry"/>
        </mxCell>
        <mxCell id="GfX2tnJlF5C678m-gZgc-0" value="" style="rounded=1;whiteSpace=wrap;html=1;strokeColor=#000000;strokeWidth=1;gradientColor=none;fontSize=9;fontColor=#33FFFF;" vertex="1" parent="apEBoxvXm4Qr4Qo5Z26V-1">
          <mxGeometry x="251" y="366.5" width="99" height="125" as="geometry"/>
        </mxCell>
        <mxCell id="GfX2tnJlF5C678m-gZgc-1" value="" style="verticalLabelPosition=bottom;verticalAlign=top;html=1;shape=mxgraph.basic.rect;fillColor=#b1ddf0;fillColor2=none;strokeColor=#10739e;strokeWidth=1;size=20;indent=5;" vertex="1" parent="apEBoxvXm4Qr4Qo5Z26V-1">
          <mxGeometry x="46.5" y="212.5" width="190" height="280" as="geometry"/>
        </mxCell>
        <mxCell id="GfX2tnJlF5C678m-gZgc-2" value="" style="verticalLabelPosition=bottom;verticalAlign=top;html=1;shape=mxgraph.basic.rect;fillColor=#b0e3e6;fillColor2=none;strokeColor=#0e8088;strokeWidth=1;size=20;indent=5;dashed=1;labelBackgroundColor=none;" vertex="1" parent="apEBoxvXm4Qr4Qo5Z26V-1">
          <mxGeometry x="56.5" y="292.5" width="170" height="130" as="geometry"/>
        </mxCell>
        <mxCell id="GfX2tnJlF5C678m-gZgc-3" value="" style="verticalLabelPosition=bottom;verticalAlign=top;html=1;shape=mxgraph.basic.rect;fillColor=#b0e3e6;fillColor2=none;strokeColor=#0e8088;strokeWidth=1;size=20;indent=5;dashed=1;labelBackgroundColor=none;" vertex="1" parent="apEBoxvXm4Qr4Qo5Z26V-1">
          <mxGeometry x="56.5" y="222.5" width="170" height="70" as="geometry"/>
        </mxCell>
        <mxCell id="GfX2tnJlF5C678m-gZgc-4" value="" style="shape=image;html=1;verticalAlign=top;verticalLabelPosition=bottom;labelBackgroundColor=none;imageAspect=0;aspect=fixed;image=https://cdn2.iconfinder.com/data/icons/25-free-ui-icons/40/user-128.png;imageBackground=none;" vertex="1" parent="apEBoxvXm4Qr4Qo5Z26V-1">
          <mxGeometry x="66.5" y="319.5" width="30" height="30" as="geometry"/>
        </mxCell>
        <mxCell id="GfX2tnJlF5C678m-gZgc-5" value="" style="shape=image;html=1;verticalAlign=top;verticalLabelPosition=bottom;labelBackgroundColor=none;imageAspect=0;aspect=fixed;image=https://cdn2.iconfinder.com/data/icons/25-free-ui-icons/40/user-128.png;imageBackground=none;" vertex="1" parent="apEBoxvXm4Qr4Qo5Z26V-1">
          <mxGeometry x="106.5" y="319.5" width="30" height="30" as="geometry"/>
        </mxCell>
        <mxCell id="GfX2tnJlF5C678m-gZgc-6" value="" style="shape=image;html=1;verticalAlign=top;verticalLabelPosition=bottom;labelBackgroundColor=none;imageAspect=0;aspect=fixed;image=https://cdn2.iconfinder.com/data/icons/25-free-ui-icons/40/user-128.png;imageBackground=none;" vertex="1" parent="apEBoxvXm4Qr4Qo5Z26V-1">
          <mxGeometry x="146.5" y="319.5" width="30" height="30" as="geometry"/>
        </mxCell>
        <mxCell id="GfX2tnJlF5C678m-gZgc-7" value="" style="shape=image;html=1;verticalAlign=top;verticalLabelPosition=bottom;labelBackgroundColor=none;imageAspect=0;aspect=fixed;image=https://cdn2.iconfinder.com/data/icons/25-free-ui-icons/40/user-128.png;imageBackground=none;" vertex="1" parent="apEBoxvXm4Qr4Qo5Z26V-1">
          <mxGeometry x="186.5" y="319.5" width="30" height="30" as="geometry"/>
        </mxCell>
        <mxCell id="GfX2tnJlF5C678m-gZgc-8" value="" style="shape=image;html=1;verticalAlign=top;verticalLabelPosition=bottom;labelBackgroundColor=none;imageAspect=0;aspect=fixed;image=https://cdn2.iconfinder.com/data/icons/25-free-ui-icons/40/user-128.png;imageBackground=none;" vertex="1" parent="apEBoxvXm4Qr4Qo5Z26V-1">
          <mxGeometry x="65.5" y="354.5" width="30" height="30" as="geometry"/>
        </mxCell>
        <mxCell id="GfX2tnJlF5C678m-gZgc-9" value="" style="shape=image;html=1;verticalAlign=top;verticalLabelPosition=bottom;labelBackgroundColor=none;imageAspect=0;aspect=fixed;image=https://cdn2.iconfinder.com/data/icons/25-free-ui-icons/40/user-128.png;imageBackground=none;" vertex="1" parent="apEBoxvXm4Qr4Qo5Z26V-1">
          <mxGeometry x="105.5" y="354.5" width="30" height="30" as="geometry"/>
        </mxCell>
        <mxCell id="GfX2tnJlF5C678m-gZgc-10" value="" style="shape=image;html=1;verticalAlign=top;verticalLabelPosition=bottom;labelBackgroundColor=none;imageAspect=0;aspect=fixed;image=https://cdn2.iconfinder.com/data/icons/25-free-ui-icons/40/user-128.png;imageBackground=none;" vertex="1" parent="apEBoxvXm4Qr4Qo5Z26V-1">
          <mxGeometry x="145.5" y="354.5" width="30" height="30" as="geometry"/>
        </mxCell>
        <mxCell id="GfX2tnJlF5C678m-gZgc-11" value="" style="shape=image;html=1;verticalAlign=top;verticalLabelPosition=bottom;labelBackgroundColor=none;imageAspect=0;aspect=fixed;image=https://cdn2.iconfinder.com/data/icons/25-free-ui-icons/40/user-128.png;imageBackground=none;" vertex="1" parent="apEBoxvXm4Qr4Qo5Z26V-1">
          <mxGeometry x="185.5" y="354.5" width="30" height="30" as="geometry"/>
        </mxCell>
        <mxCell id="GfX2tnJlF5C678m-gZgc-12" value="" style="shape=image;html=1;verticalAlign=top;verticalLabelPosition=bottom;labelBackgroundColor=none;imageAspect=0;aspect=fixed;image=https://cdn2.iconfinder.com/data/icons/25-free-ui-icons/40/user-128.png;imageBackground=none;" vertex="1" parent="apEBoxvXm4Qr4Qo5Z26V-1">
          <mxGeometry x="67.5" y="387.5" width="30" height="30" as="geometry"/>
        </mxCell>
        <mxCell id="GfX2tnJlF5C678m-gZgc-13" value="" style="shape=image;html=1;verticalAlign=top;verticalLabelPosition=bottom;labelBackgroundColor=none;imageAspect=0;aspect=fixed;image=https://cdn2.iconfinder.com/data/icons/25-free-ui-icons/40/user-128.png;imageBackground=none;" vertex="1" parent="apEBoxvXm4Qr4Qo5Z26V-1">
          <mxGeometry x="107.5" y="387.5" width="30" height="30" as="geometry"/>
        </mxCell>
        <mxCell id="GfX2tnJlF5C678m-gZgc-14" value="" style="shape=image;html=1;verticalAlign=top;verticalLabelPosition=bottom;labelBackgroundColor=none;imageAspect=0;aspect=fixed;image=https://cdn2.iconfinder.com/data/icons/25-free-ui-icons/40/user-128.png;imageBackground=none;" vertex="1" parent="apEBoxvXm4Qr4Qo5Z26V-1">
          <mxGeometry x="147.5" y="387.5" width="30" height="30" as="geometry"/>
        </mxCell>
        <mxCell id="GfX2tnJlF5C678m-gZgc-15" value="" style="shape=image;html=1;verticalAlign=top;verticalLabelPosition=bottom;labelBackgroundColor=none;imageAspect=0;aspect=fixed;image=https://cdn2.iconfinder.com/data/icons/25-free-ui-icons/40/user-128.png;imageBackground=none;" vertex="1" parent="apEBoxvXm4Qr4Qo5Z26V-1">
          <mxGeometry x="187.5" y="387.5" width="30" height="30" as="geometry"/>
        </mxCell>
        <mxCell id="GfX2tnJlF5C678m-gZgc-16" value="" style="shape=image;verticalLabelPosition=bottom;labelBackgroundColor=none;verticalAlign=top;aspect=fixed;imageAspect=0;image=data:image/svg+xml,PHN2ZyB4bWxuczpjYz0iaHR0cDovL2NyZWF0aXZlY29tbW9ucy5vcmcvbnMjIiB4bWxuczpkYz0iaHR0cDovL3B1cmwub3JnL2RjL2VsZW1lbnRzLzEuMS8iIHhtbG5zOmlua3NjYXBlPSJodHRwOi8vd3d3Lmlua3NjYXBlLm9yZy9uYW1lc3BhY2VzL2lua3NjYXBlIiB4bWxuczpyZGY9Imh0dHA6Ly93d3cudzMub3JnLzE5OTkvMDIvMjItcmRmLXN5bnRheC1ucyMiIHhtbG5zOnNvZGlwb2RpPSJodHRwOi8vc29kaXBvZGkuc291cmNlZm9yZ2UubmV0L0RURC9zb2RpcG9kaS0wLmR0ZCIgeG1sbnM6c3ZnPSJodHRwOi8vd3d3LnczLm9yZy8yMDAwL3N2ZyIgeG1sbnM9Imh0dHA6Ly93d3cudzMub3JnLzIwMDAvc3ZnIiB4bWxuczp4bGluaz0iaHR0cDovL3d3dy53My5vcmcvMTk5OS94bGluayIgdmVyc2lvbj0iMS4xIiBpZD0ic3ZnMTA4MDUyIiBpbmtzY2FwZTp2ZXJzaW9uPSIwLjkyLjMgKDI0MDU1NDYsIDIwMTgtMDMtMTEpIiBzb2RpcG9kaTpkb2NuYW1lPSJ0ZWFtLnN2ZyIgeD0iMHB4IiB5PSIwcHgiIHZpZXdCb3g9IjAgMCA0OS41IDQ5LjUiIHN0eWxlPSJlbmFibGUtYmFja2dyb3VuZDpuZXcgMCAwIDQ5LjUgNDkuNTsiIHhtbDpzcGFjZT0icHJlc2VydmUiPiYjeGE7PHNvZGlwb2RpOm5hbWVkdmlldyBib3JkZXJjb2xvcj0iIzY2NjY2NiIgYm9yZGVyb3BhY2l0eT0iMSIgZml0LW1hcmdpbi1ib3R0b209IjAiIGZpdC1tYXJnaW4tbGVmdD0iMCIgZml0LW1hcmdpbi1yaWdodD0iMCIgZml0LW1hcmdpbi10b3A9IjAiIGdyaWR0b2xlcmFuY2U9IjEwIiBndWlkZXRvbGVyYW5jZT0iMTAiIGlkPSJuYW1lZHZpZXcxMDgwNTQiIGlua3NjYXBlOmN1cnJlbnQtbGF5ZXI9InN2ZzEwODA1MiIgaW5rc2NhcGU6Y3g9IjMyLjk5OTk4NSIgaW5rc2NhcGU6Y3k9IjMyLjk5OTk4NSIgaW5rc2NhcGU6cGFnZW9wYWNpdHk9IjAiIGlua3NjYXBlOnBhZ2VzaGFkb3c9IjIiIGlua3NjYXBlOndpbmRvdy1oZWlnaHQ9IjEwMTciIGlua3NjYXBlOndpbmRvdy1tYXhpbWl6ZWQ9IjEiIGlua3NjYXBlOndpbmRvdy13aWR0aD0iMTkyMCIgaW5rc2NhcGU6d2luZG93LXg9Ii04IiBpbmtzY2FwZTp3aW5kb3cteT0iLTgiIGlua3NjYXBlOnpvb209IjEyLjc1MDAwNiIgb2JqZWN0dG9sZXJhbmNlPSIxMCIgcGFnZWNvbG9yPSIjZmZmZmZmIiBzaG93Z3JpZD0iZmFsc2UiPiYjeGE7CTwvc29kaXBvZGk6bmFtZWR2aWV3PiYjeGE7PGcgaWQ9ImcxMDgwNTAiIHRyYW5zZm9ybT0idHJhbnNsYXRlKC0wLjc1LC0wLjc1KSI+JiN4YTsJPHRpdGxlIGlkPSJ0aXRsZTEwNzk5MiI+UGFnZS0xPC90aXRsZT4mI3hhOwk8ZyBpZD0iZ3JvdXA1MDIyLTEiIHRyYW5zZm9ybT0idHJhbnNsYXRlKDEuNSwtMS41KSI+JiN4YTsJCTx0aXRsZSBpZD0idGl0bGUxMDc5OTQiPlRlYW08L3RpdGxlPiYjeGE7CQk8ZyBpZD0ic2hhcGU1MDIzLTIiPiYjeGE7CQkJPHRpdGxlIGlkPSJ0aXRsZTEwNzk5NiI+Y2lyY2xlNjUyNjwvdGl0bGU+JiN4YTsJCQk8Y2lyY2xlIGlkPSJlbGxpcHNlMTA3OTk4IiBzdHlsZT0iZmlsbDojRkZGRkZGO3N0cm9rZTojNTU2QThBO3N0cm9rZS13aWR0aDoxLjU7c3Ryb2tlLW1pdGVybGltaXQ6MzsiIGN4PSIyNCIgY3k9IjI3IiByPSIyNCIvPiYjeGE7CQk8L2c+JiN4YTsJCTxnIGlkPSJncm91cDUwMjQtNCIgdHJhbnNmb3JtPSJ0cmFuc2xhdGUoNS44MTI1LC04LjI1KSI+JiN4YTsJCQk8dGl0bGUgaWQ9InRpdGxlMTA4MDAxIj5nNjU0NjwvdGl0bGU+JiN4YTsJCQk8ZyBpZD0iZ3JvdXA1MDI1LTUiIHRyYW5zZm9ybT0idHJhbnNsYXRlKDAsLTEwLjUpIj4mI3hhOwkJCQk8dGl0bGUgaWQ9InRpdGxlMTA4MDAzIj5nNjUzMjwvdGl0bGU+JiN4YTsJCQkJPGcgaWQ9InNoYXBlNTAyNi02IiB0cmFuc2Zvcm09InRyYW5zbGF0ZSgzLC04LjI1KSI+JiN4YTsJCQkJCTx0aXRsZSBpZD0idGl0bGUxMDgwMDUiPmNpcmNsZTY1Mjg8L3RpdGxlPiYjeGE7CQkJCQkmI3hhOwkJCQkJCTxjaXJjbGUgaWQ9ImVsbGlwc2UxMDgwMDciIHN0eWxlPSJmaWxsOiNFNkU3RTg7c3Ryb2tlOiM1NTZBOEE7c3Ryb2tlLXdpZHRoOjEuNTtzdHJva2UtbWl0ZXJsaW1pdDozOyIgY3g9IjUuNjMiIGN5PSI0NS4zOCIgcj0iNS42MyIvPiYjeGE7CQkJCTwvZz4mI3hhOwkJCQk8ZyBpZD0ic2hhcGU1MDI3LTgiPiYjeGE7CQkJCQk8dGl0bGUgaWQ9InRpdGxlMTA4MDEwIj5wYXRoNjUzMDwvdGl0bGU+JiN4YTsJCQkJCTxwYXRoIGlkPSJwYXRoMTA4MDEyIiBpbmtzY2FwZTpjb25uZWN0b3ItY3VydmF0dXJlPSIwIiBzdHlsZT0iZmlsbDojRTZFN0U4OyIgZD0iTTAsNTFjMC4yLTQuNzYsNC4yMi04LjQ2LDguOTgtOC4yNyAgICAgICBjNC40OCwwLjE5LDguMDgsMy43OCw4LjI3LDguMjdIMHoiLz4mI3hhOwkJCQkJJiN4YTsJCQkJCQk8cGF0aCBpZD0icGF0aDEwODAxNCIgaW5rc2NhcGU6Y29ubmVjdG9yLWN1cnZhdHVyZT0iMCIgc3R5bGU9ImZpbGw6bm9uZTtzdHJva2U6IzU1NkE4QTtzdHJva2Utd2lkdGg6MS41O3N0cm9rZS1taXRlcmxpbWl0OjM7IiBkPSIgICAgICAgTTAsNTFjMC4yLTQuNzYsNC4yMi04LjQ2LDguOTgtOC4yN2M0LjQ4LDAuMTksOC4wOCwzLjc4LDguMjcsOC4yNyIvPiYjeGE7CQkJCTwvZz4mI3hhOwkJCTwvZz4mI3hhOwkJCTxnIGlkPSJncm91cDUwMjgtMTEiIHRyYW5zZm9ybT0idHJhbnNsYXRlKDE5LjEyNSwtMTAuNSkiPiYjeGE7CQkJCTx0aXRsZSBpZD0idGl0bGUxMDgwMTgiPmc2NTM4PC90aXRsZT4mI3hhOwkJCQk8ZyBpZD0ic2hhcGU1MDI5LTEyIiB0cmFuc2Zvcm09InRyYW5zbGF0ZSgzLC04LjI1KSI+JiN4YTsJCQkJCTx0aXRsZSBpZD0idGl0bGUxMDgwMjAiPmNpcmNsZTY1MzQ8L3RpdGxlPiYjeGE7CQkJCQkmI3hhOwkJCQkJCTxjaXJjbGUgaWQ9ImVsbGlwc2UxMDgwMjIiIHN0eWxlPSJmaWxsOiNFNkU3RTg7c3Ryb2tlOiM1NTZBOEE7c3Ryb2tlLXdpZHRoOjEuNTtzdHJva2UtbWl0ZXJsaW1pdDozOyIgY3g9IjUuNjMiIGN5PSI0NS4zOCIgcj0iNS42MyIvPiYjeGE7CQkJCTwvZz4mI3hhOwkJCQk8ZyBpZD0ic2hhcGU1MDMwLTE0Ij4mI3hhOwkJCQkJPHRpdGxlIGlkPSJ0aXRsZTEwODAyNSI+cGF0aDY1MzY8L3RpdGxlPiYjeGE7CQkJCQk8cGF0aCBpZD0icGF0aDEwODAyNyIgaW5rc2NhcGU6Y29ubmVjdG9yLWN1cnZhdHVyZT0iMCIgc3R5bGU9ImZpbGw6I0U2RTdFODsiIGQ9Ik0wLDUxYzAuMi00Ljc2LDQuMjItOC40Niw4Ljk4LTguMjcgICAgICAgYzQuNDgsMC4xOSw4LjA4LDMuNzgsOC4yNyw4LjI3SDB6Ii8+JiN4YTsJCQkJCSYjeGE7CQkJCQkJPHBhdGggaWQ9InBhdGgxMDgwMjkiIGlua3NjYXBlOmNvbm5lY3Rvci1jdXJ2YXR1cmU9IjAiIHN0eWxlPSJmaWxsOm5vbmU7c3Ryb2tlOiM1NTZBOEE7c3Ryb2tlLXdpZHRoOjEuNTtzdHJva2UtbWl0ZXJsaW1pdDozOyIgZD0iICAgICAgIE0wLDUxYzAuMi00Ljc2LDQuMjItOC40Niw4Ljk4LTguMjdjNC40OCwwLjE5LDguMDgsMy43OCw4LjI3LDguMjciLz4mI3hhOwkJCQk8L2c+JiN4YTsJCQk8L2c+JiN4YTsJCQk8ZyBpZD0iZ3JvdXA1MDMxLTE3IiB0cmFuc2Zvcm09InRyYW5zbGF0ZSg5KSI+JiN4YTsJCQkJPHRpdGxlIGlkPSJ0aXRsZTEwODAzMyI+ZzY1NDQ8L3RpdGxlPiYjeGE7CQkJCTxnIGlkPSJzaGFwZTUwMzItMTgiIHRyYW5zZm9ybT0idHJhbnNsYXRlKDMsLTguMjUpIj4mI3hhOwkJCQkJPHRpdGxlIGlkPSJ0aXRsZTEwODAzNSI+Y2lyY2xlNjU0MDwvdGl0bGU+JiN4YTsJCQkJCSYjeGE7CQkJCQkJPGNpcmNsZSBpZD0iZWxsaXBzZTEwODAzNyIgc3R5bGU9ImZpbGw6I0FBRTlGQjtzdHJva2U6IzU1NkE4QTtzdHJva2Utd2lkdGg6MS41O3N0cm9rZS1taXRlcmxpbWl0OjM7IiBjeD0iNS42MyIgY3k9IjQ1LjM4IiByPSI1LjYzIi8+JiN4YTsJCQkJPC9nPiYjeGE7CQkJCTxnIGlkPSJzaGFwZTUwMzMtMjAiPiYjeGE7CQkJCQk8dGl0bGUgaWQ9InRpdGxlMTA4MDQwIj5wYXRoNjU0MjwvdGl0bGU+JiN4YTsJCQkJCTxwYXRoIGlkPSJwYXRoMTA4MDQyIiBpbmtzY2FwZTpjb25uZWN0b3ItY3VydmF0dXJlPSIwIiBzdHlsZT0iZmlsbDojQUFFOUZCOyIgZD0iTTAsNTFjMC4yLTQuNzYsNC4yMi04LjQ2LDguOTgtOC4yNyAgICAgICBjNC40OCwwLjE5LDguMDgsMy43OCw4LjI3LDguMjdIMHoiLz4mI3hhOwkJCQkJJiN4YTsJCQkJCQk8cGF0aCBpZD0icGF0aDEwODA0NCIgaW5rc2NhcGU6Y29ubmVjdG9yLWN1cnZhdHVyZT0iMCIgc3R5bGU9ImZpbGw6bm9uZTtzdHJva2U6IzU1NkE4QTtzdHJva2Utd2lkdGg6MS41O3N0cm9rZS1taXRlcmxpbWl0OjM7IiBkPSIgICAgICAgTTAsNTFjMC4yLTQuNzYsNC4yMi04LjQ2LDguOTgtOC4yN2M0LjQ4LDAuMTksOC4wOCwzLjc4LDguMjcsOC4yNyIvPiYjeGE7CQkJCTwvZz4mI3hhOwkJCTwvZz4mI3hhOwkJPC9nPiYjeGE7CTwvZz4mI3hhOzwvZz4mI3hhOzwvc3ZnPg==;" vertex="1" parent="apEBoxvXm4Qr4Qo5Z26V-1">
          <mxGeometry x="65.5" y="247.5" width="30" height="30" as="geometry"/>
        </mxCell>
        <mxCell id="GfX2tnJlF5C678m-gZgc-17" value="" style="shape=image;verticalLabelPosition=bottom;labelBackgroundColor=none;verticalAlign=top;aspect=fixed;imageAspect=0;image=data:image/svg+xml,PHN2ZyB4bWxuczpjYz0iaHR0cDovL2NyZWF0aXZlY29tbW9ucy5vcmcvbnMjIiB4bWxuczpkYz0iaHR0cDovL3B1cmwub3JnL2RjL2VsZW1lbnRzLzEuMS8iIHhtbG5zOmlua3NjYXBlPSJodHRwOi8vd3d3Lmlua3NjYXBlLm9yZy9uYW1lc3BhY2VzL2lua3NjYXBlIiB4bWxuczpyZGY9Imh0dHA6Ly93d3cudzMub3JnLzE5OTkvMDIvMjItcmRmLXN5bnRheC1ucyMiIHhtbG5zOnNvZGlwb2RpPSJodHRwOi8vc29kaXBvZGkuc291cmNlZm9yZ2UubmV0L0RURC9zb2RpcG9kaS0wLmR0ZCIgeG1sbnM6c3ZnPSJodHRwOi8vd3d3LnczLm9yZy8yMDAwL3N2ZyIgeG1sbnM9Imh0dHA6Ly93d3cudzMub3JnLzIwMDAvc3ZnIiB4bWxuczp4bGluaz0iaHR0cDovL3d3dy53My5vcmcvMTk5OS94bGluayIgdmVyc2lvbj0iMS4xIiBpZD0ic3ZnMTA4MDUyIiBpbmtzY2FwZTp2ZXJzaW9uPSIwLjkyLjMgKDI0MDU1NDYsIDIwMTgtMDMtMTEpIiBzb2RpcG9kaTpkb2NuYW1lPSJ0ZWFtLnN2ZyIgeD0iMHB4IiB5PSIwcHgiIHZpZXdCb3g9IjAgMCA0OS41IDQ5LjUiIHN0eWxlPSJlbmFibGUtYmFja2dyb3VuZDpuZXcgMCAwIDQ5LjUgNDkuNTsiIHhtbDpzcGFjZT0icHJlc2VydmUiPiYjeGE7PHNvZGlwb2RpOm5hbWVkdmlldyBib3JkZXJjb2xvcj0iIzY2NjY2NiIgYm9yZGVyb3BhY2l0eT0iMSIgZml0LW1hcmdpbi1ib3R0b209IjAiIGZpdC1tYXJnaW4tbGVmdD0iMCIgZml0LW1hcmdpbi1yaWdodD0iMCIgZml0LW1hcmdpbi10b3A9IjAiIGdyaWR0b2xlcmFuY2U9IjEwIiBndWlkZXRvbGVyYW5jZT0iMTAiIGlkPSJuYW1lZHZpZXcxMDgwNTQiIGlua3NjYXBlOmN1cnJlbnQtbGF5ZXI9InN2ZzEwODA1MiIgaW5rc2NhcGU6Y3g9IjMyLjk5OTk4NSIgaW5rc2NhcGU6Y3k9IjMyLjk5OTk4NSIgaW5rc2NhcGU6cGFnZW9wYWNpdHk9IjAiIGlua3NjYXBlOnBhZ2VzaGFkb3c9IjIiIGlua3NjYXBlOndpbmRvdy1oZWlnaHQ9IjEwMTciIGlua3NjYXBlOndpbmRvdy1tYXhpbWl6ZWQ9IjEiIGlua3NjYXBlOndpbmRvdy13aWR0aD0iMTkyMCIgaW5rc2NhcGU6d2luZG93LXg9Ii04IiBpbmtzY2FwZTp3aW5kb3cteT0iLTgiIGlua3NjYXBlOnpvb209IjEyLjc1MDAwNiIgb2JqZWN0dG9sZXJhbmNlPSIxMCIgcGFnZWNvbG9yPSIjZmZmZmZmIiBzaG93Z3JpZD0iZmFsc2UiPiYjeGE7CTwvc29kaXBvZGk6bmFtZWR2aWV3PiYjeGE7PGcgaWQ9ImcxMDgwNTAiIHRyYW5zZm9ybT0idHJhbnNsYXRlKC0wLjc1LC0wLjc1KSI+JiN4YTsJPHRpdGxlIGlkPSJ0aXRsZTEwNzk5MiI+UGFnZS0xPC90aXRsZT4mI3hhOwk8ZyBpZD0iZ3JvdXA1MDIyLTEiIHRyYW5zZm9ybT0idHJhbnNsYXRlKDEuNSwtMS41KSI+JiN4YTsJCTx0aXRsZSBpZD0idGl0bGUxMDc5OTQiPlRlYW08L3RpdGxlPiYjeGE7CQk8ZyBpZD0ic2hhcGU1MDIzLTIiPiYjeGE7CQkJPHRpdGxlIGlkPSJ0aXRsZTEwNzk5NiI+Y2lyY2xlNjUyNjwvdGl0bGU+JiN4YTsJCQk8Y2lyY2xlIGlkPSJlbGxpcHNlMTA3OTk4IiBzdHlsZT0iZmlsbDojRkZGRkZGO3N0cm9rZTojNTU2QThBO3N0cm9rZS13aWR0aDoxLjU7c3Ryb2tlLW1pdGVybGltaXQ6MzsiIGN4PSIyNCIgY3k9IjI3IiByPSIyNCIvPiYjeGE7CQk8L2c+JiN4YTsJCTxnIGlkPSJncm91cDUwMjQtNCIgdHJhbnNmb3JtPSJ0cmFuc2xhdGUoNS44MTI1LC04LjI1KSI+JiN4YTsJCQk8dGl0bGUgaWQ9InRpdGxlMTA4MDAxIj5nNjU0NjwvdGl0bGU+JiN4YTsJCQk8ZyBpZD0iZ3JvdXA1MDI1LTUiIHRyYW5zZm9ybT0idHJhbnNsYXRlKDAsLTEwLjUpIj4mI3hhOwkJCQk8dGl0bGUgaWQ9InRpdGxlMTA4MDAzIj5nNjUzMjwvdGl0bGU+JiN4YTsJCQkJPGcgaWQ9InNoYXBlNTAyNi02IiB0cmFuc2Zvcm09InRyYW5zbGF0ZSgzLC04LjI1KSI+JiN4YTsJCQkJCTx0aXRsZSBpZD0idGl0bGUxMDgwMDUiPmNpcmNsZTY1Mjg8L3RpdGxlPiYjeGE7CQkJCQkmI3hhOwkJCQkJCTxjaXJjbGUgaWQ9ImVsbGlwc2UxMDgwMDciIHN0eWxlPSJmaWxsOiNFNkU3RTg7c3Ryb2tlOiM1NTZBOEE7c3Ryb2tlLXdpZHRoOjEuNTtzdHJva2UtbWl0ZXJsaW1pdDozOyIgY3g9IjUuNjMiIGN5PSI0NS4zOCIgcj0iNS42MyIvPiYjeGE7CQkJCTwvZz4mI3hhOwkJCQk8ZyBpZD0ic2hhcGU1MDI3LTgiPiYjeGE7CQkJCQk8dGl0bGUgaWQ9InRpdGxlMTA4MDEwIj5wYXRoNjUzMDwvdGl0bGU+JiN4YTsJCQkJCTxwYXRoIGlkPSJwYXRoMTA4MDEyIiBpbmtzY2FwZTpjb25uZWN0b3ItY3VydmF0dXJlPSIwIiBzdHlsZT0iZmlsbDojRTZFN0U4OyIgZD0iTTAsNTFjMC4yLTQuNzYsNC4yMi04LjQ2LDguOTgtOC4yNyAgICAgICBjNC40OCwwLjE5LDguMDgsMy43OCw4LjI3LDguMjdIMHoiLz4mI3hhOwkJCQkJJiN4YTsJCQkJCQk8cGF0aCBpZD0icGF0aDEwODAxNCIgaW5rc2NhcGU6Y29ubmVjdG9yLWN1cnZhdHVyZT0iMCIgc3R5bGU9ImZpbGw6bm9uZTtzdHJva2U6IzU1NkE4QTtzdHJva2Utd2lkdGg6MS41O3N0cm9rZS1taXRlcmxpbWl0OjM7IiBkPSIgICAgICAgTTAsNTFjMC4yLTQuNzYsNC4yMi04LjQ2LDguOTgtOC4yN2M0LjQ4LDAuMTksOC4wOCwzLjc4LDguMjcsOC4yNyIvPiYjeGE7CQkJCTwvZz4mI3hhOwkJCTwvZz4mI3hhOwkJCTxnIGlkPSJncm91cDUwMjgtMTEiIHRyYW5zZm9ybT0idHJhbnNsYXRlKDE5LjEyNSwtMTAuNSkiPiYjeGE7CQkJCTx0aXRsZSBpZD0idGl0bGUxMDgwMTgiPmc2NTM4PC90aXRsZT4mI3hhOwkJCQk8ZyBpZD0ic2hhcGU1MDI5LTEyIiB0cmFuc2Zvcm09InRyYW5zbGF0ZSgzLC04LjI1KSI+JiN4YTsJCQkJCTx0aXRsZSBpZD0idGl0bGUxMDgwMjAiPmNpcmNsZTY1MzQ8L3RpdGxlPiYjeGE7CQkJCQkmI3hhOwkJCQkJCTxjaXJjbGUgaWQ9ImVsbGlwc2UxMDgwMjIiIHN0eWxlPSJmaWxsOiNFNkU3RTg7c3Ryb2tlOiM1NTZBOEE7c3Ryb2tlLXdpZHRoOjEuNTtzdHJva2UtbWl0ZXJsaW1pdDozOyIgY3g9IjUuNjMiIGN5PSI0NS4zOCIgcj0iNS42MyIvPiYjeGE7CQkJCTwvZz4mI3hhOwkJCQk8ZyBpZD0ic2hhcGU1MDMwLTE0Ij4mI3hhOwkJCQkJPHRpdGxlIGlkPSJ0aXRsZTEwODAyNSI+cGF0aDY1MzY8L3RpdGxlPiYjeGE7CQkJCQk8cGF0aCBpZD0icGF0aDEwODAyNyIgaW5rc2NhcGU6Y29ubmVjdG9yLWN1cnZhdHVyZT0iMCIgc3R5bGU9ImZpbGw6I0U2RTdFODsiIGQ9Ik0wLDUxYzAuMi00Ljc2LDQuMjItOC40Niw4Ljk4LTguMjcgICAgICAgYzQuNDgsMC4xOSw4LjA4LDMuNzgsOC4yNyw4LjI3SDB6Ii8+JiN4YTsJCQkJCSYjeGE7CQkJCQkJPHBhdGggaWQ9InBhdGgxMDgwMjkiIGlua3NjYXBlOmNvbm5lY3Rvci1jdXJ2YXR1cmU9IjAiIHN0eWxlPSJmaWxsOm5vbmU7c3Ryb2tlOiM1NTZBOEE7c3Ryb2tlLXdpZHRoOjEuNTtzdHJva2UtbWl0ZXJsaW1pdDozOyIgZD0iICAgICAgIE0wLDUxYzAuMi00Ljc2LDQuMjItOC40Niw4Ljk4LTguMjdjNC40OCwwLjE5LDguMDgsMy43OCw4LjI3LDguMjciLz4mI3hhOwkJCQk8L2c+JiN4YTsJCQk8L2c+JiN4YTsJCQk8ZyBpZD0iZ3JvdXA1MDMxLTE3IiB0cmFuc2Zvcm09InRyYW5zbGF0ZSg5KSI+JiN4YTsJCQkJPHRpdGxlIGlkPSJ0aXRsZTEwODAzMyI+ZzY1NDQ8L3RpdGxlPiYjeGE7CQkJCTxnIGlkPSJzaGFwZTUwMzItMTgiIHRyYW5zZm9ybT0idHJhbnNsYXRlKDMsLTguMjUpIj4mI3hhOwkJCQkJPHRpdGxlIGlkPSJ0aXRsZTEwODAzNSI+Y2lyY2xlNjU0MDwvdGl0bGU+JiN4YTsJCQkJCSYjeGE7CQkJCQkJPGNpcmNsZSBpZD0iZWxsaXBzZTEwODAzNyIgc3R5bGU9ImZpbGw6I0FBRTlGQjtzdHJva2U6IzU1NkE4QTtzdHJva2Utd2lkdGg6MS41O3N0cm9rZS1taXRlcmxpbWl0OjM7IiBjeD0iNS42MyIgY3k9IjQ1LjM4IiByPSI1LjYzIi8+JiN4YTsJCQkJPC9nPiYjeGE7CQkJCTxnIGlkPSJzaGFwZTUwMzMtMjAiPiYjeGE7CQkJCQk8dGl0bGUgaWQ9InRpdGxlMTA4MDQwIj5wYXRoNjU0MjwvdGl0bGU+JiN4YTsJCQkJCTxwYXRoIGlkPSJwYXRoMTA4MDQyIiBpbmtzY2FwZTpjb25uZWN0b3ItY3VydmF0dXJlPSIwIiBzdHlsZT0iZmlsbDojQUFFOUZCOyIgZD0iTTAsNTFjMC4yLTQuNzYsNC4yMi04LjQ2LDguOTgtOC4yNyAgICAgICBjNC40OCwwLjE5LDguMDgsMy43OCw4LjI3LDguMjdIMHoiLz4mI3hhOwkJCQkJJiN4YTsJCQkJCQk8cGF0aCBpZD0icGF0aDEwODA0NCIgaW5rc2NhcGU6Y29ubmVjdG9yLWN1cnZhdHVyZT0iMCIgc3R5bGU9ImZpbGw6bm9uZTtzdHJva2U6IzU1NkE4QTtzdHJva2Utd2lkdGg6MS41O3N0cm9rZS1taXRlcmxpbWl0OjM7IiBkPSIgICAgICAgTTAsNTFjMC4yLTQuNzYsNC4yMi04LjQ2LDguOTgtOC4yN2M0LjQ4LDAuMTksOC4wOCwzLjc4LDguMjcsOC4yNyIvPiYjeGE7CQkJCTwvZz4mI3hhOwkJCTwvZz4mI3hhOwkJPC9nPiYjeGE7CTwvZz4mI3hhOzwvZz4mI3hhOzwvc3ZnPg==;" vertex="1" parent="apEBoxvXm4Qr4Qo5Z26V-1">
          <mxGeometry x="105.5" y="247.5" width="30" height="30" as="geometry"/>
        </mxCell>
        <mxCell id="GfX2tnJlF5C678m-gZgc-18" value="" style="shape=image;verticalLabelPosition=bottom;labelBackgroundColor=none;verticalAlign=top;aspect=fixed;imageAspect=0;image=data:image/svg+xml,PHN2ZyB4bWxuczpjYz0iaHR0cDovL2NyZWF0aXZlY29tbW9ucy5vcmcvbnMjIiB4bWxuczpkYz0iaHR0cDovL3B1cmwub3JnL2RjL2VsZW1lbnRzLzEuMS8iIHhtbG5zOmlua3NjYXBlPSJodHRwOi8vd3d3Lmlua3NjYXBlLm9yZy9uYW1lc3BhY2VzL2lua3NjYXBlIiB4bWxuczpyZGY9Imh0dHA6Ly93d3cudzMub3JnLzE5OTkvMDIvMjItcmRmLXN5bnRheC1ucyMiIHhtbG5zOnNvZGlwb2RpPSJodHRwOi8vc29kaXBvZGkuc291cmNlZm9yZ2UubmV0L0RURC9zb2RpcG9kaS0wLmR0ZCIgeG1sbnM6c3ZnPSJodHRwOi8vd3d3LnczLm9yZy8yMDAwL3N2ZyIgeG1sbnM9Imh0dHA6Ly93d3cudzMub3JnLzIwMDAvc3ZnIiB4bWxuczp4bGluaz0iaHR0cDovL3d3dy53My5vcmcvMTk5OS94bGluayIgdmVyc2lvbj0iMS4xIiBpZD0ic3ZnMTA4MDUyIiBpbmtzY2FwZTp2ZXJzaW9uPSIwLjkyLjMgKDI0MDU1NDYsIDIwMTgtMDMtMTEpIiBzb2RpcG9kaTpkb2NuYW1lPSJ0ZWFtLnN2ZyIgeD0iMHB4IiB5PSIwcHgiIHZpZXdCb3g9IjAgMCA0OS41IDQ5LjUiIHN0eWxlPSJlbmFibGUtYmFja2dyb3VuZDpuZXcgMCAwIDQ5LjUgNDkuNTsiIHhtbDpzcGFjZT0icHJlc2VydmUiPiYjeGE7PHNvZGlwb2RpOm5hbWVkdmlldyBib3JkZXJjb2xvcj0iIzY2NjY2NiIgYm9yZGVyb3BhY2l0eT0iMSIgZml0LW1hcmdpbi1ib3R0b209IjAiIGZpdC1tYXJnaW4tbGVmdD0iMCIgZml0LW1hcmdpbi1yaWdodD0iMCIgZml0LW1hcmdpbi10b3A9IjAiIGdyaWR0b2xlcmFuY2U9IjEwIiBndWlkZXRvbGVyYW5jZT0iMTAiIGlkPSJuYW1lZHZpZXcxMDgwNTQiIGlua3NjYXBlOmN1cnJlbnQtbGF5ZXI9InN2ZzEwODA1MiIgaW5rc2NhcGU6Y3g9IjMyLjk5OTk4NSIgaW5rc2NhcGU6Y3k9IjMyLjk5OTk4NSIgaW5rc2NhcGU6cGFnZW9wYWNpdHk9IjAiIGlua3NjYXBlOnBhZ2VzaGFkb3c9IjIiIGlua3NjYXBlOndpbmRvdy1oZWlnaHQ9IjEwMTciIGlua3NjYXBlOndpbmRvdy1tYXhpbWl6ZWQ9IjEiIGlua3NjYXBlOndpbmRvdy13aWR0aD0iMTkyMCIgaW5rc2NhcGU6d2luZG93LXg9Ii04IiBpbmtzY2FwZTp3aW5kb3cteT0iLTgiIGlua3NjYXBlOnpvb209IjEyLjc1MDAwNiIgb2JqZWN0dG9sZXJhbmNlPSIxMCIgcGFnZWNvbG9yPSIjZmZmZmZmIiBzaG93Z3JpZD0iZmFsc2UiPiYjeGE7CTwvc29kaXBvZGk6bmFtZWR2aWV3PiYjeGE7PGcgaWQ9ImcxMDgwNTAiIHRyYW5zZm9ybT0idHJhbnNsYXRlKC0wLjc1LC0wLjc1KSI+JiN4YTsJPHRpdGxlIGlkPSJ0aXRsZTEwNzk5MiI+UGFnZS0xPC90aXRsZT4mI3hhOwk8ZyBpZD0iZ3JvdXA1MDIyLTEiIHRyYW5zZm9ybT0idHJhbnNsYXRlKDEuNSwtMS41KSI+JiN4YTsJCTx0aXRsZSBpZD0idGl0bGUxMDc5OTQiPlRlYW08L3RpdGxlPiYjeGE7CQk8ZyBpZD0ic2hhcGU1MDIzLTIiPiYjeGE7CQkJPHRpdGxlIGlkPSJ0aXRsZTEwNzk5NiI+Y2lyY2xlNjUyNjwvdGl0bGU+JiN4YTsJCQk8Y2lyY2xlIGlkPSJlbGxpcHNlMTA3OTk4IiBzdHlsZT0iZmlsbDojRkZGRkZGO3N0cm9rZTojNTU2QThBO3N0cm9rZS13aWR0aDoxLjU7c3Ryb2tlLW1pdGVybGltaXQ6MzsiIGN4PSIyNCIgY3k9IjI3IiByPSIyNCIvPiYjeGE7CQk8L2c+JiN4YTsJCTxnIGlkPSJncm91cDUwMjQtNCIgdHJhbnNmb3JtPSJ0cmFuc2xhdGUoNS44MTI1LC04LjI1KSI+JiN4YTsJCQk8dGl0bGUgaWQ9InRpdGxlMTA4MDAxIj5nNjU0NjwvdGl0bGU+JiN4YTsJCQk8ZyBpZD0iZ3JvdXA1MDI1LTUiIHRyYW5zZm9ybT0idHJhbnNsYXRlKDAsLTEwLjUpIj4mI3hhOwkJCQk8dGl0bGUgaWQ9InRpdGxlMTA4MDAzIj5nNjUzMjwvdGl0bGU+JiN4YTsJCQkJPGcgaWQ9InNoYXBlNTAyNi02IiB0cmFuc2Zvcm09InRyYW5zbGF0ZSgzLC04LjI1KSI+JiN4YTsJCQkJCTx0aXRsZSBpZD0idGl0bGUxMDgwMDUiPmNpcmNsZTY1Mjg8L3RpdGxlPiYjeGE7CQkJCQkmI3hhOwkJCQkJCTxjaXJjbGUgaWQ9ImVsbGlwc2UxMDgwMDciIHN0eWxlPSJmaWxsOiNFNkU3RTg7c3Ryb2tlOiM1NTZBOEE7c3Ryb2tlLXdpZHRoOjEuNTtzdHJva2UtbWl0ZXJsaW1pdDozOyIgY3g9IjUuNjMiIGN5PSI0NS4zOCIgcj0iNS42MyIvPiYjeGE7CQkJCTwvZz4mI3hhOwkJCQk8ZyBpZD0ic2hhcGU1MDI3LTgiPiYjeGE7CQkJCQk8dGl0bGUgaWQ9InRpdGxlMTA4MDEwIj5wYXRoNjUzMDwvdGl0bGU+JiN4YTsJCQkJCTxwYXRoIGlkPSJwYXRoMTA4MDEyIiBpbmtzY2FwZTpjb25uZWN0b3ItY3VydmF0dXJlPSIwIiBzdHlsZT0iZmlsbDojRTZFN0U4OyIgZD0iTTAsNTFjMC4yLTQuNzYsNC4yMi04LjQ2LDguOTgtOC4yNyAgICAgICBjNC40OCwwLjE5LDguMDgsMy43OCw4LjI3LDguMjdIMHoiLz4mI3hhOwkJCQkJJiN4YTsJCQkJCQk8cGF0aCBpZD0icGF0aDEwODAxNCIgaW5rc2NhcGU6Y29ubmVjdG9yLWN1cnZhdHVyZT0iMCIgc3R5bGU9ImZpbGw6bm9uZTtzdHJva2U6IzU1NkE4QTtzdHJva2Utd2lkdGg6MS41O3N0cm9rZS1taXRlcmxpbWl0OjM7IiBkPSIgICAgICAgTTAsNTFjMC4yLTQuNzYsNC4yMi04LjQ2LDguOTgtOC4yN2M0LjQ4LDAuMTksOC4wOCwzLjc4LDguMjcsOC4yNyIvPiYjeGE7CQkJCTwvZz4mI3hhOwkJCTwvZz4mI3hhOwkJCTxnIGlkPSJncm91cDUwMjgtMTEiIHRyYW5zZm9ybT0idHJhbnNsYXRlKDE5LjEyNSwtMTAuNSkiPiYjeGE7CQkJCTx0aXRsZSBpZD0idGl0bGUxMDgwMTgiPmc2NTM4PC90aXRsZT4mI3hhOwkJCQk8ZyBpZD0ic2hhcGU1MDI5LTEyIiB0cmFuc2Zvcm09InRyYW5zbGF0ZSgzLC04LjI1KSI+JiN4YTsJCQkJCTx0aXRsZSBpZD0idGl0bGUxMDgwMjAiPmNpcmNsZTY1MzQ8L3RpdGxlPiYjeGE7CQkJCQkmI3hhOwkJCQkJCTxjaXJjbGUgaWQ9ImVsbGlwc2UxMDgwMjIiIHN0eWxlPSJmaWxsOiNFNkU3RTg7c3Ryb2tlOiM1NTZBOEE7c3Ryb2tlLXdpZHRoOjEuNTtzdHJva2UtbWl0ZXJsaW1pdDozOyIgY3g9IjUuNjMiIGN5PSI0NS4zOCIgcj0iNS42MyIvPiYjeGE7CQkJCTwvZz4mI3hhOwkJCQk8ZyBpZD0ic2hhcGU1MDMwLTE0Ij4mI3hhOwkJCQkJPHRpdGxlIGlkPSJ0aXRsZTEwODAyNSI+cGF0aDY1MzY8L3RpdGxlPiYjeGE7CQkJCQk8cGF0aCBpZD0icGF0aDEwODAyNyIgaW5rc2NhcGU6Y29ubmVjdG9yLWN1cnZhdHVyZT0iMCIgc3R5bGU9ImZpbGw6I0U2RTdFODsiIGQ9Ik0wLDUxYzAuMi00Ljc2LDQuMjItOC40Niw4Ljk4LTguMjcgICAgICAgYzQuNDgsMC4xOSw4LjA4LDMuNzgsOC4yNyw4LjI3SDB6Ii8+JiN4YTsJCQkJCSYjeGE7CQkJCQkJPHBhdGggaWQ9InBhdGgxMDgwMjkiIGlua3NjYXBlOmNvbm5lY3Rvci1jdXJ2YXR1cmU9IjAiIHN0eWxlPSJmaWxsOm5vbmU7c3Ryb2tlOiM1NTZBOEE7c3Ryb2tlLXdpZHRoOjEuNTtzdHJva2UtbWl0ZXJsaW1pdDozOyIgZD0iICAgICAgIE0wLDUxYzAuMi00Ljc2LDQuMjItOC40Niw4Ljk4LTguMjdjNC40OCwwLjE5LDguMDgsMy43OCw4LjI3LDguMjciLz4mI3hhOwkJCQk8L2c+JiN4YTsJCQk8L2c+JiN4YTsJCQk8ZyBpZD0iZ3JvdXA1MDMxLTE3IiB0cmFuc2Zvcm09InRyYW5zbGF0ZSg5KSI+JiN4YTsJCQkJPHRpdGxlIGlkPSJ0aXRsZTEwODAzMyI+ZzY1NDQ8L3RpdGxlPiYjeGE7CQkJCTxnIGlkPSJzaGFwZTUwMzItMTgiIHRyYW5zZm9ybT0idHJhbnNsYXRlKDMsLTguMjUpIj4mI3hhOwkJCQkJPHRpdGxlIGlkPSJ0aXRsZTEwODAzNSI+Y2lyY2xlNjU0MDwvdGl0bGU+JiN4YTsJCQkJCSYjeGE7CQkJCQkJPGNpcmNsZSBpZD0iZWxsaXBzZTEwODAzNyIgc3R5bGU9ImZpbGw6I0FBRTlGQjtzdHJva2U6IzU1NkE4QTtzdHJva2Utd2lkdGg6MS41O3N0cm9rZS1taXRlcmxpbWl0OjM7IiBjeD0iNS42MyIgY3k9IjQ1LjM4IiByPSI1LjYzIi8+JiN4YTsJCQkJPC9nPiYjeGE7CQkJCTxnIGlkPSJzaGFwZTUwMzMtMjAiPiYjeGE7CQkJCQk8dGl0bGUgaWQ9InRpdGxlMTA4MDQwIj5wYXRoNjU0MjwvdGl0bGU+JiN4YTsJCQkJCTxwYXRoIGlkPSJwYXRoMTA4MDQyIiBpbmtzY2FwZTpjb25uZWN0b3ItY3VydmF0dXJlPSIwIiBzdHlsZT0iZmlsbDojQUFFOUZCOyIgZD0iTTAsNTFjMC4yLTQuNzYsNC4yMi04LjQ2LDguOTgtOC4yNyAgICAgICBjNC40OCwwLjE5LDguMDgsMy43OCw4LjI3LDguMjdIMHoiLz4mI3hhOwkJCQkJJiN4YTsJCQkJCQk8cGF0aCBpZD0icGF0aDEwODA0NCIgaW5rc2NhcGU6Y29ubmVjdG9yLWN1cnZhdHVyZT0iMCIgc3R5bGU9ImZpbGw6bm9uZTtzdHJva2U6IzU1NkE4QTtzdHJva2Utd2lkdGg6MS41O3N0cm9rZS1taXRlcmxpbWl0OjM7IiBkPSIgICAgICAgTTAsNTFjMC4yLTQuNzYsNC4yMi04LjQ2LDguOTgtOC4yN2M0LjQ4LDAuMTksOC4wOCwzLjc4LDguMjcsOC4yNyIvPiYjeGE7CQkJCTwvZz4mI3hhOwkJCTwvZz4mI3hhOwkJPC9nPiYjeGE7CTwvZz4mI3hhOzwvZz4mI3hhOzwvc3ZnPg==;" vertex="1" parent="apEBoxvXm4Qr4Qo5Z26V-1">
          <mxGeometry x="145.5" y="247.5" width="30" height="30" as="geometry"/>
        </mxCell>
        <mxCell id="GfX2tnJlF5C678m-gZgc-19" value="" style="shape=image;verticalLabelPosition=bottom;labelBackgroundColor=none;verticalAlign=top;aspect=fixed;imageAspect=0;image=data:image/svg+xml,PHN2ZyB4bWxuczpjYz0iaHR0cDovL2NyZWF0aXZlY29tbW9ucy5vcmcvbnMjIiB4bWxuczpkYz0iaHR0cDovL3B1cmwub3JnL2RjL2VsZW1lbnRzLzEuMS8iIHhtbG5zOmlua3NjYXBlPSJodHRwOi8vd3d3Lmlua3NjYXBlLm9yZy9uYW1lc3BhY2VzL2lua3NjYXBlIiB4bWxuczpyZGY9Imh0dHA6Ly93d3cudzMub3JnLzE5OTkvMDIvMjItcmRmLXN5bnRheC1ucyMiIHhtbG5zOnNvZGlwb2RpPSJodHRwOi8vc29kaXBvZGkuc291cmNlZm9yZ2UubmV0L0RURC9zb2RpcG9kaS0wLmR0ZCIgeG1sbnM6c3ZnPSJodHRwOi8vd3d3LnczLm9yZy8yMDAwL3N2ZyIgeG1sbnM9Imh0dHA6Ly93d3cudzMub3JnLzIwMDAvc3ZnIiB4bWxuczp4bGluaz0iaHR0cDovL3d3dy53My5vcmcvMTk5OS94bGluayIgdmVyc2lvbj0iMS4xIiBpZD0ic3ZnMTA4MDUyIiBpbmtzY2FwZTp2ZXJzaW9uPSIwLjkyLjMgKDI0MDU1NDYsIDIwMTgtMDMtMTEpIiBzb2RpcG9kaTpkb2NuYW1lPSJ0ZWFtLnN2ZyIgeD0iMHB4IiB5PSIwcHgiIHZpZXdCb3g9IjAgMCA0OS41IDQ5LjUiIHN0eWxlPSJlbmFibGUtYmFja2dyb3VuZDpuZXcgMCAwIDQ5LjUgNDkuNTsiIHhtbDpzcGFjZT0icHJlc2VydmUiPiYjeGE7PHNvZGlwb2RpOm5hbWVkdmlldyBib3JkZXJjb2xvcj0iIzY2NjY2NiIgYm9yZGVyb3BhY2l0eT0iMSIgZml0LW1hcmdpbi1ib3R0b209IjAiIGZpdC1tYXJnaW4tbGVmdD0iMCIgZml0LW1hcmdpbi1yaWdodD0iMCIgZml0LW1hcmdpbi10b3A9IjAiIGdyaWR0b2xlcmFuY2U9IjEwIiBndWlkZXRvbGVyYW5jZT0iMTAiIGlkPSJuYW1lZHZpZXcxMDgwNTQiIGlua3NjYXBlOmN1cnJlbnQtbGF5ZXI9InN2ZzEwODA1MiIgaW5rc2NhcGU6Y3g9IjMyLjk5OTk4NSIgaW5rc2NhcGU6Y3k9IjMyLjk5OTk4NSIgaW5rc2NhcGU6cGFnZW9wYWNpdHk9IjAiIGlua3NjYXBlOnBhZ2VzaGFkb3c9IjIiIGlua3NjYXBlOndpbmRvdy1oZWlnaHQ9IjEwMTciIGlua3NjYXBlOndpbmRvdy1tYXhpbWl6ZWQ9IjEiIGlua3NjYXBlOndpbmRvdy13aWR0aD0iMTkyMCIgaW5rc2NhcGU6d2luZG93LXg9Ii04IiBpbmtzY2FwZTp3aW5kb3cteT0iLTgiIGlua3NjYXBlOnpvb209IjEyLjc1MDAwNiIgb2JqZWN0dG9sZXJhbmNlPSIxMCIgcGFnZWNvbG9yPSIjZmZmZmZmIiBzaG93Z3JpZD0iZmFsc2UiPiYjeGE7CTwvc29kaXBvZGk6bmFtZWR2aWV3PiYjeGE7PGcgaWQ9ImcxMDgwNTAiIHRyYW5zZm9ybT0idHJhbnNsYXRlKC0wLjc1LC0wLjc1KSI+JiN4YTsJPHRpdGxlIGlkPSJ0aXRsZTEwNzk5MiI+UGFnZS0xPC90aXRsZT4mI3hhOwk8ZyBpZD0iZ3JvdXA1MDIyLTEiIHRyYW5zZm9ybT0idHJhbnNsYXRlKDEuNSwtMS41KSI+JiN4YTsJCTx0aXRsZSBpZD0idGl0bGUxMDc5OTQiPlRlYW08L3RpdGxlPiYjeGE7CQk8ZyBpZD0ic2hhcGU1MDIzLTIiPiYjeGE7CQkJPHRpdGxlIGlkPSJ0aXRsZTEwNzk5NiI+Y2lyY2xlNjUyNjwvdGl0bGU+JiN4YTsJCQk8Y2lyY2xlIGlkPSJlbGxpcHNlMTA3OTk4IiBzdHlsZT0iZmlsbDojRkZGRkZGO3N0cm9rZTojNTU2QThBO3N0cm9rZS13aWR0aDoxLjU7c3Ryb2tlLW1pdGVybGltaXQ6MzsiIGN4PSIyNCIgY3k9IjI3IiByPSIyNCIvPiYjeGE7CQk8L2c+JiN4YTsJCTxnIGlkPSJncm91cDUwMjQtNCIgdHJhbnNmb3JtPSJ0cmFuc2xhdGUoNS44MTI1LC04LjI1KSI+JiN4YTsJCQk8dGl0bGUgaWQ9InRpdGxlMTA4MDAxIj5nNjU0NjwvdGl0bGU+JiN4YTsJCQk8ZyBpZD0iZ3JvdXA1MDI1LTUiIHRyYW5zZm9ybT0idHJhbnNsYXRlKDAsLTEwLjUpIj4mI3hhOwkJCQk8dGl0bGUgaWQ9InRpdGxlMTA4MDAzIj5nNjUzMjwvdGl0bGU+JiN4YTsJCQkJPGcgaWQ9InNoYXBlNTAyNi02IiB0cmFuc2Zvcm09InRyYW5zbGF0ZSgzLC04LjI1KSI+JiN4YTsJCQkJCTx0aXRsZSBpZD0idGl0bGUxMDgwMDUiPmNpcmNsZTY1Mjg8L3RpdGxlPiYjeGE7CQkJCQkmI3hhOwkJCQkJCTxjaXJjbGUgaWQ9ImVsbGlwc2UxMDgwMDciIHN0eWxlPSJmaWxsOiNFNkU3RTg7c3Ryb2tlOiM1NTZBOEE7c3Ryb2tlLXdpZHRoOjEuNTtzdHJva2UtbWl0ZXJsaW1pdDozOyIgY3g9IjUuNjMiIGN5PSI0NS4zOCIgcj0iNS42MyIvPiYjeGE7CQkJCTwvZz4mI3hhOwkJCQk8ZyBpZD0ic2hhcGU1MDI3LTgiPiYjeGE7CQkJCQk8dGl0bGUgaWQ9InRpdGxlMTA4MDEwIj5wYXRoNjUzMDwvdGl0bGU+JiN4YTsJCQkJCTxwYXRoIGlkPSJwYXRoMTA4MDEyIiBpbmtzY2FwZTpjb25uZWN0b3ItY3VydmF0dXJlPSIwIiBzdHlsZT0iZmlsbDojRTZFN0U4OyIgZD0iTTAsNTFjMC4yLTQuNzYsNC4yMi04LjQ2LDguOTgtOC4yNyAgICAgICBjNC40OCwwLjE5LDguMDgsMy43OCw4LjI3LDguMjdIMHoiLz4mI3hhOwkJCQkJJiN4YTsJCQkJCQk8cGF0aCBpZD0icGF0aDEwODAxNCIgaW5rc2NhcGU6Y29ubmVjdG9yLWN1cnZhdHVyZT0iMCIgc3R5bGU9ImZpbGw6bm9uZTtzdHJva2U6IzU1NkE4QTtzdHJva2Utd2lkdGg6MS41O3N0cm9rZS1taXRlcmxpbWl0OjM7IiBkPSIgICAgICAgTTAsNTFjMC4yLTQuNzYsNC4yMi04LjQ2LDguOTgtOC4yN2M0LjQ4LDAuMTksOC4wOCwzLjc4LDguMjcsOC4yNyIvPiYjeGE7CQkJCTwvZz4mI3hhOwkJCTwvZz4mI3hhOwkJCTxnIGlkPSJncm91cDUwMjgtMTEiIHRyYW5zZm9ybT0idHJhbnNsYXRlKDE5LjEyNSwtMTAuNSkiPiYjeGE7CQkJCTx0aXRsZSBpZD0idGl0bGUxMDgwMTgiPmc2NTM4PC90aXRsZT4mI3hhOwkJCQk8ZyBpZD0ic2hhcGU1MDI5LTEyIiB0cmFuc2Zvcm09InRyYW5zbGF0ZSgzLC04LjI1KSI+JiN4YTsJCQkJCTx0aXRsZSBpZD0idGl0bGUxMDgwMjAiPmNpcmNsZTY1MzQ8L3RpdGxlPiYjeGE7CQkJCQkmI3hhOwkJCQkJCTxjaXJjbGUgaWQ9ImVsbGlwc2UxMDgwMjIiIHN0eWxlPSJmaWxsOiNFNkU3RTg7c3Ryb2tlOiM1NTZBOEE7c3Ryb2tlLXdpZHRoOjEuNTtzdHJva2UtbWl0ZXJsaW1pdDozOyIgY3g9IjUuNjMiIGN5PSI0NS4zOCIgcj0iNS42MyIvPiYjeGE7CQkJCTwvZz4mI3hhOwkJCQk8ZyBpZD0ic2hhcGU1MDMwLTE0Ij4mI3hhOwkJCQkJPHRpdGxlIGlkPSJ0aXRsZTEwODAyNSI+cGF0aDY1MzY8L3RpdGxlPiYjeGE7CQkJCQk8cGF0aCBpZD0icGF0aDEwODAyNyIgaW5rc2NhcGU6Y29ubmVjdG9yLWN1cnZhdHVyZT0iMCIgc3R5bGU9ImZpbGw6I0U2RTdFODsiIGQ9Ik0wLDUxYzAuMi00Ljc2LDQuMjItOC40Niw4Ljk4LTguMjcgICAgICAgYzQuNDgsMC4xOSw4LjA4LDMuNzgsOC4yNyw4LjI3SDB6Ii8+JiN4YTsJCQkJCSYjeGE7CQkJCQkJPHBhdGggaWQ9InBhdGgxMDgwMjkiIGlua3NjYXBlOmNvbm5lY3Rvci1jdXJ2YXR1cmU9IjAiIHN0eWxlPSJmaWxsOm5vbmU7c3Ryb2tlOiM1NTZBOEE7c3Ryb2tlLXdpZHRoOjEuNTtzdHJva2UtbWl0ZXJsaW1pdDozOyIgZD0iICAgICAgIE0wLDUxYzAuMi00Ljc2LDQuMjItOC40Niw4Ljk4LTguMjdjNC40OCwwLjE5LDguMDgsMy43OCw4LjI3LDguMjciLz4mI3hhOwkJCQk8L2c+JiN4YTsJCQk8L2c+JiN4YTsJCQk8ZyBpZD0iZ3JvdXA1MDMxLTE3IiB0cmFuc2Zvcm09InRyYW5zbGF0ZSg5KSI+JiN4YTsJCQkJPHRpdGxlIGlkPSJ0aXRsZTEwODAzMyI+ZzY1NDQ8L3RpdGxlPiYjeGE7CQkJCTxnIGlkPSJzaGFwZTUwMzItMTgiIHRyYW5zZm9ybT0idHJhbnNsYXRlKDMsLTguMjUpIj4mI3hhOwkJCQkJPHRpdGxlIGlkPSJ0aXRsZTEwODAzNSI+Y2lyY2xlNjU0MDwvdGl0bGU+JiN4YTsJCQkJCSYjeGE7CQkJCQkJPGNpcmNsZSBpZD0iZWxsaXBzZTEwODAzNyIgc3R5bGU9ImZpbGw6I0FBRTlGQjtzdHJva2U6IzU1NkE4QTtzdHJva2Utd2lkdGg6MS41O3N0cm9rZS1taXRlcmxpbWl0OjM7IiBjeD0iNS42MyIgY3k9IjQ1LjM4IiByPSI1LjYzIi8+JiN4YTsJCQkJPC9nPiYjeGE7CQkJCTxnIGlkPSJzaGFwZTUwMzMtMjAiPiYjeGE7CQkJCQk8dGl0bGUgaWQ9InRpdGxlMTA4MDQwIj5wYXRoNjU0MjwvdGl0bGU+JiN4YTsJCQkJCTxwYXRoIGlkPSJwYXRoMTA4MDQyIiBpbmtzY2FwZTpjb25uZWN0b3ItY3VydmF0dXJlPSIwIiBzdHlsZT0iZmlsbDojQUFFOUZCOyIgZD0iTTAsNTFjMC4yLTQuNzYsNC4yMi04LjQ2LDguOTgtOC4yNyAgICAgICBjNC40OCwwLjE5LDguMDgsMy43OCw4LjI3LDguMjdIMHoiLz4mI3hhOwkJCQkJJiN4YTsJCQkJCQk8cGF0aCBpZD0icGF0aDEwODA0NCIgaW5rc2NhcGU6Y29ubmVjdG9yLWN1cnZhdHVyZT0iMCIgc3R5bGU9ImZpbGw6bm9uZTtzdHJva2U6IzU1NkE4QTtzdHJva2Utd2lkdGg6MS41O3N0cm9rZS1taXRlcmxpbWl0OjM7IiBkPSIgICAgICAgTTAsNTFjMC4yLTQuNzYsNC4yMi04LjQ2LDguOTgtOC4yN2M0LjQ4LDAuMTksOC4wOCwzLjc4LDguMjcsOC4yNyIvPiYjeGE7CQkJCTwvZz4mI3hhOwkJCTwvZz4mI3hhOwkJPC9nPiYjeGE7CTwvZz4mI3hhOzwvZz4mI3hhOzwvc3ZnPg==;" vertex="1" parent="apEBoxvXm4Qr4Qo5Z26V-1">
          <mxGeometry x="185.5" y="247.5" width="30" height="30" as="geometry"/>
        </mxCell>
        <mxCell id="GfX2tnJlF5C678m-gZgc-20" value="&lt;b&gt;Leadership&lt;/b&gt;" style="text;html=1;strokeColor=none;fillColor=none;align=center;verticalAlign=middle;whiteSpace=wrap;rounded=0;dashed=1;labelBackgroundColor=none;" vertex="1" parent="apEBoxvXm4Qr4Qo5Z26V-1">
          <mxGeometry x="79.5" y="224.5" width="129" height="20" as="geometry"/>
        </mxCell>
        <mxCell id="GfX2tnJlF5C678m-gZgc-21" value="&lt;font style=&quot;font-size: 8px&quot;&gt;Squad&lt;/font&gt;" style="text;html=1;strokeColor=none;fillColor=none;align=center;verticalAlign=middle;whiteSpace=wrap;rounded=0;dashed=1;fontSize=8;labelBackgroundColor=none;" vertex="1" parent="apEBoxvXm4Qr4Qo5Z26V-1">
          <mxGeometry x="64" y="276" width="29" height="20" as="geometry"/>
        </mxCell>
        <mxCell id="GfX2tnJlF5C678m-gZgc-22" value="Squad" style="text;html=1;strokeColor=none;fillColor=none;align=center;verticalAlign=middle;whiteSpace=wrap;rounded=0;dashed=1;fontSize=8;labelBackgroundColor=none;" vertex="1" parent="apEBoxvXm4Qr4Qo5Z26V-1">
          <mxGeometry x="105" y="276" width="29" height="20" as="geometry"/>
        </mxCell>
        <mxCell id="GfX2tnJlF5C678m-gZgc-23" value="&lt;font style=&quot;font-size: 8px&quot;&gt;Squad&lt;/font&gt;" style="text;html=1;strokeColor=none;fillColor=none;align=center;verticalAlign=middle;whiteSpace=wrap;rounded=0;dashed=1;fontSize=8;labelBackgroundColor=none;" vertex="1" parent="apEBoxvXm4Qr4Qo5Z26V-1">
          <mxGeometry x="144" y="276" width="29" height="20" as="geometry"/>
        </mxCell>
        <mxCell id="GfX2tnJlF5C678m-gZgc-24" value="&lt;font style=&quot;font-size: 8px&quot;&gt;Squad&lt;/font&gt;" style="text;html=1;strokeColor=none;fillColor=none;align=center;verticalAlign=middle;whiteSpace=wrap;rounded=0;dashed=1;fontSize=8;labelBackgroundColor=none;" vertex="1" parent="apEBoxvXm4Qr4Qo5Z26V-1">
          <mxGeometry x="185" y="276" width="29" height="20" as="geometry"/>
        </mxCell>
        <mxCell id="GfX2tnJlF5C678m-gZgc-25" style="edgeStyle=orthogonalEdgeStyle;rounded=0;orthogonalLoop=1;jettySize=auto;html=1;fontSize=9;fontColor=#33FFFF;entryX=0.5;entryY=0;entryDx=0;entryDy=0;labelBackgroundColor=none;" edge="1" parent="apEBoxvXm4Qr4Qo5Z26V-1" target="GfX2tnJlF5C678m-gZgc-35">
          <mxGeometry relative="1" as="geometry">
            <mxPoint x="229" y="300.5" as="sourcePoint"/>
          </mxGeometry>
        </mxCell>
        <mxCell id="GfX2tnJlF5C678m-gZgc-26" value="&lt;b&gt;SRE Engineers&lt;/b&gt;" style="text;html=1;strokeColor=none;fillColor=none;align=center;verticalAlign=middle;whiteSpace=wrap;rounded=0;dashed=1;labelBackgroundColor=none;" vertex="1" parent="apEBoxvXm4Qr4Qo5Z26V-1">
          <mxGeometry x="81.5" y="295.5" width="129" height="20" as="geometry"/>
        </mxCell>
        <mxCell id="GfX2tnJlF5C678m-gZgc-27" value="&lt;b style=&quot;font-size: 9px;&quot;&gt;Infrastructure Environments&lt;/b&gt;" style="rounded=1;whiteSpace=wrap;html=1;strokeWidth=1;fontSize=9;fillColor=#d5e8d4;strokeColor=none;gradientColor=none;labelBackgroundColor=none;" vertex="1" parent="apEBoxvXm4Qr4Qo5Z26V-1">
          <mxGeometry x="65.5" y="447.5" width="65" height="30" as="geometry"/>
        </mxCell>
        <mxCell id="GfX2tnJlF5C678m-gZgc-28" value="&lt;b style=&quot;font-size: 9px;&quot;&gt;Tooling Frameworks&lt;/b&gt;" style="rounded=1;whiteSpace=wrap;html=1;strokeWidth=1;fontSize=9;fillColor=#d5e8d4;strokeColor=none;labelBackgroundColor=none;" vertex="1" parent="apEBoxvXm4Qr4Qo5Z26V-1">
          <mxGeometry x="147.5" y="447.5" width="65" height="30" as="geometry"/>
        </mxCell>
        <mxCell id="GfX2tnJlF5C678m-gZgc-29" value="&lt;font style=&quot;font-size: 10px&quot;&gt;&lt;b&gt;Infrastructure&lt;sup&gt;SRE&lt;/sup&gt;&lt;/b&gt;&lt;/font&gt;" style="rounded=1;whiteSpace=wrap;html=1;strokeColor=#36393d;strokeWidth=1;fontSize=8;fillColor=#cce5ff;labelBackgroundColor=none;" vertex="1" parent="apEBoxvXm4Qr4Qo5Z26V-1">
          <mxGeometry x="257" y="392.5" width="83" height="20" as="geometry"/>
        </mxCell>
        <mxCell id="GfX2tnJlF5C678m-gZgc-30" value="&lt;font&gt;&lt;b&gt;&lt;span style=&quot;font-size: 10px&quot;&gt;Tooling&lt;sup&gt;SRE&lt;/sup&gt;&lt;/span&gt;&lt;/b&gt;&lt;/font&gt;" style="rounded=1;whiteSpace=wrap;html=1;strokeColor=#36393d;strokeWidth=1;fontSize=8;fillColor=#cce5ff;labelBackgroundColor=none;" vertex="1" parent="apEBoxvXm4Qr4Qo5Z26V-1">
          <mxGeometry x="257" y="416.5" width="84" height="20" as="geometry"/>
        </mxCell>
        <mxCell id="GfX2tnJlF5C678m-gZgc-31" value="&lt;font style=&quot;font-size: 10px&quot;&gt;&lt;b&gt;Automation&lt;sup&gt;SRE&lt;/sup&gt;&lt;/b&gt;&lt;/font&gt;" style="rounded=1;whiteSpace=wrap;html=1;strokeColor=#36393d;strokeWidth=1;fontSize=8;fillColor=#cce5ff;labelBackgroundColor=none;" vertex="1" parent="apEBoxvXm4Qr4Qo5Z26V-1">
          <mxGeometry x="257" y="438.5" width="84" height="20" as="geometry"/>
        </mxCell>
        <mxCell id="GfX2tnJlF5C678m-gZgc-32" value="&lt;font style=&quot;font-size: 10px&quot;&gt;&lt;b&gt;Monitoring&lt;sup&gt;SRE&lt;/sup&gt;&lt;/b&gt;&lt;/font&gt;" style="rounded=1;whiteSpace=wrap;html=1;strokeColor=#36393d;strokeWidth=1;fontSize=8;fillColor=#cce5ff;labelBackgroundColor=none;" vertex="1" parent="apEBoxvXm4Qr4Qo5Z26V-1">
          <mxGeometry x="257" y="461.5" width="83" height="20" as="geometry"/>
        </mxCell>
        <mxCell id="GfX2tnJlF5C678m-gZgc-33" value="" style="shape=trapezoid;perimeter=trapezoidPerimeter;whiteSpace=wrap;html=1;strokeColor=none;strokeWidth=1;fontSize=9;fillColor=#cce5ff;labelBackgroundColor=none;" vertex="1" parent="apEBoxvXm4Qr4Qo5Z26V-1">
          <mxGeometry x="68.5" y="422.5" width="60" height="26" as="geometry"/>
        </mxCell>
        <mxCell id="GfX2tnJlF5C678m-gZgc-34" value="" style="shape=trapezoid;perimeter=trapezoidPerimeter;whiteSpace=wrap;html=1;strokeColor=none;strokeWidth=1;fontSize=9;fillColor=#cce5ff;labelBackgroundColor=none;" vertex="1" parent="apEBoxvXm4Qr4Qo5Z26V-1">
          <mxGeometry x="149.5" y="422.5" width="60" height="27" as="geometry"/>
        </mxCell>
        <mxCell id="GfX2tnJlF5C678m-gZgc-35" value="&lt;font style=&quot;font-size: 12px;&quot;&gt;SRE Backlog&lt;/font&gt;" style="text;strokeColor=none;fillColor=none;html=1;fontSize=12;fontStyle=1;verticalAlign=middle;align=center;labelBackgroundColor=none;" vertex="1" parent="apEBoxvXm4Qr4Qo5Z26V-1">
          <mxGeometry x="257.5" y="367" width="86" height="20" as="geometry"/>
        </mxCell>
        <mxCell id="GfX2tnJlF5C678m-gZgc-38" value="" style="shape=image;verticalLabelPosition=bottom;labelBackgroundColor=#ffffff;verticalAlign=top;aspect=fixed;imageAspect=0;image=data:image/png,iVBORw0KGgoAAAANSUhEUgAAAB0AAACjCAYAAAB2UxUKAAAJV0lEQVR4Ae1ce2xT1xn/xb5x/CJ2nAdvJ5RXUqCEpkUpZQxYUbrStbTrBOsQGd1WOiG6Sd0o6z+dNG1U7aqpQi0FumlRtWYtE2wZhVYrDAojaQoklEdMGkhClnfs2CaxE8f2nT7Dvb3ftR1bIkybdK9kncf3nfM79zvf+c7P9r0nQxRFEQDGIiKONnlwtn0IZYVWPLwwl6pv66q96sMxlxclU814eKEDZoM+1l8Ggba7R7D30y6UTLXEAAtzjbLC7aDSjbT0BdDUHUDdNT+2rpoO6huhcFT8+f4WsXNwhPDv2NXnD4kvHbgqegNjYsaf63tFs0GHby3Ou52bSqvtp81euHoCEJq6h7GxfErKRj2eIdS7OvDJuVaEwhGmv2KRE8sXFcJZYGf16sLimVa8/3kfBJrPmJ3VGrfKQ8EQ9h0+i2MNbTBY7Mgw2ZGRoWPa++t78P4JF+ZOt+Olp1fAMcnE5FLBZhLgC4Yh0GRn6jOkepYea7iGt2rOQDTnwla0mMmUhSxLNoCZaPV78P1X/4pvf60Y3119DwzCTW9V6lJeUFdI5V//6SQa2r3InDwfeiFTqh43NWU7YJxkx4eNXWho+QdefXZNQmBup1tdfljXjPMdN2AsmJ02oDQaMr3BMQNdAQN2HayXqlkad6fX+7z4w8fnYZxWwhSpEAmPITDYAyE8LMuiggVZtjwIBj6PBvsU1F5pRr3r31haPEPWpwwDJa/c8c5RZObfFecsI55ORIbcePLBeVg8+x65k8vtffjb6WaEsmyxO5QFADLzZuH1v9Rh90/WMudioKcutCMEA4yqUY95O7HUacJPn/pO3ByVzpmKp7+xGO8cPotPLl6H4HDKuOQLIb0Fpy604bFlX1mOzenRc60QjTa5EWVGhryYbBzD9g3L4wCVij98pAzFU4wY9fcrq6Ez5+BwfQuvU5ba+3xxc4PgIB5ZOlepljS/btl8RIfdTC5kmdDV72N17E79QwHoBANTGB32g0yYznV3UQH8Pg5AJh4KjrLmDNRkzIIYDTOFLLMZLZ189ExBUbje64XValXUANFIBFkGvs4Z6OQcC8IhPqpI5iScvtTBOkpWqL3cAb2J+0RkbAS5Nj4QBvrQvbMgBrl5LDlT8PnVAZy+PD4wLZ2/17ciyzGNjWks4MWDC2ayOga6fFERSEkUo0wpM282frv/M/xsz8dobOlmMgLbWX0Kv/j9P6F3FMWtbzHgxZqyu1gbtk5pd9iytgxVx1tgyCuSFXV6PczT744F9F9V12JwcFCW2W026Ky5mORcJNdJGVrf37x/FuZM59SHgZLy2vJ5cHW48Vl7DyiUKS8K6Mh2wJSGM5PX5wojeHbtfcouYnlmXkm67YmlsOmG4xa6JE+VUkAxBLrxmx88lFA1ISjtg7/7cQUW5IkIdrsQDgUTNlZX0oYQGmjDNMGL17esYfFWqRtnXkloNRnwy00rY47z6genEdBZkGGwxvZLNXMgU4YDPuhDPmyuKI1NkdRPojQpqKRM0eiP29eh5l9NqHN14ovmLxGOcO+e5yzAiqVOPLZsFWiwqa6UoNQBmfupry+MfVJ1mI48LVDqaCLYoDSglKATyQbTAtXYoGSmRKnGBpVfNZj3amxQY4PqJaOxQY0Nyj6hsUHZFONkNDaoNg7bZdRCqTzRbDAhw5fA7lSa1p0SuEZByQraD5LaD5JsyWgUVKOg6tisUVCNgso+oVFQ2RTjZDQKqjYO22XUQqk80RQ0LVAC19ggWUFjgxobZEtGY4MaG5Ris5RqbFBjg5IvaH9Py5YYL6OxQbV12C6jFkpljQ1Klkj3YUVJf1zzan9PS2ZKlGp/T2t/T0N7WFF7WFEZHLSHFbWHFZX+EMsTPdEeVvy/fVjxf/vv6ZG2Nng++gjuqipER0aY8+WsX4+8detgLi5m9ckK47JBahT2etG+fTsGqqvhiEYxPRCA2jyDFy/i0s6dMJeVYe5778EwhT+MHAf+vX2Xkr731FtdLdbn54sdgkCvhKX89ANiXXa22P7yy2IkGEzYL+EhGWjzhg3i5exscTQNMOWAIoB4zWIRLz7wQEJgwlNbKmaJnn37ED1yBCV+P1I/rcuNRx3OGh6GrbERrVu3cuGtUhxowOVC544dmKt6XYH0QwDaAJy32+VPqyAgkKDrGcEgAgcOxJxPLWaORF7ZVFGBEo8nzlnajEb0ms2YvG0bCleulPvx19Xh0q5dyPP5YncoCwDM93pxYfNmWBsauHMp55Qch+ZROUeUb7VaxeZNmxLOkeQtrS++KDbb7XFtm81msXP3bklNjJtT97vvItfvVw4WHgA3Fi7E3Koq6IxGJlMWil55BdFVq9CTyV/eyA8E0L9nj1KVWzHQ1AQzEwP9Vivyt2xR1SYuTn7+efRaLExI/QWuXWN1zJFCbnect3oB2BVzyFqrCtnl5fAPDbFa8v6QynoMVLBawd+WAax6PYYaG1lHyQrk+WbVnVJ/gom/CcZAjU4neFQFcnw+DB48mAyH1XsOHYJjlL9vQ/0ZVWGRgeZWVsJt5rNKb7+MHDoET00NA1AXaOkMvvEGClWbgUcQ4Hj8cabOQGmnICX+PgFi67a9shKXVq+G9/hx1gGBfblxI65UVGD+wAD3TAD9FgvyKytZm7jY2713r+iy2eLWG61XCuiNdrt4HJA/5+x2sTMzM6E+re/WF16Q1yhlaJ3GgZKg5ZlnxA6TKWFH6sCRrDxIAywtZYASKDOvZINZb74J9+zZcQtdkqdKKaC0Op0oOXIkoWpCUIo8C06ehO/RR2OBPVFAT9QbbQhXbDZ0lpej5MQJHm8VDRKCklyw2zH/wAEUHjyIJqcTV7OyMADEORnpUgCh3eZ8fj5sr72GRbW1MBZ99Q6VAi+WZbuMWkhlikZLrlxB19tvo7emBk0nTyIa5iHEXloK4klLnnsuNthE/SjrUoKSMpmblhOl0WAwKTEj66RzpQTViFmy9akRM6WDMUfSiJlGzJTOQXmNmGnETOYyGjFTL4/xyhoxk6zDdhmpUpneCWIGOt+mbSDxbz6yS09QZng0LP6oyiXq6HQZOmXmv3FJp9nonliSj0NfuGPnI91pYDpHZ/39BYidj0SHJxEwDeC+okkTjk2HBBHg6uIcrJhnvwlKKF3eUXxwpg9n2m7gyXvzY5/bRaejiaTDnugO5xTc/BngP2xIKIlrrNx9AAAAAElFTkSuQmCC;" vertex="1" parent="apEBoxvXm4Qr4Qo5Z26V-1">
          <mxGeometry x="446.5" y="145.5" width="23" height="130" as="geometry"/>
        </mxCell>
        <mxCell id="GfX2tnJlF5C678m-gZgc-39" value="" style="shape=image;verticalLabelPosition=bottom;labelBackgroundColor=#ffffff;verticalAlign=top;aspect=fixed;imageAspect=0;image=data:image/png,iVBORw0KGgoAAAANSUhEUgAAAB4AAACkCAYAAACAYZ6xAAAJUUlEQVR4Ae1ca2xUxxX+dr1r78veh+sHix+k2AGTQq1gIiMioCGlKYQmVGoahUjUqERKVZw/9EeaVqTKQ5XS/InKj4BoSET50TaVTAQyUQmBqrFDADs8bIyN38Y2a3u93l3veh++1bnmLnfu3LW3AfdHNCNdzcyZM/PdOXPOmePZ8TVIkiThbjrT7selviDK8y34+bpChXxfeeO1cVzqC2FtuQNbqjwwZxnk8QwE7AvGcfDsoAy4tjxXzp1W030BKp2nY0n0jUdl8PbhMF7a6JXHBwEfaOiW2m6HqLioacgflX7z9y4pPJOQDCdafdJ0bPaBiVaZabqcRD8WSsB4ZTCMNSX2dHwPnL6mxIErgyGYSP6kTJmkrqFxnPqyE239Pob9u8VubK1ZjuqKJQxdr+J15eD25AxMtPi27Cw9nhSt/84k/vS3LzAwFoZkdcNsKUi1UWF0YBpfdjaB9PG3LzyOVeULW8SCqvvhpy040dQFg3Mp7CXLGEClkmPPA1CMeDSM3x09jy3VZdi9tRoOa7bCwuVGjqIi1P/5FE62+mDxVsHicKla9Itmix22patw9uYU6g82IhSJ6TMCSAt86ORFjEbNyPaUwGBIy6Y7sMXtRSjLjbf+el63nYi6I7b13UHjxV6YXUu5jrFIEBFfHyLDN+Qn6utBNDTJ8WXn5uPWWAwnm29ybUTg1jiWSOLAh58jp7CS6SBJs4hNDCLXGMWzm1agrHBO9CMTIZy60ImRsUmY88sY6ZjcpTjS2Ir1j5TCk2tlxuOAP7vcDclsR5Y5h2GMj/djW3Ux6p56lKFT5anHKuWZHT3Thpyih1PtxqwswOpCw3/auX6cqP/V0g0px5nqTIXI1BgqC3K4zmqm7bUPY/P3vIj6b6vJMNvdONPSy9CowgEP3JmC2cKKxRD148ePVXCdtYQf1SxHMuxnyKYcK+5MBBgaVTjgSHQGBiO7ApFgEKuWLewUKpbmIzA1xYCQRSSSswxNF9hkMgESy2ix2dA/ymuudjRSNLvNpiXr1rkZlxTkIT4TYZilnFw0tQ0yNL1KU1s/rLmso0nEIihwk2djEwe8boUXmAkxXFb3Epy9Ogiy73SJZnv8szaYXCUMy0w4gLWV/ObBAf9wbQWS036Q3SqJ1inLswy/P3oOBxsugDYNJREg+fNfvXcKRk85ZBNSGgEYpifw9Pp7JqY0sVpErt7jwM82VaHh0hDM7lKFT7Zr8tlnb47g00unEQzNSYXW1JqXD8uSKg40NjmCDauW6u5WHDAhvfDEGly6OYzBkB9mhzsFTjMnP0xPboqqX6C1NcX82Ldzky4DJ2qF6w+7fwBjeETXDys86XIClSb68MdfbkG2SX+vTwtMe+nB+m3wmiYRG+vFbDKZDidFV/y5NN6Nt+o2pfx5ikFV0BW10k6O/b1fb5P9MDn7pMUt78u076oTzTAa9CMr6sdP1ldg99at6mbd8rzASg/yw7TD/OPcdZy/2o/b3axbJDt94pFSPPt4zbyzVMajPCNgYqTZv/R0jfyoB/im5YyBCeBBRJnKi2YELKJMRVzaXESZIspU6wTnq0WUSeIRUaZaSdRlEWWSNESUqegE50CUBhFliihT0YVvmmcU7CmDiyhTkYQ4yxRnmeIsk6yB253EWSaJRZxlKq5SnYuzTJKGOMtU6wTnQJRGcZb5rTnLTLvGylovVi7CW06y4qd6TiQ6BBHeivCW1ILzXCK8JbGI8FbHZ0CEtyQVEd6qdYNzIEqjCG+/NeHt/xRlhlpbMXroEEJNTYoqyLltzRoU1NXBtXkzQ5+vkhHw9I0buFVXh1h7O4oCAeRrRpxubUXfiRO45Xaj8vhx5NXWajh0qrsOX5/3hnHfgQPSRY9HGgfoIva8TxCQLrtcUve+fVLc7087LmFiPuArtbVSt90uJRcA1L5Qn8Uita5cmRacMNPace/+/ci9dg0PhcN8tKAjOTWpLBrFklu30Pn882oyU9YFnmpuhv/IESy7e3VK3YNu5HXabPja5ZKfDocDE2qGu+XCeBzG5maMHD6s06pz82U2GkXHzp1YPXnvshj1pGtlPXY7pkpLUfTKKyhYuVIeMNrbi6H334evvR2VgQAjneWBAFpefRWeHTuQXVzMvoB2jYc/+EC64XBwSnTD6ZR6XnstrcIMHzokXfF4uH49JhPXT3eNxz/6CPkaEdNNvdkNG7DszTfZt1bVivfuhWPXLvRb2Evi30kkMH78uIpzrsit8XRHB7QXHH1OJwr27uU6awkFe/bAl8NenaWxpgcGtKzMksiNiVCIu/I0FY9n5BQc1dUIBdhbpzSz2URiYWBjdrasSGpOW3Y2yHstlEjRLA7HQmxyOydqW0UFpjVd3aEQ/A0NGipfnfjkE3gMc//5obTSWDavV6mmcg7YuX07AhoFKUkkMHXsGMi+0yWa7fAbb+ChYJBhIaN0PfkkQ6MKB1z44osYs1gYcRPTirExdG7fjp76ekbsBNj/+uu4WlODFT4fpx+jLheKXn6ZA9b11QNvvy115eVxNkk+m/zwhbw86XNAfpodDtmfx3X8+YDVKnXt2cPZPtmxLjBxXtu4UfKZzRy4dkNIVw8D0sWyMikZiegCc6JWZLKioQF9RUW6fljhSZeTQnUUFaHq9GkYNfqi9EkLbHK5sPqrrzBUW4sOpxO8JSpD3MsVf37d60VlYyNsd/35PY57pbTAxEKOfXVTE5zvvIOW/Hz0A2AvQM8NRDOk29ctHg+y9u/HuqEhkDOZL2UU+pAfph1m6N130fHxxwj19DBjkp16nnkGVfX1886S6aTdnThNWAQCYWY0Y+VNRZSptWERZYooU7EOOdfasYgySSwiymSURFURUSYJQ0SZtL2LKFNlGICIMh90lJlxsEcxdsGuXZgNh2HSOVLMf+65zEPbTP/fSRwpaqNLbV0cKTIO4m6F02pxpEiSEUeKespCNHGkSFIQR4op/dD+0UbBmDhSTIknw4I4UtQTFLc76TEtypHiL/7SJsUSs4twcJh+SLIko/JlIb2ZLgZN+YCRsWqJHfT5qv9X6roTQUWhFcYd38/HvzsDCEQyOQq/v9eLJyX887Jv7stYtBJfDwTl72Z90TW5aOtNGPQdsHMdc7+ky18ko3nQjI81j+Ji7xTWL3fKXw67v/nN9aYZ0kOfx/rpowWymKnlv7UWfaFiAii8AAAAAElFTkSuQmCC;" vertex="1" parent="apEBoxvXm4Qr4Qo5Z26V-1">
          <mxGeometry x="551" y="148" width="25" height="131" as="geometry"/>
        </mxCell>
        <mxCell id="GfX2tnJlF5C678m-gZgc-41" value="&lt;font style=&quot;font-size: 10px&quot;&gt;&lt;b&gt;Feature&lt;sup&gt;SRE&lt;/sup&gt;&lt;/b&gt;&lt;/font&gt;" style="rounded=1;whiteSpace=wrap;html=1;strokeColor=#B20000;strokeWidth=1;fontSize=8;fillColor=#CCE5FF;labelBackgroundColor=none;fontColor=#000000;" vertex="1" parent="apEBoxvXm4Qr4Qo5Z26V-1">
          <mxGeometry x="379" y="258" width="65" height="14" as="geometry"/>
        </mxCell>
        <mxCell id="eofNgOwMaw1H1jfuJ11l-2" value="&lt;font style=&quot;font-size: 10px&quot;&gt;&lt;b&gt;Feature&lt;sup&gt;SRE&lt;/sup&gt;&lt;/b&gt;&lt;/font&gt;" style="rounded=1;whiteSpace=wrap;html=1;strokeColor=#B20000;strokeWidth=1;fontSize=8;fillColor=#CCE5FF;labelBackgroundColor=none;fontColor=#000000;" vertex="1" parent="apEBoxvXm4Qr4Qo5Z26V-1">
          <mxGeometry x="379" y="239" width="65" height="14" as="geometry"/>
        </mxCell>
        <mxCell id="eofNgOwMaw1H1jfuJ11l-3" value="&lt;font style=&quot;font-size: 10px&quot;&gt;&lt;b&gt;Feature&lt;/b&gt;&lt;/font&gt;" style="rounded=1;whiteSpace=wrap;html=1;strokeColor=#000000;strokeWidth=1;fontSize=8;fillColor=#ffffff;labelBackgroundColor=none;fontColor=#000000;" vertex="1" parent="apEBoxvXm4Qr4Qo5Z26V-1">
          <mxGeometry x="379" y="220" width="65" height="14" as="geometry"/>
        </mxCell>
        <mxCell id="eofNgOwMaw1H1jfuJ11l-7" value="&lt;font style=&quot;font-size: 10px&quot;&gt;&lt;b&gt;Feature&lt;/b&gt;&lt;/font&gt;" style="rounded=1;whiteSpace=wrap;html=1;strokeColor=#000000;strokeWidth=1;fontSize=8;fillColor=#ffffff;labelBackgroundColor=none;fontColor=#000000;" vertex="1" parent="apEBoxvXm4Qr4Qo5Z26V-1">
          <mxGeometry x="379" y="202" width="65" height="14" as="geometry"/>
        </mxCell>
        <mxCell id="eofNgOwMaw1H1jfuJ11l-8" value="&lt;font style=&quot;font-size: 10px&quot;&gt;&lt;b&gt;Feature&lt;/b&gt;&lt;/font&gt;" style="rounded=1;whiteSpace=wrap;html=1;strokeColor=#000000;strokeWidth=1;fontSize=8;fillColor=#ffffff;labelBackgroundColor=none;fontColor=#000000;" vertex="1" parent="apEBoxvXm4Qr4Qo5Z26V-1">
          <mxGeometry x="379" y="183" width="65" height="14" as="geometry"/>
        </mxCell>
        <mxCell id="eofNgOwMaw1H1jfuJ11l-9" value="&lt;font style=&quot;font-size: 10px&quot;&gt;&lt;b&gt;Feature&lt;/b&gt;&lt;/font&gt;" style="rounded=1;whiteSpace=wrap;html=1;strokeColor=#000000;strokeWidth=1;fontSize=8;fillColor=#ffffff;labelBackgroundColor=none;fontColor=#000000;" vertex="1" parent="apEBoxvXm4Qr4Qo5Z26V-1">
          <mxGeometry x="379" y="165" width="65" height="14" as="geometry"/>
        </mxCell>
        <mxCell id="eofNgOwMaw1H1jfuJ11l-13" value="&lt;font style=&quot;font-size: 10px&quot;&gt;&lt;b&gt;Feature&lt;/b&gt;&lt;/font&gt;" style="rounded=1;whiteSpace=wrap;html=1;strokeColor=#000000;strokeWidth=1;fontSize=8;fillColor=#ffffff;labelBackgroundColor=none;fontColor=#000000;" vertex="1" parent="apEBoxvXm4Qr4Qo5Z26V-1">
          <mxGeometry x="379" y="148" width="65" height="14" as="geometry"/>
        </mxCell>
        <mxCell id="eofNgOwMaw1H1jfuJ11l-38" value="" style="shape=image;verticalLabelPosition=bottom;labelBackgroundColor=#ffffff;verticalAlign=top;aspect=fixed;imageAspect=0;image=data:image/png,iVBORw0KGgoAAAANSUhEUgAAAB0AAACjCAYAAAB2UxUKAAAJV0lEQVR4Ae1ce2xT1xn/xb5x/CJ2nAdvJ5RXUqCEpkUpZQxYUbrStbTrBOsQGd1WOiG6Sd0o6z+dNG1U7aqpQi0FumlRtWYtE2wZhVYrDAojaQoklEdMGkhClnfs2CaxE8f2nT7Dvb3ftR1bIkybdK9kncf3nfM79zvf+c7P9r0nQxRFEQDGIiKONnlwtn0IZYVWPLwwl6pv66q96sMxlxclU814eKEDZoM+1l8Ggba7R7D30y6UTLXEAAtzjbLC7aDSjbT0BdDUHUDdNT+2rpoO6huhcFT8+f4WsXNwhPDv2NXnD4kvHbgqegNjYsaf63tFs0GHby3Ou52bSqvtp81euHoCEJq6h7GxfErKRj2eIdS7OvDJuVaEwhGmv2KRE8sXFcJZYGf16sLimVa8/3kfBJrPmJ3VGrfKQ8EQ9h0+i2MNbTBY7Mgw2ZGRoWPa++t78P4JF+ZOt+Olp1fAMcnE5FLBZhLgC4Yh0GRn6jOkepYea7iGt2rOQDTnwla0mMmUhSxLNoCZaPV78P1X/4pvf60Y3119DwzCTW9V6lJeUFdI5V//6SQa2r3InDwfeiFTqh43NWU7YJxkx4eNXWho+QdefXZNQmBup1tdfljXjPMdN2AsmJ02oDQaMr3BMQNdAQN2HayXqlkad6fX+7z4w8fnYZxWwhSpEAmPITDYAyE8LMuiggVZtjwIBj6PBvsU1F5pRr3r31haPEPWpwwDJa/c8c5RZObfFecsI55ORIbcePLBeVg8+x65k8vtffjb6WaEsmyxO5QFADLzZuH1v9Rh90/WMudioKcutCMEA4yqUY95O7HUacJPn/pO3ByVzpmKp7+xGO8cPotPLl6H4HDKuOQLIb0Fpy604bFlX1mOzenRc60QjTa5EWVGhryYbBzD9g3L4wCVij98pAzFU4wY9fcrq6Ez5+BwfQuvU5ba+3xxc4PgIB5ZOlepljS/btl8RIfdTC5kmdDV72N17E79QwHoBANTGB32g0yYznV3UQH8Pg5AJh4KjrLmDNRkzIIYDTOFLLMZLZ189ExBUbje64XValXUANFIBFkGvs4Z6OQcC8IhPqpI5iScvtTBOkpWqL3cAb2J+0RkbAS5Nj4QBvrQvbMgBrl5LDlT8PnVAZy+PD4wLZ2/17ciyzGNjWks4MWDC2ayOga6fFERSEkUo0wpM282frv/M/xsz8dobOlmMgLbWX0Kv/j9P6F3FMWtbzHgxZqyu1gbtk5pd9iytgxVx1tgyCuSFXV6PczT744F9F9V12JwcFCW2W026Ky5mORcJNdJGVrf37x/FuZM59SHgZLy2vJ5cHW48Vl7DyiUKS8K6Mh2wJSGM5PX5wojeHbtfcouYnlmXkm67YmlsOmG4xa6JE+VUkAxBLrxmx88lFA1ISjtg7/7cQUW5IkIdrsQDgUTNlZX0oYQGmjDNMGL17esYfFWqRtnXkloNRnwy00rY47z6genEdBZkGGwxvZLNXMgU4YDPuhDPmyuKI1NkdRPojQpqKRM0eiP29eh5l9NqHN14ovmLxGOcO+e5yzAiqVOPLZsFWiwqa6UoNQBmfupry+MfVJ1mI48LVDqaCLYoDSglKATyQbTAtXYoGSmRKnGBpVfNZj3amxQY4PqJaOxQY0Nyj6hsUHZFONkNDaoNg7bZdRCqTzRbDAhw5fA7lSa1p0SuEZByQraD5LaD5JsyWgUVKOg6tisUVCNgso+oVFQ2RTjZDQKqjYO22XUQqk80RQ0LVAC19ggWUFjgxobZEtGY4MaG5Ris5RqbFBjg5IvaH9Py5YYL6OxQbV12C6jFkpljQ1Klkj3YUVJf1zzan9PS2ZKlGp/T2t/T0N7WFF7WFEZHLSHFbWHFZX+EMsTPdEeVvy/fVjxf/vv6ZG2Nng++gjuqipER0aY8+WsX4+8detgLi5m9ckK47JBahT2etG+fTsGqqvhiEYxPRCA2jyDFy/i0s6dMJeVYe5778EwhT+MHAf+vX2Xkr731FtdLdbn54sdgkCvhKX89ANiXXa22P7yy2IkGEzYL+EhGWjzhg3i5exscTQNMOWAIoB4zWIRLz7wQEJgwlNbKmaJnn37ED1yBCV+P1I/rcuNRx3OGh6GrbERrVu3cuGtUhxowOVC544dmKt6XYH0QwDaAJy32+VPqyAgkKDrGcEgAgcOxJxPLWaORF7ZVFGBEo8nzlnajEb0ms2YvG0bCleulPvx19Xh0q5dyPP5YncoCwDM93pxYfNmWBsauHMp55Qch+ZROUeUb7VaxeZNmxLOkeQtrS++KDbb7XFtm81msXP3bklNjJtT97vvItfvVw4WHgA3Fi7E3Koq6IxGJlMWil55BdFVq9CTyV/eyA8E0L9nj1KVWzHQ1AQzEwP9Vivyt2xR1SYuTn7+efRaLExI/QWuXWN1zJFCbnect3oB2BVzyFqrCtnl5fAPDbFa8v6QynoMVLBawd+WAax6PYYaG1lHyQrk+WbVnVJ/gom/CcZAjU4neFQFcnw+DB48mAyH1XsOHYJjlL9vQ/0ZVWGRgeZWVsJt5rNKb7+MHDoET00NA1AXaOkMvvEGClWbgUcQ4Hj8cabOQGmnICX+PgFi67a9shKXVq+G9/hx1gGBfblxI65UVGD+wAD3TAD9FgvyKytZm7jY2713r+iy2eLWG61XCuiNdrt4HJA/5+x2sTMzM6E+re/WF16Q1yhlaJ3GgZKg5ZlnxA6TKWFH6sCRrDxIAywtZYASKDOvZINZb74J9+zZcQtdkqdKKaC0Op0oOXIkoWpCUIo8C06ehO/RR2OBPVFAT9QbbQhXbDZ0lpej5MQJHm8VDRKCklyw2zH/wAEUHjyIJqcTV7OyMADEORnpUgCh3eZ8fj5sr72GRbW1MBZ99Q6VAi+WZbuMWkhlikZLrlxB19tvo7emBk0nTyIa5iHEXloK4klLnnsuNthE/SjrUoKSMpmblhOl0WAwKTEj66RzpQTViFmy9akRM6WDMUfSiJlGzJTOQXmNmGnETOYyGjFTL4/xyhoxk6zDdhmpUpneCWIGOt+mbSDxbz6yS09QZng0LP6oyiXq6HQZOmXmv3FJp9nonliSj0NfuGPnI91pYDpHZ/39BYidj0SHJxEwDeC+okkTjk2HBBHg6uIcrJhnvwlKKF3eUXxwpg9n2m7gyXvzY5/bRaejiaTDnugO5xTc/BngP2xIKIlrrNx9AAAAAElFTkSuQmCC;rotation=180;" vertex="1" parent="apEBoxvXm4Qr4Qo5Z26V-1">
          <mxGeometry x="448" y="361.5" width="23" height="130" as="geometry"/>
        </mxCell>
        <mxCell id="eofNgOwMaw1H1jfuJ11l-48" value="" style="shape=image;verticalLabelPosition=bottom;labelBackgroundColor=#ffffff;verticalAlign=top;aspect=fixed;imageAspect=0;image=data:image/png,iVBORw0KGgoAAAANSUhEUgAAAB4AAACkCAYAAACAYZ6xAAAJkklEQVR4Ae1ca2xUxxX+9r3rXbO7fmFsYxts3k9hsMqjkEB4BFJE0kRt+VGKGhG1amh/tFEbtUqrirZCiSqlpVHbpAK1adQQtYUKC1IegRAbXIx5xTjGMX5j8GPX6315vetbnWtmueO5a1vB9Ec6I13N3DNn5rtz5syZ4/GeMSiKouB+OnXTh5qWARRl2vGVFTmM/FD58Ru9qGkJoqzIhQ3zMmAxGdT+DATcPTCEA2faVcCyonQ1dzvMDwXIGodjCbT0RlXwm3dC2LM2T+0fBPzKkSalrjNIxUeaOnxR5QeHG5XQYFwxHL3SrYRjw5MmWjbSVDmJvicYh/FaewiLC5yp+CadvrjAhWvtQZhJ/qRME0mNHb2ouHgLda3dHPvMXC82LS/B0tJpHF3vJc9jQ6d/EGaa/DSrSY8nSWu958er71airScExeGFxZ6drKPC3bYwLt6qAunjyzvXYH7R+CtiXNU99H4tjlY1wuDOh7OgmANkLzbnFAC5GIqG8OOD57BhaSF2bVoKl8PKWITcKFA0hL2/rcCxK92w582D3eXR1OgXLXYn0vLn40xDAHsPHEcwEtNnBJAS+A/HLuFu1AJrRgEMhpRsuh3bvXkImrzY9/Y53Xoi6vZY13IPxy81w+LJFxrGIgOIdLcgcqdefaLdtxEN+gU+a3omPu2J4diFBqGOCMIcx+IJvHLoA9hyZnENFGUYsb52pBuj2LFuDgpzRkTf1RdERfUtdPX4Ycks5KRj9k7HW8evYOWC6chId3D9CcCnLzdBsThhstg4xqHeVmxdmovdW5ZxdHrZUj5LHdnBU3WwTZ2drDeaTIDDgyMf3RTaCaI+WdsExeZONqZCJNCDWdk2obGWadsXZuOxhXmI+jq1ZFicXpyqbeZo9CIAt90LwGLnxWKI+vBkeanQeDRh8/ISJEI+jmy2OXCvr5+j0YsAHIkOwmDkZyAyMID5xeMbhdL8TPQHAhwIrYh4Ypij6QKbzWZA4RntaWlovStq7ujeSNGcaWmjybrvwogLsqdgaDDCMSu2dFTVtXM0vZequlY40nlDE49FkO0ly8YnAXjFnDxgMMhxObzTcOZ6O2h9p0o02r+eroPZU8CxDIb6UTZL3DwE4I1lpUiEfaB1yxLNkymjGD85eBYHjlSDNg2WCJDs+bdfr4AxowjqEmKVAAzhPjy18sESY1W8FpGpz3DhuXXzcKSmAxbvdManrmuy2WcauvB+zQkMBEekQnPqmJIJ+7R5AmjM34XV8/N1dysBmJB2rl+MmoY7aA/6YHF5k+A0crLD9KQnqfoFmltzzIcXn16nyyCImnH9bNfjMIa6dO0w40mVE6jS14JfPb8BVrP+Xp8SmPbSA3u3Is/sR6ynGcOJRCqcJJ3Zc6W3Cft2r0va8ySDpqAralZPhv3172xV7TAZ+4Tdq+7LtO9qE40wOuCDKerD9pWl2LVpk7ZatzwmMGtBdph2mPfOfoxz11vR2cSbRVqn6xdMx441y8ccJeuP8gkBEyONfs9Ty9VH28FnLU8YmAAmw8tkHzohYOllMnGNzqWXKb1MrU4Itlp6mSQe6WVqlURbll4mSUN6mUwnBAPCKqSXKb1MpgufNZ+Qs8c6l14mk4Q8y5RnmfIsk1aDsDvJs0wSizzLZKZSm8uzTJKGPMvU6oRgQFilPMv83JxlppxjNtePKpfurSBZ+a96QSQ6BOneSveW1EKwXNK9JbFI91bHZkC6tyQV6d5qdUMwIKxSurefG/dWeplMqZO59DKTohijIL1M6WWSegibhPQySSzSy9SzHdLLJKlIL1OrG4IBYZXSy/z/8zLJQFTXt+Hk5dugIA5tWruoEGsWFU3456/Udlz3lgJp/lhRg9O1zbA6PTA4PFz0B3VyuLoLfztbj1n5Hry8c60QBaL9SFYeE/h0bRN+d/QSlLRMuIuXsDZCPvKv+um4HejDN/b/E1/+4lx8bf3ilL+tpg5SAu97+0PUtvhhmToHJrNFANMjOKZkwJ7uwbErnaht/Df279mYElx3HVPEztW2AdhzSiYMyj6Efu5OoUqdYSt+849qRhZyYcT0A98/nbiqBleN5k7EhxD2dcEcDyWrhs1O2NxZMFv5MBarJxdVnzSgur4d5XP5EAZqzAGTtv7wzVOwZM8UFCja14FEsBfPrJ6NJSWLk8AUO3GksgExm1sdabICgCVrBl577wLe+O42QeE44PPXWxCDFfZRXz/k70B5oQPfe/Y5Yc4ocm/nhiV4s6IGJ2+0wpxRmMQm3YiZnDh/vRnbV81L0qnAzfGpy7eh2PmQI4remmofwktfXSOAant6fmsZ5ubaMRjgQwuNaV5UVDdqWdUyB9xyr1+YK0R82FrOR3sJvdwn7Fg1B8OhXq6awo46u8cJOwoEwzCa+ZC/wVBgQoGQhEahSYF+HoTEHYwMch9DL9yIHXYblOE4x2RLS1N/O88RU7xQaJLL5eJqKb7CZhXtAAc81etEPMZ/XcKSjsqP27jOUr1U1bXB5OB1JDEURaab/xhqzwE/sWwGlAgvKqc3F//5tAeVdWOD07L6V/Vt2DLyuO8aCvuxesGDYB5WyQGvWVQMYtSGHBGjJasErx6+iO///gSuNN5hbdWcAH/5znn86K0zamgSWS5tUsJ+bCybqSWpZW4dUxDGC9vKcOiDRlizHsShUgwThX7SJvDzd6rg8z2IDPG43TC6MpFeuEjonNb/kytmgGLdRicOmCop/KS+rRcXW7pAZk+baBPAlAw4xIAtLZtaptWQaY5iz7blQh0ReLncZ3nx6XK4jSHBGOj2oEMko2MN38EvvvmETu0ISReYYpR+/a3NWJClqPGnFN0zkUSbCIUoUajSay9sFOyztg9B1KyS3Nuffv0xVZn2v1uJsNEJg9Wl7rejFYjEGg/3wxTrx+7NS9XpYv2kylMCswa0CRx8aQeOfnQTF+o7cK3hlhAAObswB2vLC7F91eNjBjuzPikfF5iYSPTPrluoPtrGD1PWneOH6XCibSc0YupMurdakUr3Vrq30r2lFcFZLunekkike6s1ldqydG9JGtK91eoEZ0BYxf/EvaXbo4YSSvIWKQb+yN1bdrNQqtuMJtu9ZRcYGf5c1aVkuczYslD8w4qNfjJzurfp+I0+GL+0JBMf3upHf4Q/CZhMMNYXTenfL3eP3IxFF3JdbRtQ782qbPQrsfjwI7mjizDoHrCzn/jU/tUbyeiLaMR/uXAXl5oDWFniVm8OY1/6MDmNkB66HuuZZdkozRk5AfwvturKsw3YZ/AAAAAASUVORK5CYII=;" vertex="1" parent="apEBoxvXm4Qr4Qo5Z26V-1">
          <mxGeometry x="655" y="146.5" width="24" height="132" as="geometry"/>
        </mxCell>
        <mxCell id="eofNgOwMaw1H1jfuJ11l-49" value="" style="shape=image;verticalLabelPosition=bottom;labelBackgroundColor=#ffffff;verticalAlign=top;aspect=fixed;imageAspect=0;image=data:image/png,iVBORw0KGgoAAAANSUhEUgAAAB0AAACkCAYAAABrViWyAAAMTElEQVR4Ae1ce3BU1Rn/ZXP3vcnu5kUgsAmGEAJBokEGlPJSCAJVtDpY6pBiHbG1UGds0Trt2E7H6viYjlqqgnZgHKU+BkoKAa28lYQIJAgkIYQ8yTvZ3WyS3c0mm9v5Ltxlz713s1HU/nPPzM4953zf+X7nfOec73y5Od+N4XmeB4ChII+DVU6cbuxHfroFy3MTqfqGUsnlXhyqdiNnvAnLcxNg0sUK8mIItLHHj63HWpEz3iwApicaQgw3gkoDqe30oqrNi9I6D55YnAaSjcDwCP+7j2v5Fpef8L+31OkJ8M/uusy7vUN8zL/KOniTToMfz0q6kUGNqe2xGjeq273QVLUNCGodU6sbZJo1yYKzzf3gaD4FPUcR2O7sR1l1Mz4/U4/AcJDhXjDTgfkz0+FIsTH10oLVyKHXNwyOJlsbGyOlh8r9vgC2FZ/GofIG6Mw2xBhtiInRhOiU+bisHR8erUZWmg3Prl2AhDgjQ5cWOGlFePlQeR3+UXQKvCkR1oxZ4SQmrzfHA5iEeo8TP3/p3/jJj6bhp0tuho67ukUYZgARQZ9//zjKG93QjstGLKeVtlMsG+MTYIizYV9FK8pr/4uXHluqCMzq6ZqofaU1ONvcB0NK5pgBxV6Q6nUJE9Hq1eGN3WViNfOUjbSp041/fnoWhgk5DCMVgsND8LrawQ0PhGgjnBl6axI4HTuPOlsqSi7WoKz6CuZMmxjipwwDSqvymXcOQpt8k2yx+J0tCPb34P47pmJW5s0hIZWNndhzogYBvVUYYYgAQJs0Ga9+Uoo3f7OSWVwM6BfnGhGADgZJr4fcLZjjMOLJBx6UzVHelPFYe+csvFN8Gp+fbwKX4Ajh0loIxJrxxbkG3HP7dc0xc3rwTD14gzXUiDL+fjfGGYaw+aH5MsBwxkdX5GNaqgGDnq7wamhMdhSX1bJ14aXGzl7Z3MDnwoo5WeFsEfOrb8/GyEAPQ+f0RrR29TJ1zEg9/V5oOB3DMDjgAalwLGl6Rgo8vSwAqbjfN8g0Z0CNBj34kWGGQW8yobaF7T3DEFZo6nDDYrGE1QAjwSD0OnafM6Dj7GYMB9heBbVxOHGhmREUqVBS2YxYI7smgkN+JFrZjjCgd906GbyPVY/ZnoqvLnfjROXowLR1/lNWD33CBKZPQ1437pgxialjQOfPzAAx8fwIw6RNysQrH5/Eb9/+FBW1bQyNwF7Y+QV+/+5hxCZkyPY373Vjaf5NTBtmn9LpsGFlPnYcqYUuKSPEqImNhSltumDQ/7KzBC6XK0SzWa3QWBIR55gZqhMztL/vvm0ypqSx/hYDSswr505FdXMPTja2g0xZeCKDjvgEGMewmGnVJ3J+PLZydrgIIc+oV6RuvG8OrJoB2UYX6dGeZFB03jb89Rd3KbIqgtI5+LdfFmBGEg9fWzWGAz7FxtJKOhAC3Q2YwLnx6oaljL0N55WpVyRajDr8ad0iYeG89NEJeDVmxOgswnkp9RxIlcPeXsQGerG+IE+YIlGO0jMiqMhM1mj75tUo+rIKpdUt+LrmEoaD7Oqe6kjBgjkO3HP7YlBno6WooCSA1P3AwlzhF03gWOhjAiVB34U3KHYoKqjqDYqqCn+q3qDqDQrrQfUGVW8w3DBQXvUGVW+QWROqN6h6g8yCGEMhqmMmylC9QdKE+m5QfTfIbBn13aD6blA0keJTfTeovhsU14L6bjCkidEy6rtBqXaYU0ZKFMvf9btBxfe9Itj39RzTSAlcdUFJC6oLqrqgzJZRXVDVBZXaZtUFVV3Q0JpQ/z0dUsUoGdUFlSqHOWWkRLH8XbugYwIlcNUbJC2o3qDqDTJbRvUGVW9QtM3iU/UGVW9QXAvqC8mQJkbLqN6gVDvMKSMliuX/mzdI97aLT15CZRN75f2mVDuWzc4c82VyGkjUkVLYwysfnUBz9wB4ox1aQ7KoAOHZ0ezFyUslMHLAs2vnY3p6CkNXKowKuuOzchSV1CLGmgbzxOs3m8MFXfUEUzHkH8Afth/DnXkOFC7LG/UiasT3vZv+Xox9FV1CYIfBMnrED3VCazALV6wP13iwacsB0HXOSEkRdOu+U+jwa4UADeld3kiCxHqDfQL6Y+14/v1jYpXsKQOl2+YHTjVAa0uTMQd8ffB1NQq3m+mGs7+rXoi9kDLq4hJxuTsAirtRSsycUujKczuOQJ/CxlLQFfmA8wriNH6sXpgdCrCiv2+Kyy6hvdsNbaKDuQ7P2Sfh3QMVmDdjkuwaNQN66EwdeK0ZsVo908GhniasyEvF+uW3MvVUWD4nSxjR9oOV0I+bGqLTNXoYbdjzZZWsHaPez8vrwOvZMAWfpxtZyXpZw5D0a9foF+VOgN/VGl4NrdmOg+UNTB0VGNDmTg+0BjasKMbvwt1zpsgaSisKZmciOHA9KIDoFLbS6WTDJmSgPv8gYjSMxuHr6wOFpERLFFXQ6/EwbLTypZfKZaAcxwGSuAqDyQTy8qIlWlRmkykam0Bn1DsxOR5Dg+xFf14fh5LKK1GFlVQ2wRjHGhEKGki2U6AdmxjQ27InAIP9DIfRPh6Hz10B7d9IiUb5waFKcDY2lGxwoBf5WfJADAZ0af4UBL0uJnSF5oVCUv64/Si27CkDHQBiIjCyz796vRiahHQI20QkAojxOrFq3vVtJJKYVZOaYMGDC3Ow53QLtPbrgTW0bym47nBNOz47/Sn6+q9qg+bQGJ8Iw/gcGWDA3Y47pqcpnjoMKPVk7ZKbcbqmDVf6XdBa7GLnBGtDdpV+caFa5QzNJRdwYeN9CxUZGPWKHH8uXAzNQLuiXRV5Ij0JkHc24sVH74wYB6cISkEZWzatEEJQKBSFIraiJdE+8z11eH79wpB9VmonU6/IRKFJr/96hWBXyXAHDXbQuUrnZniikfn7XIj1u3DPvCkoXLYsnKyYjwgqctP7XzopPjl6AcfONaG1jjV1tA+XzJiE1fNnjzo6UR49o4ISE416XW4SVl05hZ6iHRjx+8NlwK5dg6TpNiBKTLHYKCrosNuNxs2b0b1zJxJGRpDm9bKnBADX+fO48MILMOXnI+uDD6BLZQO2RLDQ82fbLkQMSO/YuZMvS07mmzmOYvWj/roAvjQ+nm987jk+6PMpyiU8RAKteeghvjI+nh8cA1h4h4IAX2c28+fnzVMEJjzFLdO+bRtG9u9HjseD6BFNIaUJGRI4eWAA1ooK1D/xBEu8VpKBequr0fLMM8iShHQSPzmV5AectdlCv3qOg1dB9ESfD95du+A8cEBGZRYSrcqqggLkOJ2yxdJgMKDDZMK4jRuRvmhRSJCntBQX3ngDSb29wghDBADZbjfOrV8PS3k5u7jC55QWDs1j+BxRvt5i4WvWrVOcI3G11D/9NF9js8na1phMfMubb4psvGxOe957D4kSl8MJoC83F1k7dkBjMIQPhMlnvPgiRhYvRruWDXBN9nrR9fbbDC8zp96qKkgdji6LBckbNjCNIhXGbdqEDjNrJkmet66OacKABnp6ZKuVjmxb2BwyrSWF+Llz4bl21ookWv0BifYYUM5iARtRDFhiY9FfUSHKGPVJK98kGSnJ44ysW8uAGhwOsFYVsPf2wrV796hgItG5dy8SBtmYZJJnkJhFBjSxsBA9EjeSIoT9e/fCWVQkylZ80tZxvfYa0iWHgZPjkHDvvUwbBjRp9WoQExtzCWHfNhYW4sKSJXAfOcIIILBLDz+MiwUFyO7ulu3vLrMZyYWFTBuZ7W3bupWvtlpl+432Kxn0CpuNPwKEfmdsNr5Fq1Xkp/1d/9RToT1KGdqnMlAi1D7yCN9sNCoKkhqOSGUXdTAvjwEUQRn1ijqYvGULejIzZRtdpEd7kkGpdziQs3+/IqsiKFmeGcePo3fVKsGwKxl0JWl0IFy0WtEydy5yjh5l7W1YA0VQonM2G7J37UL67t2ocjhwWa9HNyBbZMRLBoROm7PJybC+/DJmlpTAkKH8NkaQHdYBxSxZo1suXkTrW2+ho6gIVcePY2SYNSG2vDzY16zBLY8/LnRWUVBYJXO0hdUzWVL3xCefFH4M4VsWNPR1GfrKzA+RvIGg8DWiHxRU/ISO5r5bkrH36x7ho0zf92g//KoTa25LgfBRJvpiEwFTB2ZnRPub7Jt3jb5MRIBLptmxYKrtKiiJaXUP4qNTnTjV0If7b00Wft9cPNuCvockfmGKRjgl5eoR9z9dJYoV9ZUcEwAAAABJRU5ErkJggg==;rotation=180;" vertex="1" parent="apEBoxvXm4Qr4Qo5Z26V-1">
          <mxGeometry x="557.5" y="357.5" width="25" height="136" as="geometry"/>
        </mxCell>
        <mxCell id="eofNgOwMaw1H1jfuJ11l-50" value="&lt;font style=&quot;font-size: 10px&quot;&gt;&lt;b&gt;Feature&lt;sup&gt;SRE&lt;/sup&gt;&lt;/b&gt;&lt;/font&gt;" style="rounded=1;whiteSpace=wrap;html=1;strokeColor=#B20000;strokeWidth=1;fontSize=8;fillColor=#CCE5FF;labelBackgroundColor=none;fontColor=#000000;" vertex="1" parent="apEBoxvXm4Qr4Qo5Z26V-1">
          <mxGeometry x="379" y="383.5" width="65" height="14" as="geometry"/>
        </mxCell>
        <mxCell id="eofNgOwMaw1H1jfuJ11l-51" value="&lt;font style=&quot;font-size: 10px&quot;&gt;&lt;b&gt;Feature&lt;sup&gt;SRE&lt;/sup&gt;&lt;/b&gt;&lt;/font&gt;" style="rounded=1;whiteSpace=wrap;html=1;strokeColor=#B20000;strokeWidth=1;fontSize=8;fillColor=#CCE5FF;labelBackgroundColor=none;fontColor=#000000;" vertex="1" parent="apEBoxvXm4Qr4Qo5Z26V-1">
          <mxGeometry x="379" y="365.5" width="65" height="14" as="geometry"/>
        </mxCell>
        <mxCell id="eofNgOwMaw1H1jfuJ11l-52" value="&lt;font style=&quot;font-size: 10px&quot;&gt;&lt;b&gt;Feature&lt;/b&gt;&lt;/font&gt;" style="rounded=1;whiteSpace=wrap;html=1;strokeColor=#000000;strokeWidth=1;fontSize=8;fillColor=#ffffff;labelBackgroundColor=none;fontColor=#000000;" vertex="1" parent="apEBoxvXm4Qr4Qo5Z26V-1">
          <mxGeometry x="379" y="473.5" width="65" height="14" as="geometry"/>
        </mxCell>
        <mxCell id="eofNgOwMaw1H1jfuJ11l-53" value="&lt;font style=&quot;font-size: 10px&quot;&gt;&lt;b&gt;Feature&lt;/b&gt;&lt;/font&gt;" style="rounded=1;whiteSpace=wrap;html=1;strokeColor=#000000;strokeWidth=1;fontSize=8;fillColor=#ffffff;labelBackgroundColor=none;fontColor=#000000;" vertex="1" parent="apEBoxvXm4Qr4Qo5Z26V-1">
          <mxGeometry x="379" y="455.5" width="65" height="14" as="geometry"/>
        </mxCell>
        <mxCell id="eofNgOwMaw1H1jfuJ11l-54" value="&lt;font style=&quot;font-size: 10px&quot;&gt;&lt;b&gt;Feature&lt;/b&gt;&lt;/font&gt;" style="rounded=1;whiteSpace=wrap;html=1;strokeColor=#000000;strokeWidth=1;fontSize=8;fillColor=#ffffff;labelBackgroundColor=none;fontColor=#000000;" vertex="1" parent="apEBoxvXm4Qr4Qo5Z26V-1">
          <mxGeometry x="379" y="436.5" width="65" height="14" as="geometry"/>
        </mxCell>
        <mxCell id="eofNgOwMaw1H1jfuJ11l-55" value="&lt;font style=&quot;font-size: 10px&quot;&gt;&lt;b&gt;Feature&lt;/b&gt;&lt;/font&gt;" style="rounded=1;whiteSpace=wrap;html=1;strokeColor=#000000;strokeWidth=1;fontSize=8;fillColor=#ffffff;labelBackgroundColor=none;fontColor=#000000;" vertex="1" parent="apEBoxvXm4Qr4Qo5Z26V-1">
          <mxGeometry x="379" y="418.5" width="65" height="14" as="geometry"/>
        </mxCell>
        <mxCell id="eofNgOwMaw1H1jfuJ11l-56" value="&lt;font style=&quot;font-size: 10px&quot;&gt;&lt;b&gt;Feature&lt;/b&gt;&lt;/font&gt;" style="rounded=1;whiteSpace=wrap;html=1;strokeColor=#000000;strokeWidth=1;fontSize=8;fillColor=#ffffff;labelBackgroundColor=none;fontColor=#000000;" vertex="1" parent="apEBoxvXm4Qr4Qo5Z26V-1">
          <mxGeometry x="379" y="401.5" width="65" height="14" as="geometry"/>
        </mxCell>
        <mxCell id="eofNgOwMaw1H1jfuJ11l-57" value="&lt;font style=&quot;font-size: 10px&quot;&gt;&lt;b&gt;Feature&lt;sup&gt;SRE&lt;/sup&gt;&lt;/b&gt;&lt;/font&gt;" style="rounded=1;whiteSpace=wrap;html=1;strokeColor=#B20000;strokeWidth=1;fontSize=8;fillColor=#CCE5FF;labelBackgroundColor=none;fontColor=#000000;" vertex="1" parent="apEBoxvXm4Qr4Qo5Z26V-1">
          <mxGeometry x="489.5" y="365.5" width="65" height="14" as="geometry"/>
        </mxCell>
        <mxCell id="eofNgOwMaw1H1jfuJ11l-58" value="&lt;font style=&quot;font-size: 10px&quot;&gt;&lt;b&gt;Feature&lt;sup&gt;SRE&lt;/sup&gt;&lt;/b&gt;&lt;/font&gt;" style="rounded=1;whiteSpace=wrap;html=1;strokeColor=#B20000;strokeWidth=1;fontSize=8;fillColor=#CCE5FF;labelBackgroundColor=none;fontColor=#000000;" vertex="1" parent="apEBoxvXm4Qr4Qo5Z26V-1">
          <mxGeometry x="483.5" y="259.5" width="65" height="14" as="geometry"/>
        </mxCell>
        <mxCell id="eofNgOwMaw1H1jfuJ11l-59" value="&lt;font style=&quot;font-size: 10px&quot;&gt;&lt;b&gt;Feature&lt;sup&gt;SRE&lt;/sup&gt;&lt;/b&gt;&lt;/font&gt;" style="rounded=1;whiteSpace=wrap;html=1;strokeColor=#B20000;strokeWidth=1;fontSize=8;fillColor=#CCE5FF;labelBackgroundColor=none;fontColor=#000000;" vertex="1" parent="apEBoxvXm4Qr4Qo5Z26V-1">
          <mxGeometry x="483.5" y="240.5" width="65" height="14" as="geometry"/>
        </mxCell>
        <mxCell id="eofNgOwMaw1H1jfuJ11l-61" value="&lt;font style=&quot;font-size: 10px&quot;&gt;&lt;b&gt;Feature&lt;/b&gt;&lt;/font&gt;" style="rounded=1;whiteSpace=wrap;html=1;strokeColor=#000000;strokeWidth=1;fontSize=8;fillColor=#ffffff;labelBackgroundColor=none;fontColor=#000000;" vertex="1" parent="apEBoxvXm4Qr4Qo5Z26V-1">
          <mxGeometry x="483.5" y="203.5" width="65" height="14" as="geometry"/>
        </mxCell>
        <mxCell id="eofNgOwMaw1H1jfuJ11l-62" value="&lt;font style=&quot;font-size: 10px&quot;&gt;&lt;b&gt;Feature&lt;/b&gt;&lt;/font&gt;" style="rounded=1;whiteSpace=wrap;html=1;strokeColor=#000000;strokeWidth=1;fontSize=8;fillColor=#ffffff;labelBackgroundColor=none;fontColor=#000000;" vertex="1" parent="apEBoxvXm4Qr4Qo5Z26V-1">
          <mxGeometry x="483.5" y="184.5" width="65" height="14" as="geometry"/>
        </mxCell>
        <mxCell id="eofNgOwMaw1H1jfuJ11l-63" value="&lt;font style=&quot;font-size: 10px&quot;&gt;&lt;b&gt;Feature&lt;/b&gt;&lt;/font&gt;" style="rounded=1;whiteSpace=wrap;html=1;strokeColor=#000000;strokeWidth=1;fontSize=8;fillColor=#ffffff;labelBackgroundColor=none;fontColor=#000000;" vertex="1" parent="apEBoxvXm4Qr4Qo5Z26V-1">
          <mxGeometry x="483.5" y="166.5" width="65" height="14" as="geometry"/>
        </mxCell>
        <mxCell id="eofNgOwMaw1H1jfuJ11l-64" value="&lt;font style=&quot;font-size: 10px&quot;&gt;&lt;b&gt;Feature&lt;/b&gt;&lt;/font&gt;" style="rounded=1;whiteSpace=wrap;html=1;strokeColor=#000000;strokeWidth=1;fontSize=8;fillColor=#ffffff;labelBackgroundColor=none;fontColor=#000000;" vertex="1" parent="apEBoxvXm4Qr4Qo5Z26V-1">
          <mxGeometry x="483.5" y="149.5" width="65" height="14" as="geometry"/>
        </mxCell>
        <mxCell id="eofNgOwMaw1H1jfuJ11l-65" value="&lt;font style=&quot;font-size: 10px&quot;&gt;&lt;b&gt;Feature&lt;sup&gt;SRE&lt;/sup&gt;&lt;/b&gt;&lt;/font&gt;" style="rounded=1;whiteSpace=wrap;html=1;strokeColor=#B20000;strokeWidth=1;fontSize=8;fillColor=#CCE5FF;labelBackgroundColor=none;fontColor=#000000;" vertex="1" parent="apEBoxvXm4Qr4Qo5Z26V-1">
          <mxGeometry x="483.5" y="222" width="65" height="14" as="geometry"/>
        </mxCell>
        <mxCell id="eofNgOwMaw1H1jfuJ11l-66" value="&lt;font style=&quot;font-size: 10px&quot;&gt;&lt;b&gt;Feature&lt;/b&gt;&lt;/font&gt;" style="rounded=1;whiteSpace=wrap;html=1;strokeColor=#000000;strokeWidth=1;fontSize=8;fillColor=#ffffff;labelBackgroundColor=none;fontColor=#000000;" vertex="1" parent="apEBoxvXm4Qr4Qo5Z26V-1">
          <mxGeometry x="588" y="204.5" width="65" height="14" as="geometry"/>
        </mxCell>
        <mxCell id="eofNgOwMaw1H1jfuJ11l-67" value="&lt;font style=&quot;font-size: 10px&quot;&gt;&lt;b&gt;Feature&lt;/b&gt;&lt;/font&gt;" style="rounded=1;whiteSpace=wrap;html=1;strokeColor=#000000;strokeWidth=1;fontSize=8;fillColor=#ffffff;labelBackgroundColor=none;fontColor=#000000;" vertex="1" parent="apEBoxvXm4Qr4Qo5Z26V-1">
          <mxGeometry x="588" y="185.5" width="65" height="14" as="geometry"/>
        </mxCell>
        <mxCell id="eofNgOwMaw1H1jfuJ11l-68" value="&lt;font style=&quot;font-size: 10px&quot;&gt;&lt;b&gt;Feature&lt;/b&gt;&lt;/font&gt;" style="rounded=1;whiteSpace=wrap;html=1;strokeColor=#000000;strokeWidth=1;fontSize=8;fillColor=#ffffff;labelBackgroundColor=none;fontColor=#000000;" vertex="1" parent="apEBoxvXm4Qr4Qo5Z26V-1">
          <mxGeometry x="588" y="167.5" width="65" height="14" as="geometry"/>
        </mxCell>
        <mxCell id="eofNgOwMaw1H1jfuJ11l-69" value="&lt;font style=&quot;font-size: 10px&quot;&gt;&lt;b&gt;Feature&lt;/b&gt;&lt;/font&gt;" style="rounded=1;whiteSpace=wrap;html=1;strokeColor=#000000;strokeWidth=1;fontSize=8;fillColor=#ffffff;labelBackgroundColor=none;fontColor=#000000;" vertex="1" parent="apEBoxvXm4Qr4Qo5Z26V-1">
          <mxGeometry x="588" y="150.5" width="65" height="14" as="geometry"/>
        </mxCell>
        <mxCell id="eofNgOwMaw1H1jfuJ11l-72" value="&lt;font style=&quot;font-size: 10px&quot;&gt;&lt;b&gt;Feature&lt;/b&gt;&lt;/font&gt;" style="rounded=1;whiteSpace=wrap;html=1;strokeColor=#000000;strokeWidth=1;fontSize=8;fillColor=#ffffff;labelBackgroundColor=none;fontColor=#000000;" vertex="1" parent="apEBoxvXm4Qr4Qo5Z26V-1">
          <mxGeometry x="588" y="260" width="65" height="14" as="geometry"/>
        </mxCell>
        <mxCell id="eofNgOwMaw1H1jfuJ11l-73" value="&lt;font style=&quot;font-size: 10px&quot;&gt;&lt;b&gt;Feature&lt;/b&gt;&lt;/font&gt;" style="rounded=1;whiteSpace=wrap;html=1;strokeColor=#000000;strokeWidth=1;fontSize=8;fillColor=#ffffff;labelBackgroundColor=none;fontColor=#000000;" vertex="1" parent="apEBoxvXm4Qr4Qo5Z26V-1">
          <mxGeometry x="588" y="241" width="65" height="14" as="geometry"/>
        </mxCell>
        <mxCell id="eofNgOwMaw1H1jfuJ11l-74" value="&lt;font style=&quot;font-size: 10px&quot;&gt;&lt;b&gt;Feature&lt;/b&gt;&lt;/font&gt;" style="rounded=1;whiteSpace=wrap;html=1;strokeColor=#000000;strokeWidth=1;fontSize=8;fillColor=#ffffff;labelBackgroundColor=none;fontColor=#000000;" vertex="1" parent="apEBoxvXm4Qr4Qo5Z26V-1">
          <mxGeometry x="588" y="223" width="65" height="14" as="geometry"/>
        </mxCell>
        <mxCell id="eofNgOwMaw1H1jfuJ11l-75" value="&lt;font style=&quot;font-size: 10px&quot;&gt;&lt;b&gt;Feature&lt;/b&gt;&lt;/font&gt;" style="rounded=1;whiteSpace=wrap;html=1;strokeColor=#000000;strokeWidth=1;fontSize=8;fillColor=#ffffff;labelBackgroundColor=none;fontColor=#000000;" vertex="1" parent="apEBoxvXm4Qr4Qo5Z26V-1">
          <mxGeometry x="489.5" y="454.5" width="65" height="14" as="geometry"/>
        </mxCell>
        <mxCell id="eofNgOwMaw1H1jfuJ11l-76" value="&lt;font style=&quot;font-size: 10px&quot;&gt;&lt;b&gt;Feature&lt;/b&gt;&lt;/font&gt;" style="rounded=1;whiteSpace=wrap;html=1;strokeColor=#000000;strokeWidth=1;fontSize=8;fillColor=#ffffff;labelBackgroundColor=none;fontColor=#000000;" vertex="1" parent="apEBoxvXm4Qr4Qo5Z26V-1">
          <mxGeometry x="489.5" y="436.5" width="65" height="14" as="geometry"/>
        </mxCell>
        <mxCell id="eofNgOwMaw1H1jfuJ11l-77" value="&lt;font style=&quot;font-size: 10px&quot;&gt;&lt;b&gt;Feature&lt;/b&gt;&lt;/font&gt;" style="rounded=1;whiteSpace=wrap;html=1;strokeColor=#000000;strokeWidth=1;fontSize=8;fillColor=#ffffff;labelBackgroundColor=none;fontColor=#000000;" vertex="1" parent="apEBoxvXm4Qr4Qo5Z26V-1">
          <mxGeometry x="489.5" y="419.5" width="65" height="14" as="geometry"/>
        </mxCell>
        <mxCell id="eofNgOwMaw1H1jfuJ11l-78" value="&lt;font style=&quot;font-size: 10px&quot;&gt;&lt;b&gt;Feature&lt;/b&gt;&lt;/font&gt;" style="rounded=1;whiteSpace=wrap;html=1;strokeColor=#000000;strokeWidth=1;fontSize=8;fillColor=#ffffff;labelBackgroundColor=none;fontColor=#000000;" vertex="1" parent="apEBoxvXm4Qr4Qo5Z26V-1">
          <mxGeometry x="489.5" y="401.5" width="65" height="14" as="geometry"/>
        </mxCell>
        <mxCell id="eofNgOwMaw1H1jfuJ11l-79" value="&lt;font style=&quot;font-size: 10px&quot;&gt;&lt;b&gt;Feature&lt;/b&gt;&lt;/font&gt;" style="rounded=1;whiteSpace=wrap;html=1;strokeColor=#000000;strokeWidth=1;fontSize=8;fillColor=#ffffff;labelBackgroundColor=none;fontColor=#000000;" vertex="1" parent="apEBoxvXm4Qr4Qo5Z26V-1">
          <mxGeometry x="489.5" y="383.5" width="65" height="14" as="geometry"/>
        </mxCell>
        <mxCell id="eofNgOwMaw1H1jfuJ11l-81" value="&lt;font style=&quot;font-size: 10px&quot;&gt;&lt;b&gt;Feature&lt;/b&gt;&lt;/font&gt;" style="rounded=1;whiteSpace=wrap;html=1;strokeColor=#000000;strokeWidth=1;fontSize=8;fillColor=#ffffff;labelBackgroundColor=none;fontColor=#000000;" vertex="1" parent="apEBoxvXm4Qr4Qo5Z26V-1">
          <mxGeometry x="489.5" y="472.5" width="65" height="14" as="geometry"/>
        </mxCell>
        <mxCell id="eofNgOwMaw1H1jfuJ11l-82" value="" style="shape=image;verticalLabelPosition=bottom;labelBackgroundColor=#ffffff;verticalAlign=top;aspect=fixed;imageAspect=0;image=data:image/png,iVBORw0KGgoAAAANSUhEUgAAAB0AAACjCAYAAAB2UxUKAAAJV0lEQVR4Ae1ce2xT1xn/xb5x/CJ2nAdvJ5RXUqCEpkUpZQxYUbrStbTrBOsQGd1WOiG6Sd0o6z+dNG1U7aqpQi0FumlRtWYtE2wZhVYrDAojaQoklEdMGkhClnfs2CaxE8f2nT7Dvb3ftR1bIkybdK9kncf3nfM79zvf+c7P9r0nQxRFEQDGIiKONnlwtn0IZYVWPLwwl6pv66q96sMxlxclU814eKEDZoM+1l8Ggba7R7D30y6UTLXEAAtzjbLC7aDSjbT0BdDUHUDdNT+2rpoO6huhcFT8+f4WsXNwhPDv2NXnD4kvHbgqegNjYsaf63tFs0GHby3Ou52bSqvtp81euHoCEJq6h7GxfErKRj2eIdS7OvDJuVaEwhGmv2KRE8sXFcJZYGf16sLimVa8/3kfBJrPmJ3VGrfKQ8EQ9h0+i2MNbTBY7Mgw2ZGRoWPa++t78P4JF+ZOt+Olp1fAMcnE5FLBZhLgC4Yh0GRn6jOkepYea7iGt2rOQDTnwla0mMmUhSxLNoCZaPV78P1X/4pvf60Y3119DwzCTW9V6lJeUFdI5V//6SQa2r3InDwfeiFTqh43NWU7YJxkx4eNXWho+QdefXZNQmBup1tdfljXjPMdN2AsmJ02oDQaMr3BMQNdAQN2HayXqlkad6fX+7z4w8fnYZxWwhSpEAmPITDYAyE8LMuiggVZtjwIBj6PBvsU1F5pRr3r31haPEPWpwwDJa/c8c5RZObfFecsI55ORIbcePLBeVg8+x65k8vtffjb6WaEsmyxO5QFADLzZuH1v9Rh90/WMudioKcutCMEA4yqUY95O7HUacJPn/pO3ByVzpmKp7+xGO8cPotPLl6H4HDKuOQLIb0Fpy604bFlX1mOzenRc60QjTa5EWVGhryYbBzD9g3L4wCVij98pAzFU4wY9fcrq6Ez5+BwfQuvU5ba+3xxc4PgIB5ZOlepljS/btl8RIfdTC5kmdDV72N17E79QwHoBANTGB32g0yYznV3UQH8Pg5AJh4KjrLmDNRkzIIYDTOFLLMZLZ189ExBUbje64XValXUANFIBFkGvs4Z6OQcC8IhPqpI5iScvtTBOkpWqL3cAb2J+0RkbAS5Nj4QBvrQvbMgBrl5LDlT8PnVAZy+PD4wLZ2/17ciyzGNjWks4MWDC2ayOga6fFERSEkUo0wpM282frv/M/xsz8dobOlmMgLbWX0Kv/j9P6F3FMWtbzHgxZqyu1gbtk5pd9iytgxVx1tgyCuSFXV6PczT744F9F9V12JwcFCW2W026Ky5mORcJNdJGVrf37x/FuZM59SHgZLy2vJ5cHW48Vl7DyiUKS8K6Mh2wJSGM5PX5wojeHbtfcouYnlmXkm67YmlsOmG4xa6JE+VUkAxBLrxmx88lFA1ISjtg7/7cQUW5IkIdrsQDgUTNlZX0oYQGmjDNMGL17esYfFWqRtnXkloNRnwy00rY47z6genEdBZkGGwxvZLNXMgU4YDPuhDPmyuKI1NkdRPojQpqKRM0eiP29eh5l9NqHN14ovmLxGOcO+e5yzAiqVOPLZsFWiwqa6UoNQBmfupry+MfVJ1mI48LVDqaCLYoDSglKATyQbTAtXYoGSmRKnGBpVfNZj3amxQY4PqJaOxQY0Nyj6hsUHZFONkNDaoNg7bZdRCqTzRbDAhw5fA7lSa1p0SuEZByQraD5LaD5JsyWgUVKOg6tisUVCNgso+oVFQ2RTjZDQKqjYO22XUQqk80RQ0LVAC19ggWUFjgxobZEtGY4MaG5Ris5RqbFBjg5IvaH9Py5YYL6OxQbV12C6jFkpljQ1Klkj3YUVJf1zzan9PS2ZKlGp/T2t/T0N7WFF7WFEZHLSHFbWHFZX+EMsTPdEeVvy/fVjxf/vv6ZG2Nng++gjuqipER0aY8+WsX4+8detgLi5m9ckK47JBahT2etG+fTsGqqvhiEYxPRCA2jyDFy/i0s6dMJeVYe5778EwhT+MHAf+vX2Xkr731FtdLdbn54sdgkCvhKX89ANiXXa22P7yy2IkGEzYL+EhGWjzhg3i5exscTQNMOWAIoB4zWIRLz7wQEJgwlNbKmaJnn37ED1yBCV+P1I/rcuNRx3OGh6GrbERrVu3cuGtUhxowOVC544dmKt6XYH0QwDaAJy32+VPqyAgkKDrGcEgAgcOxJxPLWaORF7ZVFGBEo8nzlnajEb0ms2YvG0bCleulPvx19Xh0q5dyPP5YncoCwDM93pxYfNmWBsauHMp55Qch+ZROUeUb7VaxeZNmxLOkeQtrS++KDbb7XFtm81msXP3bklNjJtT97vvItfvVw4WHgA3Fi7E3Koq6IxGJlMWil55BdFVq9CTyV/eyA8E0L9nj1KVWzHQ1AQzEwP9Vivyt2xR1SYuTn7+efRaLExI/QWuXWN1zJFCbnect3oB2BVzyFqrCtnl5fAPDbFa8v6QynoMVLBawd+WAax6PYYaG1lHyQrk+WbVnVJ/gom/CcZAjU4neFQFcnw+DB48mAyH1XsOHYJjlL9vQ/0ZVWGRgeZWVsJt5rNKb7+MHDoET00NA1AXaOkMvvEGClWbgUcQ4Hj8cabOQGmnICX+PgFi67a9shKXVq+G9/hx1gGBfblxI65UVGD+wAD3TAD9FgvyKytZm7jY2713r+iy2eLWG61XCuiNdrt4HJA/5+x2sTMzM6E+re/WF16Q1yhlaJ3GgZKg5ZlnxA6TKWFH6sCRrDxIAywtZYASKDOvZINZb74J9+zZcQtdkqdKKaC0Op0oOXIkoWpCUIo8C06ehO/RR2OBPVFAT9QbbQhXbDZ0lpej5MQJHm8VDRKCklyw2zH/wAEUHjyIJqcTV7OyMADEORnpUgCh3eZ8fj5sr72GRbW1MBZ99Q6VAi+WZbuMWkhlikZLrlxB19tvo7emBk0nTyIa5iHEXloK4klLnnsuNthE/SjrUoKSMpmblhOl0WAwKTEj66RzpQTViFmy9akRM6WDMUfSiJlGzJTOQXmNmGnETOYyGjFTL4/xyhoxk6zDdhmpUpneCWIGOt+mbSDxbz6yS09QZng0LP6oyiXq6HQZOmXmv3FJp9nonliSj0NfuGPnI91pYDpHZ/39BYidj0SHJxEwDeC+okkTjk2HBBHg6uIcrJhnvwlKKF3eUXxwpg9n2m7gyXvzY5/bRaejiaTDnugO5xTc/BngP2xIKIlrrNx9AAAAAElFTkSuQmCC;rotation=180;" vertex="1" parent="apEBoxvXm4Qr4Qo5Z26V-1">
          <mxGeometry x="667" y="357.5" width="23" height="130" as="geometry"/>
        </mxCell>
        <mxCell id="eofNgOwMaw1H1jfuJ11l-83" value="&lt;font style=&quot;font-size: 10px&quot;&gt;&lt;b&gt;Feature&lt;sup&gt;SRE&lt;/sup&gt;&lt;/b&gt;&lt;/font&gt;" style="rounded=1;whiteSpace=wrap;html=1;strokeColor=#B20000;strokeWidth=1;fontSize=8;fillColor=#CCE5FF;labelBackgroundColor=none;fontColor=#000000;" vertex="1" parent="apEBoxvXm4Qr4Qo5Z26V-1">
          <mxGeometry x="598" y="379.5" width="65" height="14" as="geometry"/>
        </mxCell>
        <mxCell id="eofNgOwMaw1H1jfuJ11l-84" value="&lt;font style=&quot;font-size: 10px&quot;&gt;&lt;b&gt;Feature&lt;sup&gt;SRE&lt;/sup&gt;&lt;/b&gt;&lt;/font&gt;" style="rounded=1;whiteSpace=wrap;html=1;strokeColor=#B20000;strokeWidth=1;fontSize=8;fillColor=#CCE5FF;labelBackgroundColor=none;fontColor=#000000;" vertex="1" parent="apEBoxvXm4Qr4Qo5Z26V-1">
          <mxGeometry x="598" y="361.5" width="65" height="14" as="geometry"/>
        </mxCell>
        <mxCell id="eofNgOwMaw1H1jfuJ11l-85" value="&lt;font style=&quot;font-size: 10px&quot;&gt;&lt;b&gt;Feature&lt;/b&gt;&lt;/font&gt;" style="rounded=1;whiteSpace=wrap;html=1;strokeColor=#000000;strokeWidth=1;fontSize=8;fillColor=#ffffff;labelBackgroundColor=none;fontColor=#000000;" vertex="1" parent="apEBoxvXm4Qr4Qo5Z26V-1">
          <mxGeometry x="598" y="469.5" width="65" height="14" as="geometry"/>
        </mxCell>
        <mxCell id="eofNgOwMaw1H1jfuJ11l-86" value="&lt;font style=&quot;font-size: 10px&quot;&gt;&lt;b&gt;Feature&lt;/b&gt;&lt;/font&gt;" style="rounded=1;whiteSpace=wrap;html=1;strokeColor=#000000;strokeWidth=1;fontSize=8;fillColor=#ffffff;labelBackgroundColor=none;fontColor=#000000;" vertex="1" parent="apEBoxvXm4Qr4Qo5Z26V-1">
          <mxGeometry x="598" y="451.5" width="65" height="14" as="geometry"/>
        </mxCell>
        <mxCell id="eofNgOwMaw1H1jfuJ11l-87" value="&lt;font style=&quot;font-size: 10px&quot;&gt;&lt;b&gt;Feature&lt;/b&gt;&lt;/font&gt;" style="rounded=1;whiteSpace=wrap;html=1;strokeColor=#000000;strokeWidth=1;fontSize=8;fillColor=#ffffff;labelBackgroundColor=none;fontColor=#000000;" vertex="1" parent="apEBoxvXm4Qr4Qo5Z26V-1">
          <mxGeometry x="598" y="432.5" width="65" height="14" as="geometry"/>
        </mxCell>
        <mxCell id="eofNgOwMaw1H1jfuJ11l-88" value="&lt;font style=&quot;font-size: 10px&quot;&gt;&lt;b&gt;Feature&lt;/b&gt;&lt;/font&gt;" style="rounded=1;whiteSpace=wrap;html=1;strokeColor=#000000;strokeWidth=1;fontSize=8;fillColor=#ffffff;labelBackgroundColor=none;fontColor=#000000;" vertex="1" parent="apEBoxvXm4Qr4Qo5Z26V-1">
          <mxGeometry x="598" y="414.5" width="65" height="14" as="geometry"/>
        </mxCell>
        <mxCell id="eofNgOwMaw1H1jfuJ11l-89" value="&lt;font style=&quot;font-size: 10px&quot;&gt;&lt;b&gt;Feature&lt;/b&gt;&lt;/font&gt;" style="rounded=1;whiteSpace=wrap;html=1;strokeColor=#000000;strokeWidth=1;fontSize=8;fillColor=#ffffff;labelBackgroundColor=none;fontColor=#000000;" vertex="1" parent="apEBoxvXm4Qr4Qo5Z26V-1">
          <mxGeometry x="598" y="397.5" width="65" height="14" as="geometry"/>
        </mxCell>
        <mxCell id="z1Wk1lGyib5_o5GwhH48-3" style="rounded=0;orthogonalLoop=1;jettySize=auto;html=1;exitX=0.25;exitY=0;exitDx=0;exitDy=0;entryX=0.5;entryY=1;entryDx=0;entryDy=0;fontColor=#000000;" edge="1" parent="apEBoxvXm4Qr4Qo5Z26V-1" source="PyIev6YCdbYOea08Duwm-0" target="GfX2tnJlF5C678m-gZgc-38">
          <mxGeometry relative="1" as="geometry"/>
        </mxCell>
        <mxCell id="z1Wk1lGyib5_o5GwhH48-6" style="rounded=0;orthogonalLoop=1;jettySize=auto;html=1;exitX=0.25;exitY=1;exitDx=0;exitDy=0;entryX=0.5;entryY=1;entryDx=0;entryDy=0;fontColor=#000000;" edge="1" parent="apEBoxvXm4Qr4Qo5Z26V-1" source="PyIev6YCdbYOea08Duwm-0" target="eofNgOwMaw1H1jfuJ11l-38">
          <mxGeometry relative="1" as="geometry"/>
        </mxCell>
        <mxCell id="z1Wk1lGyib5_o5GwhH48-11" style="rounded=0;orthogonalLoop=1;jettySize=auto;html=1;exitX=0.5;exitY=1;exitDx=0;exitDy=0;entryX=0.5;entryY=1;entryDx=0;entryDy=0;fontColor=#000000;" edge="1" parent="apEBoxvXm4Qr4Qo5Z26V-1" source="PyIev6YCdbYOea08Duwm-0" target="eofNgOwMaw1H1jfuJ11l-49">
          <mxGeometry relative="1" as="geometry"/>
        </mxCell>
        <mxCell id="z1Wk1lGyib5_o5GwhH48-12" style="rounded=0;orthogonalLoop=1;jettySize=auto;html=1;exitX=0.75;exitY=1;exitDx=0;exitDy=0;entryX=0.5;entryY=1;entryDx=0;entryDy=0;fontColor=#000000;" edge="1" parent="apEBoxvXm4Qr4Qo5Z26V-1" source="PyIev6YCdbYOea08Duwm-0" target="eofNgOwMaw1H1jfuJ11l-82">
          <mxGeometry relative="1" as="geometry"/>
        </mxCell>
        <mxCell id="z1Wk1lGyib5_o5GwhH48-13" style="rounded=0;orthogonalLoop=1;jettySize=auto;html=1;exitX=0.25;exitY=0;exitDx=0;exitDy=0;entryX=0.5;entryY=1;entryDx=0;entryDy=0;fontColor=#000000;" edge="1" parent="apEBoxvXm4Qr4Qo5Z26V-1" source="PyIev6YCdbYOea08Duwm-0" target="GfX2tnJlF5C678m-gZgc-39">
          <mxGeometry relative="1" as="geometry"/>
        </mxCell>
        <mxCell id="PyIev6YCdbYOea08Duwm-0" value="" style="shape=image;html=1;verticalAlign=top;verticalLabelPosition=bottom;labelBackgroundColor=none;imageAspect=0;aspect=fixed;image=https://cdn0.iconfinder.com/data/icons/google-material-design-3-0/48/ic_low_priority_48px-128.png;strokeColor=#000000;strokeWidth=1;gradientColor=none;fontSize=8;" vertex="1" parent="apEBoxvXm4Qr4Qo5Z26V-1">
          <mxGeometry x="522" y="309.5" width="20" height="20" as="geometry"/>
        </mxCell>
        <mxCell id="PyIev6YCdbYOea08Duwm-1" value="&lt;font style=&quot;font-size: 9px&quot;&gt;Feature team SRE Backlog&lt;/font&gt;" style="text;strokeColor=none;fillColor=none;html=1;fontSize=9;fontStyle=1;verticalAlign=middle;align=center;whiteSpace=wrap;labelBackgroundColor=none;" vertex="1" parent="apEBoxvXm4Qr4Qo5Z26V-1">
          <mxGeometry x="526" y="309.5" width="148" height="18" as="geometry"/>
        </mxCell>
        <mxCell id="z1Wk1lGyib5_o5GwhH48-0" value="" style="endArrow=classic;html=1;fontColor=#000000;entryX=0;entryY=0.5;entryDx=0;entryDy=0;exitX=0.985;exitY=0.483;exitDx=0;exitDy=0;exitPerimeter=0;edgeStyle=orthogonalEdgeStyle;" edge="1" parent="apEBoxvXm4Qr4Qo5Z26V-1" source="GfX2tnJlF5C678m-gZgc-3" target="PyIev6YCdbYOea08Duwm-0">
          <mxGeometry width="50" height="50" relative="1" as="geometry">
            <mxPoint x="150" y="560" as="sourcePoint"/>
            <mxPoint x="390" y="320" as="targetPoint"/>
            <Array as="points">
              <mxPoint x="340" y="257"/>
              <mxPoint x="340" y="320"/>
            </Array>
          </mxGeometry>
        </mxCell>
        <mxCell id="ohrBd-Sf7x7MG-vF4swo-0" value="&lt;font style=&quot;font-size: 12px;&quot;&gt;Feature team SRE Backlog&lt;/font&gt;" style="text;strokeColor=none;fillColor=none;html=1;fontSize=12;fontStyle=1;verticalAlign=middle;align=center;whiteSpace=wrap;labelBackgroundColor=none;" vertex="1" parent="apEBoxvXm4Qr4Qo5Z26V-1">
          <mxGeometry x="432.5" y="117.5" width="190" height="18" as="geometry"/>
        </mxCell>
      </root>
    </mxGraphModel>
  </diagram>
</mxfile>
